<?xml version="1.0" encoding="UTF-8" standalone="no"?>
<!-- Created with Inkscape (http://www.inkscape.org/) -->

<svg
   width="16"
   height="16"
   viewBox="0 0 4.2333332 4.2333333"
   version="1.1"
   id="svg1"
   inkscape:export-filename="bitmap.png"
   inkscape:export-xdpi="1.3683501"
   inkscape:export-ydpi="1.3683501"
   inkscape:version="1.4 (86a8ad7, 2024-10-11)"
   sodipodi:docname="favicon.svg"
   xmlns:inkscape="http://www.inkscape.org/namespaces/inkscape"
   xmlns:sodipodi="http://sodipodi.sourceforge.net/DTD/sodipodi-0.dtd"
   xmlns="http://www.w3.org/2000/svg"
   xmlns:svg="http://www.w3.org/2000/svg">
  <sodipodi:namedview
     id="namedview1"
     pagecolor="#505050"
     bordercolor="#eeeeee"
     borderopacity="1"
     inkscape:showpageshadow="0"
     inkscape:pageopacity="0"
     inkscape:pagecheckerboard="0"
     inkscape:deskcolor="#505050"
     inkscape:document-units="mm"
     inkscape:zoom="21.039457"
     inkscape:cx="10.480308"
     inkscape:cy="10.385249"
     inkscape:window-width="1366"
     inkscape:window-height="705"
     inkscape:window-x="-8"
     inkscape:window-y="-8"
     inkscape:window-maximized="1"
     inkscape:current-layer="layer1" />
  <defs
     id="defs1" />
  <g
     inkscape:label="Capa 1"
     inkscape:groupmode="layer"
     id="layer1">
    <g
       id="g1"
       transform="matrix(0.03101908,0,0,0.03101908,1.9730215,2.0228295)">
      <path
         style="fill:#302e2c;fill-opacity:1;stroke-width:0.264583"
         d="m 17.673245,-46.444903 c -1.439342,-0.455372 -1.65463,-0.758661 -1.181611,-1.664618 0.87262,-1.671304 3.557206,-3.271547 5.488387,-3.271547 0.894913,0 2.471597,0.59196 2.741996,1.029473 0.259392,0.419706 -2.159077,2.732053 -3.554039,3.398088 -1.611191,0.769277 -2.336948,0.874901 -3.494733,0.508604 z"
         id="path171" />
      <path
         style="fill:#302e2c;fill-opacity:1;stroke-width:0.264583"
         d="m 28.30614,-44.182179 c -0.657919,-0.248607 -1.431825,-0.594738 -1.719792,-0.769175 -0.487847,-0.295511 -0.495901,-0.367739 -0.11801,-1.058333 0.223065,-0.407647 1.051235,-1.128128 1.840381,-1.601071 1.23462,-0.73992 1.680112,-0.859896 3.192968,-0.859896 1.958142,0 3.424624,0.398801 3.424624,0.931307 0,0.464399 -1.912991,2.085816 -3.604083,3.054755 -1.571366,0.90034 -1.462606,0.889434 -3.016088,0.302413 z"
         id="path170" />
      <path
         style="fill:#302e2c;fill-opacity:1;stroke-width:0.264583"
         d="m 38.630477,-40.708025 c -1.29935,-0.471778 -2.619761,-1.227637 -2.753534,-1.576242 -0.261699,-0.681982 0.328475,-1.392769 1.757839,-2.117085 1.19531,-0.605708 1.602663,-0.677333 3.250734,-0.571566 1.781561,0.114335 3.565795,0.782056 3.565795,1.334447 0,0.448784 -1.499098,1.596938 -2.894039,2.216542 -1.671741,0.742548 -2.375276,0.914154 -2.926795,0.713904 z"
         id="path169" />
      <path
         style="fill:#302e2c;fill-opacity:1;stroke-width:0.264583"
         d="m 12.833603,-39.317174 c -2.931983,-0.931188 -6.2984858,-3.488483 -7.2877258,-5.535972 -0.5149903,-1.065906 -0.514895,-1.074529 0.023813,-2.187337 0.2974578,-0.614468 0.8216768,-1.395989 1.1649313,-1.736712 0.8619728,-0.855617 3.3812195,-2.342594 4.4336945,-2.616972 0.479349,-0.124966 1.382639,-0.377688 2.007309,-0.561605 1.149929,-0.338563 1.882402,-0.160372 2.106695,0.512501 0.05443,0.163279 -0.774901,1.226335 -1.84295,2.362348 -1.068047,1.136015 -2.090318,2.259356 -2.271708,2.496317 -0.468837,0.612463 -0.08676,1.45769 1.755113,3.882663 2.842723,3.742666 2.827748,4.311171 -0.08917,3.384769 z"
         id="path166" />
      <path
         style="fill:#302e2c;fill-opacity:1;stroke-width:0.264583"
         d="m 19.403088,-38.585974 c -1.398207,-0.493861 -2.179445,-1.2787 -3.224435,-3.239307 -1.217202,-2.283703 -1.169016,-2.412037 0.905677,-2.412037 1.838534,0 2.580158,0.258614 3.336036,1.163325 0.634521,0.75946 2.335419,3.989261 2.333805,4.431615 -0.0019,0.506476 -1.982465,0.539811 -3.351083,0.0564 z"
         id="path165" />
      <path
         style="fill:#302e2c;fill-opacity:1;stroke-width:0.264583"
         d="m 46.404893,-36.684771 c -1.281493,-0.604538 -2.482749,-1.555575 -2.482749,-1.965597 0,-0.284343 0.70407,-0.868712 1.937279,-1.607918 1.431973,-0.858351 3.911732,-0.864553 5.727002,-0.01431 0.881443,0.412848 1.331552,0.786132 1.331552,1.104286 0,0.480867 -1.140528,1.318032 -2.91439,2.139212 -2.113354,0.978344 -2.230909,0.989592 -3.598694,0.344344 z"
         id="path162" />
      <path
         style="fill:#302e2c;fill-opacity:1;stroke-width:0.264583"
         d="m 29.523842,-36.038992 c -1.634702,-0.638304 -2.795873,-1.7536 -3.713027,-3.566321 -0.887056,-1.75323 -0.670727,-2.379991 0.913862,-2.647707 1.641748,-0.27737 2.811727,0.460315 3.912958,2.467161 0.493535,0.899403 1.054298,2.230294 1.246142,2.957533 l 0.348806,1.322258 -0.703657,-0.01238 c -0.387011,-0.0068 -1.289299,-0.241054 -2.005084,-0.52055 z"
         id="path159" />
      <path
         style="fill:#302e2c;fill-opacity:1;stroke-width:0.264583"
         d="m 38.630477,-32.592159 c -2.312103,-0.421444 -4.321926,-2.977467 -4.351538,-5.534141 l -0.01409,-1.216226 1.455208,0.07988 c 2.301952,0.126368 3.07191,0.910889 3.858736,3.931714 0.413589,1.587878 0.480264,2.64986 0.17616,2.805806 -0.109141,0.05597 -0.615157,0.0258 -1.12448,-0.06704 z"
         id="path157" />
      <path
         style="fill:#302e2c;fill-opacity:1;stroke-width:0.264583"
         d="m 56.609767,-31.000153 c -1.566559,-0.460452 -3.850974,-2.308574 -3.63913,-2.944106 0.196652,-0.589955 2.87782,-1.26665 4.445257,-1.121931 2.397403,0.221348 4.497917,1.215384 4.497917,2.128573 0,0.374724 -2.755101,1.76694 -3.96875,2.005502 -0.363803,0.07151 -0.964684,0.04089 -1.335294,-0.06804 z"
         id="path155" />
      <path
         style="fill:#302e2c;fill-opacity:1;stroke-width:0.264583"
         d="m 45.906519,-28.324903 c -2.005822,-1.237668 -3.516312,-3.727069 -3.634872,-5.99054 l -0.0693,-1.322917 0.926042,0.08408 c 0.509323,0.04624 1.427358,0.322482 2.04008,0.61386 0.878761,0.417894 1.251781,0.820941 1.766234,1.908405 0.815198,1.723181 1.201942,4.616268 0.662742,4.957715 -0.532821,0.337407 -0.802823,0.297392 -1.690931,-0.250605 z"
         id="path153" />
      <path
         style="fill:#302e2c;fill-opacity:1;stroke-width:0.264583"
         d="m 54.092399,-22.772797 c -1.264023,-0.770813 -2.678073,-2.595586 -2.998994,-3.870084 -0.545271,-2.165474 -0.300392,-4.36527 0.485942,-4.36527 0.565708,0 2.822411,1.586261 3.371043,2.369544 0.700797,1.000528 0.82337,6.364185 0.145359,6.360716 -0.106367,-5.29e-4 -0.557876,-0.22325 -1.00335,-0.494906 z"
         id="path152" />
      <path
         style="fill:#302e2c;fill-opacity:1;stroke-width:0.264583"
         d="m 70.029441,-15.510752 c -0.701463,-0.498721 -2.725145,-1.6569 -4.49707,-2.573729 -4.009339,-2.074516 -5.909037,-3.804184 -6.78398,-6.176795 -0.321979,-0.873125 -0.604681,-1.884157 -0.628229,-2.246739 -0.04075,-0.627491 0.03602,-0.663511 1.593979,-0.747964 3.778806,-0.204837 8.15784,2.59279 10.071375,6.434286 0.715944,1.437288 1.917878,4.988692 1.917878,5.666838 0,0.741415 -0.186262,0.701812 -1.673953,-0.355897 z"
         id="path151"
         sodipodi:nodetypes="ssssssss" />
      <path
         style="fill:#302e2c;fill-opacity:1;stroke-width:0.264583"
         d="m -59.926223,57.739606 c -1.734309,-0.904295 -2.513408,-2.102786 -2.51544,-3.869515 -0.0021,-1.858346 0.782858,-3.637103 2.269737,-5.143093 1.114197,-1.128519 1.597745,-1.41679 2.844604,-1.695825 2.033146,-0.454996 3.999799,0.0061 5.498791,1.28915 l 1.081974,0.926132 -0.142322,2.007592 c -0.07828,1.104175 -0.222586,2.394545 -0.320681,2.867488 -0.17532,0.845262 -0.161972,0.859896 0.784326,0.859896 1.33654,0 3.695718,-0.876435 5.437026,-2.019856 1.480084,-0.971888 6.642341,-6.024462 8.626403,-8.443116 4.914721,-5.991246 8.719323,-12.366841 15.9765,-26.772769 2.202582,-4.372253 3.624916,-7.0232 6.213054,-11.5798835 1.003602,-1.7669457 5.1132237,-7.7757098 5.7001938,-8.3343749 0.076446,-0.07276 0.6088883,-0.7276041 1.1832061,-1.4552083 0.5743178,-0.7276042 3.770958,-4.0835288 7.10364437,-7.4576093 3.33700433,-3.378449 5.98128193,-6.261145 5.88548683,-6.416146 -0.3898873,-0.630848 -6.51777484,-0.127722 -12.8787708,1.057405 -2.0411625,0.380291 -10.4473403,2.678427 -13.1931143,3.606821 -4.344345,1.468895 -11.336181,4.6703483 -12.434448,5.693537 -0.462788,0.4311544 -0.475329,0.5588926 -0.14382,1.4650005 0.199747,0.5459624 0.777933,1.826096 1.284859,2.8447418 1.537306,3.0891506 2.032992,5.1931622 2.032992,8.629343 0,4.3972027 -1.026482,7.8972567 -3.34056,11.3904947 -2.398133,3.62013 -6.169282,6.492298 -10.550064,8.035105 -1.981923,0.697987 -5.82235,0.824492 -7.579382,0.249671 -4.224234,-1.381982 -6.831797,-4.416737 -7.659754,-8.914627 -0.369497,-2.007298 -0.112083,-4.052163 0.9631,-7.6507339 1.534208,-5.1349063 3.695422,-8.82639936 7.487475,-12.7891062 1.747753,-1.8264082 2.409751,-2.4047265 4.533146,-3.9601378 0.583147,-0.4271618 1.130689,-0.9985375 1.216761,-1.2697248 0.167121,-0.5265473 0.03972,-0.7435665 -1.950268,-3.3223203 -2.632469,-3.411315 -3.728788,-6.150909 -3.939656,-9.844838 -0.262718,-4.60216 0.657548,-7.278336 3.561313,-10.35648 2.406205,-2.550705 3.39186,-3.187729 10.378723,-6.707735 3.060742,-1.542013 5.512342,-2.555684 8.202083,-3.391342 5.400492,-1.677839 8.631804,-2.542188 11.169727,-2.987802 5.512633,-0.967922 15.9517973,-1.829194 17.06072956,-1.407578 0.32690064,0.124288 0.95603482,0.571609 1.39807424,0.994045 l 0.8037089,0.768067 -0.8624729,0.155863 c -0.47436087,0.08572 -2.9408517,0.5187 -5.4810871,0.962171 -14.1472997,2.469814 -19.4331137,3.921199 -26.0730547,7.159175 -8.857393,4.319318 -12.984152,8.25985 -13.507273,12.897736 -0.336494,2.983272 0.825474,6.376062 3.215497,9.388822 1.815304,2.288294 2.295359,2.294808 8.803003,0.119435 5.326538,-1.780553 7.831317,-2.376413 14.056481,-3.343878 6.567842,-1.020723 11.1379318,-1.373873 19.4468749,-1.502751 6.2817507,-0.09744 8.6047341,-0.226388 9.9218751,-0.550783 1.794176,-0.441884 7.329725,-2.937727 9.562068,-4.311301 1.40312,-0.863346 2.20717,-1.005594 2.428205,-0.42958 0.183021,0.47694 -0.336121,1.219046 -2.395971,3.42501 -0.964695,1.033124 -1.652548,1.996371 -1.605976,2.248958 0.05438,0.294928 0.74122,0.645692 2.06584,1.055013 4.271092,1.319808 6.396308,2.502662 8.672021,4.826677 1.799391,1.837584 2.885678,3.7846292 3.527472,6.3225813 0.510633,2.0192735 0.530897,2.3939685 0.228365,4.2225621 -1.23344,7.455265 -7.139136,13.8615866 -15.752263,17.0875796 -6.369004,2.38547 -9.587359,3.069601 -14.4080964,3.062745 -3.01034978,-0.0043 -8.1208668,0.688258 -9.2075422,1.247738 -0.9214115,0.474393 -1.4864186,1.309823 -4.1531196,6.140884 -1.3705628,2.482943 -4.9235488,7.903411 -5.7608758,8.788842 -0.176467,0.186605 -0.640133,0.815533 -1.03037,1.397616 -0.390236,0.582084 -1.163934,1.551903 -1.719326,2.155156 -0.555392,0.603255 -1.783712,1.96701 -2.729597,3.030569 -3.462087,3.892788 -9.718519,9.132824 -14.035101,11.755009 -3.127301,1.899735 -10.560754,4.557318 -15.492256,5.538737 -4.049366,0.805865 -8.483791,0.921576 -9.762678,0.254746 z M -46.16848,23.281784 c 3.112151,-1.156716 4.484346,-2.037921 6.876476,-4.415978 1.836894,-1.826085 2.648492,-2.874729 3.481165,-4.497916 2.627514,-5.1219949 2.822599,-7.5055652 0.941994,-11.5093751 -0.850832,-1.8114222 -3.778618,-6.3499999 -4.096314,-6.3499999 -0.657601,0 -5.789245,4.5370749 -7.840088,6.9317075 -2.436265,2.844665 -2.784084,3.3298738 -3.96997,5.5381154 -2.231374,4.1550511 -3.683169,9.3169391 -3.1614,11.2404311 0.948923,3.498215 3.689651,4.578898 7.768137,3.063015 z M 0.80846507,15.858745 C 12.21502,13.340648 19.773121,6.4548188 23.431369,-4.7519203 c 0.807564,-2.4739097 0.925428,-6.9451167 0.219945,-8.3438497 -1.050451,-2.082689 -2.510713,-3.047643 -4.938191,-3.263193 -1.524349,-0.135356 -1.737352,-0.08499 -2.877936,0.680471 -0.67746,0.454652 -1.686785,1.388427 -2.242942,2.075053 -0.556157,0.686628 -1.14881,1.367475 -1.317008,1.512996 -0.478613,0.414078 -4.0785126,5.3052157 -5.8420425,7.9374996 C 4.1492106,-0.74381625 1.5791407,3.4483743 0.26937124,5.9012232 -0.35226729,7.0653898 -1.0698173,8.3750773 -1.3251799,8.8116398 -2.2080415,10.320958 -5.025772,15.883989 -5.025772,16.117704 c 0,0.409228 3.5139894,0.253256 5.83423707,-0.258959 z"
         id="path120"
         sodipodi:nodetypes="ssssscssssssssssssssssssssssssssssssssscsssssssssssssssssssssssssssssssssssssssssssssssss" />
    </g>
  </g>
</svg>
