<?xml version="1.0" encoding="UTF-8" standalone="no"?>
<!-- Created with Inkscape (http://www.inkscape.org/) -->

<svg
   version="1.1"
   id="svg1"
   width="1200"
   height="600"
   viewBox="0 0 1200 600"
   sodipodi:docname="soloLetrasNegras.svg"
   inkscape:export-filename="soloLetras.png"
   inkscape:export-xdpi="96"
   inkscape:export-ydpi="96"
   inkscape:version="1.4 (86a8ad7, 2024-10-11)"
   xmlns:inkscape="http://www.inkscape.org/namespaces/inkscape"
   xmlns:sodipodi="http://sodipodi.sourceforge.net/DTD/sodipodi-0.dtd"
   xmlns="http://www.w3.org/2000/svg"
   xmlns:svg="http://www.w3.org/2000/svg">
  <defs
     id="defs1" />
  <sodipodi:namedview
     id="namedview1"
     pagecolor="#505050"
     bordercolor="#eeeeee"
     borderopacity="1"
     inkscape:showpageshadow="0"
     inkscape:pageopacity="0"
     inkscape:pagecheckerboard="0"
     inkscape:deskcolor="#505050"
     inkscape:zoom="0.5"
     inkscape:cx="605"
     inkscape:cy="277"
     inkscape:window-width="1366"
     inkscape:window-height="705"
     inkscape:window-x="-8"
     inkscape:window-y="-8"
     inkscape:window-maximized="1"
     inkscape:current-layer="g171" />
  <g
     inkscape:groupmode="layer"
     inkscape:label="Image"
     id="g1">
    <g
       id="g2"
       transform="translate(-29.90676,-74.999995)">
      <g
         id="g171"
         inkscape:label="Letras"
         transform="translate(0,-225.70083)">
        <path
           style="fill:#302e2c;fill-opacity:1"
           d="m 379.79156,346.65637 c -5.44003,-1.72109 -6.25372,-2.86738 -4.46593,-6.29147 C 378.62372,334.04816 388.77019,328 396.06914,328 c 3.38235,0 9.34147,2.23733 10.36345,3.89092 0.98038,1.58629 -8.16029,10.32587 -13.43259,12.84317 -6.08954,2.9075 -8.83256,3.30671 -13.20844,1.92228 z"
           id="path171" />
        <path
           style="fill:#302e2c;fill-opacity:1"
           d="m 419.97888,355.2084 c -2.48662,-0.93962 -5.41162,-2.24783 -6.5,-2.90712 -1.84383,-1.11689 -1.87427,-1.38988 -0.44602,-4 0.84308,-1.54071 3.97317,-4.26379 6.95577,-6.05129 4.66628,-2.79655 6.35003,-3.25 12.06791,-3.25 7.40085,0 12.94346,1.50728 12.94346,3.5199 0,1.75521 -7.2302,7.8834 -13.62173,11.54553 -5.93902,3.40286 -5.52796,3.36164 -11.39939,1.14298 z"
           id="path170" />
        <path
           style="fill:#302e2c;fill-opacity:1"
           d="m 459,368.33906 c -4.91093,-1.7831 -9.90146,-4.63989 -10.40706,-5.95745 -0.9891,-2.57757 1.24148,-5.26401 6.6438,-8.00158 4.51771,-2.28929 6.05731,-2.56 12.28624,-2.16025 6.73346,0.43213 13.47702,2.9558 13.47702,5.04358 0,1.69619 -5.66588,6.03567 -10.9381,8.37748 -6.31839,2.80648 -8.97742,3.45507 -11.0619,2.69822 z"
           id="path169" />
        <path
           style="fill:#302e2c;fill-opacity:1"
           d="m 361.5,373.59582 c -11.08151,-3.51945 -23.8053,-13.18482 -27.54416,-20.92336 -1.94642,-4.02862 -1.94606,-4.06121 0.09,-8.2671 1.12425,-2.3224 3.10555,-5.27618 4.40289,-6.56395 3.25785,-3.23383 12.77941,-8.8539 16.75727,-9.89092 1.81171,-0.47231 5.22572,-1.42748 7.58668,-2.1226 4.34619,-1.27961 7.11459,-0.60613 7.96231,1.93701 0.2057,0.61712 -2.92876,4.63497 -6.96548,8.92856 -4.03671,4.2936 -7.90041,8.5393 -8.58598,9.4349 -1.77198,2.31482 -0.32791,5.50938 6.6335,14.67463 10.74415,14.14551 10.68755,16.29419 -0.33701,12.79283 z"
           id="path166" />
        <path
           style="fill:#302e2c;fill-opacity:1"
           d="m 386.32955,376.35941 c -5.28456,-1.86656 -8.23727,-4.83288 -12.18684,-12.24305 C 369.54226,355.48504 369.72438,355 377.56574,355 c 6.94879,0 9.75178,0.97744 12.60864,4.39682 2.39819,2.8704 8.82678,15.07752 8.82068,16.74941 -0.007,1.91424 -7.49278,2.04023 -12.66551,0.21318 z"
           id="path165" />
        <path
           style="fill:#302e2c;fill-opacity:1"
           d="M 488.38362,383.54506 C 483.54018,381.26019 479,377.66572 479,376.11603 c 0,-1.07468 2.66105,-3.28332 7.322,-6.07717 5.41218,-3.24416 14.7845,-3.2676 21.64536,-0.0541 3.33144,1.56037 5.03264,2.97121 5.03264,4.17368 0,1.81745 -4.31066,4.98154 -11.01502,8.08521 -7.98748,3.69768 -8.43178,3.74019 -13.60136,1.30146 z"
           id="path162" />
        <path
           style="fill:#302e2c;fill-opacity:1"
           d="m 424.58122,385.9858 c -6.1784,-2.41249 -10.56708,-6.62778 -14.03349,-13.47901 -3.35265,-6.62638 -2.53503,-8.99524 3.45397,-10.00708 6.20503,-1.04833 10.627,1.73977 14.78913,9.3247 1.86533,3.39932 3.98475,8.42946 4.70983,11.17808 l 1.31832,4.99751 -2.65949,-0.0468 c -1.46272,-0.0257 -4.87294,-0.91107 -7.57827,-1.96743 z"
           id="path159" />
        <path
           style="fill:#302e2c;fill-opacity:1"
           d="m 459,399.0132 c -8.73866,-1.59286 -16.33484,-11.25342 -16.44676,-20.91644 L 442.5,373.5 l 5.5,0.30193 c 8.70029,0.47761 11.61037,3.44273 14.5842,14.86002 1.56317,6.00143 1.81517,10.01522 0.6658,10.60462 -0.4125,0.21153 -2.325,0.0975 -4.25,-0.25337 z"
           id="path157" />
        <path
           style="fill:#302e2c;fill-opacity:1"
           d="m 526.95322,405.03023 c -5.92085,-1.74029 -14.55486,-8.72532 -13.75419,-11.12733 0.74325,-2.22975 10.8768,-4.78734 16.80097,-4.24037 9.06105,0.83659 17,4.59358 17,8.045 0,1.41628 -10.41298,6.6782 -15,7.57985 -1.375,0.27027 -3.64605,0.15456 -5.04678,-0.25715 z"
           id="path155" />
        <path
           style="fill:#302e2c;fill-opacity:1"
           d="M 486.5,415.14141 C 478.91894,410.46361 473.21,401.05485 472.7619,392.5 l -0.2619,-5 3.5,0.31779 c 1.925,0.17478 5.39474,1.21883 7.71054,2.3201 3.3213,1.57944 4.73114,3.10277 6.67553,7.21287 3.08106,6.51281 4.54277,17.44731 2.50485,18.73782 -2.01381,1.27524 -3.03429,1.124 -6.39092,-0.94717 z"
           id="path153" />
        <path
           style="fill:#302e2c;fill-opacity:1"
           d="m 517.43876,436.12575 c -4.77741,-2.91331 -10.12185,-9.81009 -11.33478,-14.62709 C 504.04311,413.31419 504.96864,405 507.94061,405 c 2.13811,0 10.66738,5.99532 12.74095,8.95576 2.64868,3.78152 3.11195,24.05361 0.54939,24.0405 -0.40202,-0.002 -2.10851,-0.84378 -3.79219,-1.87051 z"
           id="path152" />
        <path
           style="fill:#302e2c;fill-opacity:1"
           d="m 577.67325,463.57285 c -2.6512,-1.88493 -10.29976,-6.2623 -16.9968,-9.72748 -15.15341,-7.84069 -22.33337,-14.37802 -25.64024,-23.34537 -1.21693,-3.3 -2.28541,-7.12122 -2.37441,-8.49161 -0.15401,-2.37162 0.13613,-2.50776 6.02449,-2.82695 14.2821,-0.77419 30.83278,9.79952 38.06504,24.31856 2.70593,5.43227 7.24867,18.8549 7.24867,21.41797 0,2.8022 -0.70398,2.65252 -6.32675,-1.34512 z"
           id="path151"
           sodipodi:nodetypes="ssssssss" />
        <path
           style="fill:#302e2c;fill-opacity:1"
           d="m 973.99994,624.98177 c -4.99507,-0.57524 -7.50498,-2.02607 -11.21337,-6.48177 -9.29568,-11.16895 -4.92844,-32.75825 13.55326,-67 12.30016,-22.78898 27.64347,-42.7952 42.66017,-55.62497 17.2538,-14.74107 28.2444,-20.41565 46.2406,-23.87467 13.1927,-2.53575 18.9378,-2.3602 26.0484,0.79599 3.927,1.74307 5.1509,2.94389 6.7998,6.6715 1.9417,4.38949 1.9532,4.76054 0.3358,10.78899 -3.758,14.00602 -14.6081,30.83316 -25.9489,40.24316 -2.6514,2.2 -6.4306,5.39954 -8.3982,7.11009 -10.4532,9.08755 -22.1041,15.59288 -42.0775,23.49417 -6.875,2.71969 -13.175,5.29411 -14,5.72095 -2.2905,1.18506 -6.7606,10.95324 -8.11093,17.72444 -1.49557,7.49938 -0.70841,10.83101 3.56983,15.10929 3.0942,3.09412 3.8104,3.33931 9.6911,3.31732 7.5938,-0.0284 14.4655,-2.60629 23.85,-8.94727 8.2469,-5.57236 19.0245,-16.33606 21.5568,-21.52899 6.2951,-12.90926 17.8927,-26.07411 27.3327,-31.02639 2.5358,-1.33028 5.8139,-3.50516 7.2848,-4.83306 3.5249,-3.18231 12.3295,-14.77922 17.282,-22.76287 11.161,-17.99218 14.2589,-23.19572 19.2758,-32.37768 6.4163,-11.74314 7.5709,-13.17271 12.2476,-15.16412 3.4614,-1.47393 25.4778,-8.62843 35.7703,-11.62402 6.2381,-1.81555 6.1551,-2.08818 2.7881,9.161 -4.7353,15.82036 -5.8618,25.80226 -5.2056,46.12714 1.0903,33.77035 -2.8046,47.66768 -19.0501,67.97197 -17.9056,22.37931 -44.7377,34.0165 -78.4514,34.0247 -11.0009,0.003 -14.2428,-0.32603 -16.609,-1.68406 -4.1717,-2.39423 -7.3814,-7.54752 -7.9737,-12.80202 -0.2796,-2.48082 -0.7081,-4.51059 -0.9522,-4.51059 -0.244,0 -3.328,2.44691 -6.8532,5.43757 -14.2273,12.06984 -28.7958,20.56522 -41.9429,24.45833 -7.13254,2.11207 -20.85014,3.082 -29.50006,2.08587 z m 123.40936,-31.56879 c 12.2801,-6.01299 26.4097,-22.7188 30.6064,-36.1868 1.568,-5.03186 2.3256,-11.26038 3.0078,-24.72618 0.9125,-18.01186 1.466,-22.562 4.4279,-36.39906 2.4214,-11.31217 2.2277,-11.16314 -8.3196,6.39906 -3.9637,6.6 -10.1026,16.5 -13.6419,22 -3.5393,5.5 -6.4474,10.72681 -6.4625,11.61514 -0.015,0.88833 0.8726,2.75931 1.9726,4.15773 2.4419,3.10442 2.489,4.98336 0.295,11.77674 -2.397,7.42182 -10.8609,16.40704 -18.8978,20.06166 -4.8811,2.21958 -7.3834,2.73881 -12.5,2.59369 l -6.3972,-0.18145 -0.2959,7.34366 c -0.3393,8.41797 0.9913,11.40379 6.1214,13.73612 4.6506,2.11434 13.1958,1.18241 20.0838,-2.19031 z m -71.8952,-43.28877 c 14.3009,-5.38031 25.3356,-13.00186 37.8229,-26.12382 10.6528,-11.19432 15.9352,-21.12668 16.4939,-31.01297 0.348,-6.15873 0.1795,-6.9115 -1.7819,-7.96122 -5.0883,-2.72314 -14.4434,2.27099 -26.0878,13.92671 -7.3872,7.39432 -11.8339,12.84242 -22.4836,27.54709 -4.46,6.15808 -12.1772,19.11104 -13.2563,22.25 -1.0803,3.14242 -1.0275,3.25 1.5948,3.25 1.4917,0 4.9558,-0.84411 7.698,-1.87579 z"
           id="path122" />
        <path
           style="fill:#302e2c;fill-opacity:1"
           d="m 389.90157,703.24341 c -1.42914,-0.95888 -3.42945,-2.58658 -4.44514,-3.61712 -2.63876,-2.67734 -3.10992,-11.84671 -0.98868,-19.24068 2.0751,-7.23311 14.61251,-31.49362 36.18153,-70.01302 4.0429,-7.22007 7.35072,-13.37386 7.35072,-13.67508 0,-0.30123 2.6372,-5.19389 5.86045,-10.8726 3.22325,-5.6787 8.68665,-15.72491 12.14088,-22.32491 3.45423,-6.6 6.61907,-12.45 7.03298,-13 1.02837,-1.36649 4.46855,-7.53064 9.20856,-16.5 9.30816,-17.6135 17.39547,-30.98309 19.25713,-31.83505 1.1,-0.5034 5.375,-1.66952 9.5,-2.59138 10.84457,-2.42356 23.93835,-5.50328 28.11602,-6.61303 1.98881,-0.52829 3.90735,-0.96054 4.26342,-0.96054 1.11078,0 -2.16566,6.89465 -8.75224,18.41748 -6.04279,10.57149 -9.38493,16.69989 -31.67554,58.08252 -5.3326,9.9 -13.12824,24.23712 -17.32365,31.86026 C 461.43261,607.9834 458,614.44953 458,614.72945 c 0,0.27991 -1.52004,3.04279 -3.37787,6.13974 -1.85783,3.09695 -5.9826,10.58081 -9.16616,16.63081 -3.18355,6.05 -6.77711,12.5813 -7.98569,14.514 C 432.70322,659.63728 430,666.07672 430,669.80929 c 0,3.36842 0.43723,4.11123 3.34009,5.67453 3.8635,2.08063 7.17932,1.69589 15.73943,-1.82624 8.66646,-3.56588 12.41057,-6.93765 14.9366,-13.45118 8.62232,-22.23326 12.00264,-29.32874 21.77469,-45.7064 20.06047,-33.62074 44.57895,-56.71573 70.99676,-66.87484 16.76474,-6.44697 17.95074,-6.75312 26.62169,-6.87186 6.64517,-0.091 9.29174,0.3053 12.12177,1.81514 3.9864,2.12677 3.85361,2.19537 8.34374,-4.31023 1.10613,-1.60263 2.96255,-2.11753 9.5,-2.63493 16.56921,-1.31134 27.20234,-2.42491 29.91802,-3.13319 2.72585,-0.71093 2.59615,-0.34795 -5.41022,15.14076 -4.51166,8.72803 -9.27257,17.57408 -10.57979,19.65788 -1.30722,2.0838 -5.1085,9.0588 -8.44727,15.5 -3.33878,6.4412 -7.75901,14.63627 -9.82274,18.21127 -2.06373,3.575 -5.90917,10.55 -8.54541,15.5 -16.73841,31.42921 -17.23918,32.79002 -13.38731,36.37858 3.97048,3.69907 10.81761,2.78091 22.39995,-3.00372 8.60187,-4.29608 9.5,-4.97879 9.5,-7.22139 0,-3.01106 7.96864,-23.95793 13.46635,-35.39848 6.25576,-13.01805 15.36482,-27.83532 23.82499,-38.75499 6.37934,-8.23392 20.7088,-22.37006 28.70866,-28.32136 28.11752,-20.91733 68.44122,-30.11824 76.7072,-17.50276 2.01401,3.07377 1.13746,10.06094 -1.97067,15.7087 -2.25508,4.09767 -2.29497,4.11782 -9.25069,4.67185 -3.84221,0.30604 -7.17144,0.42044 -7.39828,0.25423 -0.22684,-0.16622 0.11066,-1.45028 0.75,-2.85349 C 744.4769,539.05397 745,536.36244 745,534.476 c 0,-9.16374 -12.26618,-7.79162 -26.994,3.0196 -20.54189,15.07913 -47.65659,59.14964 -55.37585,90.0044 -1.85345,7.40841 -1.29842,10.43814 2.72863,14.89476 l 3.14122,3.47629 9,-0.83053 c 13.19552,-1.21771 27.32232,-7.28634 42.8211,-18.39521 8.56081,-6.13603 10.21933,-8.17007 13.18085,-16.16531 5.99594,-16.18728 18.91735,-39.28356 33.49364,-59.86795 5.3154,-7.50633 25.26086,-26.79213 33.40399,-32.29922 19.54865,-13.22051 46.05259,-20.46709 58.07058,-15.87737 6.38571,2.43872 10.53633,7.51542 10.50539,12.84934 -0.15751,27.15945 -33.04467,60.7337 -75.24634,76.81841 C 788.10598,594.24644 782.52415,596 781.32515,596 c -5.63902,0 -12.75986,18.53878 -10.90946,28.40227 0.35496,1.89209 2.05099,4.79437 3.80238,6.50667 2.77946,2.71744 3.84497,3.09106 8.81522,3.09106 16.14804,0 38.51326,-13.40219 61.7446,-37 9.25983,-9.40591 8.46847,-8.09994 36.96078,-60.99554 5.1832,-9.62255 9.77901,-17.94755 10.2129,-18.5 0.43389,-0.55245 2.93435,-5.16337 5.55658,-10.24648 2.62223,-5.08311 5.26813,-9.63393 5.87977,-10.11293 C 904.92799,495.93896 945,490.45921 945,491.4547 c 0,0.094 -1.125,2.50301 -2.5,5.35324 -1.375,2.85024 -2.5,5.40946 -2.5,5.68716 0,1.33041 3.03831,0.1447 8.5,-3.31716 12.15485,-7.70428 25.38068,-12.92645 35.08919,-13.85483 5.75478,-0.55031 6.27651,-0.41489 9.5,2.46581 2.93434,2.62228 3.39722,3.65317 3.31352,7.37958 -0.13464,5.99481 -4.0949,13.20536 -11.06429,20.14504 -8.49072,8.45455 -14.90127,11.87192 -21.5536,11.48993 L 958.5,526.5 958,519.39912 c -0.66446,-9.43648 -1.58118,-10.47418 -7.8227,-8.85515 -12.61824,3.27313 -21.62125,10.78201 -27.55564,22.98254 -2.13309,4.38542 -5.33316,10.44849 -7.11127,13.47349 -1.7781,3.025 -6.05067,10.9 -9.4946,17.5 -3.44393,6.6 -6.61017,12.45 -7.0361,13 -0.42593,0.55 -4.69697,8.425 -9.4912,17.5 -4.79423,9.075 -10.17742,18.975 -11.96265,22 -1.78523,3.025 -5.39154,9.55 -8.01401,14.5 -5.78754,10.92415 -7.09423,12.5 -10.36492,12.5 -3.33457,0 -17.37701,1.78271 -28.5213,3.62082 -4.88092,0.80505 -9.03266,1.30546 -9.22609,1.11203 -0.19343,-0.19343 0.46411,-1.89995 1.4612,-3.79227 0.9971,-1.89232 4.58236,-8.70398 7.96724,-15.13703 5.87841,-11.17204 6.71087,-14.74502 2.56728,-11.01897 -17.07201,15.35171 -37.39298,27.6987 -56.39524,34.26566 -8.07397,2.79027 -11.26634,3.34902 -21.26709,3.72226 -13.24563,0.49435 -15.99736,-0.27294 -21.36292,-5.95681 C 729.84575,646.02305 729,643.85749 729,637.06574 c 0,-7.36294 -1.03672,-7.67618 -6.54705,-1.97813 -7.33688,7.58682 -25.9033,20.64313 -37.95295,26.68933 C 673.39756,667.34786 650.70977,673 639.45046,673 c -11.02374,0 -18.71601,-4.69335 -19.98296,-12.19238 -0.36675,-2.17078 -1.30812,-4.19297 -2.09193,-4.49374 -1.29808,-0.49812 -5.7222,1.97626 -10.87557,6.08264 -7.93623,6.32386 -23.97428,15.81459 -33.78393,19.99207 -5.15442,2.19504 -22.59169,2.24421 -26.78545,0.0755 C 542.21279,680.54156 537,673.47055 537,670.34996 c 0,-3.16121 -0.80408,-2.97663 -5.5,1.26255 -2.2,1.98602 -6.475,5.47317 -9.5,7.74922 -3.025,2.27605 -6.02005,4.62618 -6.65567,5.22251 -2.10398,1.97394 -15.73807,8.29479 -22.34433,10.35897 -8.83546,2.76072 -18.64308,2.73195 -24.01962,-0.0705 C 463.99051,692.27189 460,686.67079 460,682.26787 460,680.47054 459.53647,679 458.96992,679 c -0.56654,0 -6.6996,3.88285 -13.62902,8.62856 -6.92943,4.7457 -16.80854,10.5957 -21.95359,13 -9.23252,4.31437 -9.49518,4.37135 -20.12097,4.36485 -8.57007,-0.005 -11.2964,-0.36223 -13.36477,-1.75 z m 138.7657,-39.35239 c 9.18452,-5.98395 12.72005,-10.92862 27.09284,-37.89102 1.90572,-3.575 5.74328,-10.775 8.52791,-16 2.78463,-5.225 6.03527,-11.075 7.22365,-13 1.18837,-1.925 4.12627,-7.325 6.52868,-12 2.4024,-4.675 6.01836,-11.22606 8.03547,-14.5579 4.59996,-7.59819 5.3143,-9.84464 3.9444,-12.40433 -1.63707,-3.05888 -12.69045,-2.87539 -19.52022,0.32403 -16.02456,7.50676 -36.1722,32.05515 -52.64026,64.1382 -9.61706,18.73595 -12.83419,27.18673 -13.55871,35.61618 -0.51197,5.95658 -0.34259,6.84226 1.69897,8.88382 2.05978,2.05978 2.90657,2.21407 9.23823,1.68325 5.98093,-0.50142 7.88757,-1.18182 13.42904,-4.79223 z m 267.95969,-83.0601 c 21.76713,-8.76176 40.70004,-25.19411 49.89094,-43.30162 4.25811,-8.38915 5.75842,-17.28651 3.39509,-20.13414 -2.19267,-2.642 -10.56811,-1.41654 -16.03759,2.34656 -12.64628,8.70087 -35.54823,37.21655 -46.28346,57.62849 -4.042,7.68543 -2.71927,8.19208 9.03502,3.46071 z"
           id="path121"
           sodipodi:nodetypes="ssssssssssssssssssssssssssssssssssssssssssssssssssscsssssssssssssssssssssssssscssssssssssssssssssssssssssssssssssssscssssssssssssssssssss" />
        <path
           style="fill:#302e2c;fill-opacity:1"
           d="m 86.502229,740.4246 c -6.554867,-3.41781 -9.499494,-7.94754 -9.507175,-14.62494 -0.0081,-7.02367 2.958834,-13.74653 8.578533,-19.43846 4.211139,-4.26527 6.038722,-5.3548 10.751261,-6.40942 7.684332,-1.71967 15.117352,0.0229 20.782832,4.87238 l 4.08935,3.50034 -0.53791,7.58775 c -0.29586,4.17326 -0.84127,9.05025 -1.21202,10.83775 -0.66263,3.19469 -0.61218,3.25 2.96438,3.25 5.05149,0 13.96807,-3.31251 20.54939,-7.6341 5.59402,-3.67328 25.10491,-22.76962 32.60373,-31.91099 18.57532,-22.64408 32.95492,-46.74082 60.38362,-101.18842 8.32472,-16.52505 13.70047,-26.54438 23.48241,-43.76649 3.79314,-6.67822 19.32557,-29.38851 21.54404,-31.5 0.28893,-0.275 2.30131,-2.75 4.47196,-5.5 2.17065,-2.75 14.25244,-15.43381 26.84842,-28.18624 12.6123,-12.76894 22.60642,-23.66417 22.24436,-24.25 -1.47359,-2.38431 -24.63411,-0.48273 -48.67567,3.99649 -7.71463,1.43732 -39.48601,10.12319 -49.86374,13.63208 -16.41957,5.55173 -42.84541,17.65171 -46.99634,21.51888 -1.74912,1.62956 -1.79652,2.11235 -0.54357,5.53701 0.75495,2.06348 2.94022,6.90178 4.85616,10.75178 5.81029,11.67553 7.68375,19.6277 7.68375,32.61484 0,16.61935 -3.87962,29.8479 -12.62574,43.05069 -9.06381,13.68238 -23.31697,24.53782 -39.87426,30.3689 -7.49073,2.63806 -22.00573,3.11619 -28.64648,0.94364 -15.96561,-5.22324 -25.820967,-16.69318 -28.950254,-33.69308 -1.396523,-7.58664 -0.423619,-15.31526 3.640064,-28.91616 5.79858,-19.40752 13.96695,-33.35962 28.29912,-48.33678 6.60568,-6.90296 9.10772,-9.08873 17.13315,-14.96745 2.20402,-1.61447 4.27347,-3.774 4.59878,-4.79896 0.63164,-1.9901 0.15014,-2.81033 -7.37109,-12.5568 C 127.2538,462.31568 123.11023,451.96131 122.31325,438 c -0.99295,-17.39399 2.48522,-27.50867 13.46008,-39.1426 9.09432,-9.64046 12.81963,-12.04811 39.22667,-25.35207 11.56816,-5.82808 20.83405,-9.65928 31,-12.81767 20.41131,-6.34144 32.62414,-9.60827 42.21629,-11.29248 20.83515,-3.65829 60.29026,-6.91349 64.4815,-5.31998 1.23553,0.46975 3.61336,2.16041 5.28406,3.75702 l 3.03764,2.90293 -3.25974,0.58909 c -1.79286,0.32399 -11.11503,1.96044 -20.71592,3.63655 -53.47011,9.33473 -73.44799,14.82028 -98.54383,27.0583 -33.47676,16.32498 -49.07396,31.21833 -51.05111,48.74735 -1.27179,11.27536 3.1199,24.0985 12.15306,35.48531 6.86099,8.64867 8.67537,8.67329 33.27119,0.45141 20.1318,-6.72965 29.59868,-8.98172 53.12686,-12.63828 24.82334,-3.85785 42.09612,-5.19259 73.5,-5.67969 23.74205,-0.36826 32.52183,-0.85564 37.5,-2.0817 6.78114,-1.67011 27.7029,-11.10322 36.1401,-16.29468 5.30313,-3.26304 8.34206,-3.80067 9.17747,-1.62361 0.69173,1.80261 -1.27038,4.60742 -9.05564,12.94492 -3.64609,3.90472 -6.24585,7.54534 -6.06983,8.5 0.20553,1.11469 2.80146,2.44041 7.8079,3.98745 16.14271,4.98825 24.17502,9.45888 32.77614,18.24256 6.80085,6.9452 10.9065,14.30411 13.33218,23.89637 1.92995,7.6319 2.00654,9.04807 0.86311,15.95929 -4.66182,28.17738 -26.98256,52.39025 -59.53611,64.58298 -24.07183,9.01595 -36.23569,11.60164 -54.4558,11.57573 -11.3777,-0.0162 -30.69304,2.60129 -34.80016,4.71586 -3.4825,1.79298 -5.61796,4.95051 -15.69683,23.20964 -5.18008,9.38435 -18.60869,29.87116 -21.77339,33.21767 -0.66696,0.70528 -2.4194,3.08233 -3.89431,5.28233 -1.47491,2.2 -4.39912,5.86546 -6.49824,8.14547 -2.09912,2.28002 -6.74159,7.43437 -10.31659,11.45412 -13.08505,14.7129 -36.73141,34.51776 -53.04605,44.42838 -11.81972,7.1801 -39.91466,17.22451 -58.55341,20.93381 -15.30469,3.04579 -32.064721,3.48312 -36.898311,0.96282 z M 138.5,610.19031 c 11.76246,-4.37184 16.94871,-7.70238 25.98983,-16.69031 6.94259,-6.90174 10.01005,-10.86512 13.15716,-17 9.93076,-19.35872 10.66809,-28.36749 3.56029,-43.5 -3.21574,-6.84632 -14.28139,-24 -15.48213,-24 -2.48542,0 -21.88061,17.148 -29.63183,26.19858 -9.20793,10.75149 -10.52252,12.58535 -15.00461,20.93146 -8.43354,15.70413 -13.92064,35.21363 -11.9486,42.48352 3.58648,13.2216 13.94514,17.30607 29.35989,11.57675 z m 177.55066,-28.05558 c 43.11139,-9.51722 71.67744,-35.5424 85.50389,-77.89858 3.05221,-9.35021 3.49768,-26.24926 0.83129,-31.53581 -3.97021,-7.87158 -9.48931,-11.51865 -18.66403,-12.33333 -5.76132,-0.51158 -6.56637,-0.32123 -10.87724,2.57186 -2.56048,1.71837 -6.37525,5.2476 -8.47726,7.84272 -2.10201,2.59513 -4.34196,5.16841 -4.97767,5.71841 -1.80893,1.56502 -15.41485,20.05121 -22.08016,30 -8.63238,12.88489 -18.34603,28.72939 -23.29634,38 -2.3495,4.4 -5.0615,9.35 -6.02665,11 C 304.64969,561.20451 294,582.23014 294,583.11347 c 0,1.54669 13.28122,0.95719 22.05066,-0.97874 z"
           id="path120"
           sodipodi:nodetypes="ssssscssssssssssssssssssssssssssssssssscsssssssssssssssssssssssssssssssssssssssssssssssss" />
        <path
           style="fill:#302e2c;fill-opacity:1"
           d="m 511.52449,835.10254 c -4.30958,-0.65317 -6.48228,-3.38146 -6.50975,-8.1744 -0.034,-5.9396 7.85511,-23.42011 15.91254,-35.25845 12.57228,-18.47175 25.05387,-28.38782 44.86039,-35.63961 6.1383,-2.24742 12.22354,-2.41605 18.71233,-0.51854 1.45374,0.42511 2.27313,-0.0428 3,-1.71334 0.91978,-2.11384 1.83151,-2.35334 11.36557,-2.98556 5.70106,-0.37805 11.01799,-0.93772 11.81539,-1.24371 2.09337,-0.8033 0.84091,2.70401 -3.36783,9.43107 -6.06947,9.70116 -9.57528,15.60637 -13.20709,22.24612 -1.58058,2.88963 -5.67103,9.84691 -9.08991,15.46061 -6.01511,9.87667 -7.56866,14.9722 -5.55711,18.22696 1.13615,1.83834 5.8292,1.14906 11.54098,-1.69504 6.48882,-3.23102 6.21842,-2.82107 38.3852,-58.19572 4.89919,-8.43387 4.84686,-8.40681 18.195,-9.40805 l 9.0802,-0.6811 -0.4437,3.02311 c -0.24403,1.66271 -0.15764,3.02311 0.192,3.02311 0.34963,0 4.1492,-1.76656 8.44349,-3.92568 4.29428,-2.15913 10.54947,-4.49197 13.90042,-5.1841 5.93737,-1.22634 6.19654,-1.18965 10.17001,1.43987 2.24256,1.48406 4.07738,3.5019 4.07738,4.4841 0,0.98219 0.49959,2.2854 1.1102,2.89601 1.69018,1.69018 -1.56774,10.41748 -7.38756,19.7898 -7.57342,12.19634 -16.29478,27.75585 -16.93949,30.22124 -0.66521,2.54376 0.66444,3.94155 4.21685,4.43294 2.41066,0.33346 2.30721,0.55129 -2.89506,6.09582 -2.96728,3.1625 -5.93564,5.75 -6.59636,5.75 -0.66072,0 -2.66005,0.72772 -4.44297,1.61715 -3.49049,1.74129 -12.30084,1.26244 -14.79061,-0.80389 -0.75284,-0.62479 -1.275,-3.32919 -1.275,-6.60351 0,-6.16713 2.77189,-12.00007 16.23454,-34.16264 3.82638,-6.2991 7.19386,-12.91217 7.48329,-14.69572 0.69374,-4.27499 -0.30233,-7.97797 -2.35821,-8.76689 -1.75083,-0.67185 -9.2252,1.76105 -13.24802,4.31222 -2.55354,1.61939 -8.35977,10.22458 -14.57652,21.60328 -2.10345,3.85 -6.30142,11.05 -9.32883,16 -3.02741,4.95 -6.91507,11.57244 -8.63923,14.71654 -1.72417,3.1441 -4.52512,7.68893 -6.22434,10.09963 -3.38041,4.79583 -1.63825,4.27003 -21.09268,6.3659 -2.8875,0.31107 -5.25,0.22548 -5.25,-0.19021 0,-0.41568 0.9367,-2.27141 2.08156,-4.12383 C 590.73015,819.70056 590.85962,819 589.704,819 c -0.80251,0 -1.92701,0.56378 -2.49889,1.25285 -0.57187,0.68907 -4.11447,2.75666 -7.87244,4.59463 -3.75797,1.83798 -7.61406,3.7492 -8.5691,4.24715 -0.95504,0.49795 -4.51256,0.90537 -7.90561,0.90537 -5.07257,0 -6.76367,-0.45344 -9.51357,-2.55089 C 551.50498,826.04612 550,824.27268 550,823.50813 c 0,-2.83828 -1.8897,-2.3779 -6.12297,1.49168 -2.39295,2.18737 -7.50671,5.48197 -11.36392,7.32134 -7.20807,3.43726 -12.25149,4.10561 -20.98862,2.78139 z m 30.78037,-14.02513 c 5.89148,-2.7 10.07223,-7.15381 15.76945,-16.7994 2.70913,-4.58665 4.92569,-8.56159 4.92569,-8.8332 0,-0.27161 1.9125,-3.5093 4.25,-7.19488 2.3375,-3.68558 4.7,-7.46103 5.25,-8.3899 0.55,-0.92886 2.49412,-4.1999 4.32027,-7.26897 3.8433,-6.45918 3.84902,-9.64133 0.0197,-10.98232 -6.19158,-2.16825 -21.35956,9.08704 -30.53705,22.65979 C 538.36186,796.01275 531,811.20246 531,815.84309 c 0,7.01537 3.69026,8.72401 11.30486,5.23432 z"
           id="path119" />
        <path
           style="fill:#302e2c;fill-opacity:1"
           d="m 420,845.57647 c 0,-1.30917 4.44999,-9.37291 13.01072,-23.57647 4.80667,-7.975 10.52756,-17.65 12.71308,-21.5 2.18553,-3.85 6.3484,-10.825 9.25084,-15.5 2.90243,-4.675 8.74343,-14.575 12.98,-22 10.35057,-18.14038 10.26475,-18.01379 12.54536,-18.50527 1.1,-0.23706 4.925,-1.08695 8.5,-1.88865 3.575,-0.8017 8.36153,-1.66638 10.63673,-1.92151 l 4.13674,-0.46387 -3.91453,6.90802 c -2.15299,3.79942 -6.7583,11.51226 -10.23401,17.13966 -7.79147,12.61485 -15.82669,27.6297 -15.42459,28.82284 0.40624,1.20541 12.57447,-5.12303 19.05324,-9.90918 10.77809,-7.96224 24.20304,-24.94488 26.626,-33.68204 0.6101,-2.2 1.11178,-6.15899 1.11484,-8.79775 0.004,-3.85113 -0.49307,-5.25988 -2.52175,-7.14 -4.96092,-4.59762 -7.44762,-4.97863 -17.73199,-2.71684 -5.13747,1.12985 -11.49647,2.97828 -14.1311,4.10762 -2.63464,1.12934 -5.14861,1.83186 -5.58661,1.56117 -0.438,-0.2707 -1.35244,0.17787 -2.03211,0.99681 -0.67966,0.81894 -1.66689,1.48899 -2.19384,1.48899 -2.12323,0 -12.35496,7.69926 -18.47841,13.90479 -9.09064,9.2125 -13.11926,16.71159 -15.79214,29.39636 -0.56444,2.67868 -0.81397,2.78799 -5.70711,2.5 -4.22252,-0.24851 -5.47189,-0.77823 -7.14806,-3.03065 -1.64781,-2.21432 -1.82548,-3.15806 -0.94131,-5 0.59944,-1.24878 2.11094,-4.49141 3.35889,-7.20586 7.69238,-16.73192 41.06319,-38.78999 65.41112,-43.23666 15.98228,-2.91886 19.56328,-3.21635 25.83184,-2.14601 C 534.81937,726.14344 539,730.34466 539,739.9273 c 0,10.93529 -5.75294,21.02575 -19.7178,34.58438 -10.06132,9.76864 -27.12341,19.15578 -40.14274,22.08554 -10.25431,2.30754 -9.80937,1.8236 -24.15594,26.27294 -5.92867,10.10358 -11.72177,19.31254 -12.87357,20.46434 -1.7791,1.77909 -3.59992,2.15465 -12.10207,2.49615 C 424.50355,846.05173 420,845.93735 420,845.57647 Z"
           id="path118" />
        <path
           style="fill:#302e2c;fill-opacity:1"
           d="m 175.5,875.86596 c -1.65,-0.45885 -3.75217,-0.59729 -4.67148,-0.30765 -0.96863,0.30518 -2.54549,-0.41152 -3.75,-1.7044 -4.89682,-5.25612 -1.66296,-16.88466 10.3845,-37.34132 7.30687,-12.4071 21.51291,-27.17298 32.03698,-33.29951 12.40764,-7.22304 28.61137,-10.6372 33.2062,-6.9966 0.6634,0.52563 1.65536,0.6781 2.20435,0.3388 0.54899,-0.33929 4.90627,-7.24053 9.68285,-15.33609 C 264.99083,763.59718 266.31481,762 270.52509,762 c 1.74706,0 4.48111,-0.41216 6.07569,-0.9159 C 282.08563,759.35137 289,758.92645 289,760.32211 c 0,0.70612 -2.475,5.22582 -5.5,10.04378 -3.025,4.81797 -5.5,8.95039 -5.5,9.18316 0,0.51098 -8.85216,15.61348 -14.03857,23.95095 -2.05281,3.3 -6.32664,10.5 -9.49742,16 -3.17077,5.5 -8.08697,13.825 -10.9249,18.5 -9.51057,15.66707 -9.4995,17.5 0.10568,17.5 4.92426,0 5.80441,-0.3256 7.86467,-2.9094 1.27593,-1.60018 2.87943,-4.97518 3.56333,-7.5 6.43932,-23.77282 33.19564,-53.76899 53.57658,-60.06402 7.47283,-2.30812 18.55622,-2.66182 22.35063,-0.71326 2.27625,1.16893 2.49152,1.83583 2.40524,7.45147 -0.0738,4.80542 -0.64833,7.00336 -2.60114,9.95143 -4.04904,6.11268 -12.38689,14.05762 -19.5945,18.67114 -6.31796,4.04406 -21.40409,11.0353 -27.09949,12.55848 -1.41727,0.37904 -3.39739,2.09412 -4.40027,3.81129 -2.11254,3.61716 -2.52608,12.55444 -0.68363,14.77445 1.47618,1.77869 9.20571,1.96031 14.07457,0.3307 6.72318,-2.25025 19.44429,-10.49307 26.59558,-17.23296 6.52693,-6.15145 8.78246,-9.43332 21.54685,-31.35146 7.84123,-13.46444 16.58318,-28.37263 19.42654,-33.12932 2.84336,-4.7567 6.35485,-10.67354 7.80331,-13.14854 4.22783,-7.22416 6.95195,-8.46419 23.37914,-10.6423 4.10711,-0.54457 4.31373,-0.45586 3.66911,1.57515 -0.3757,1.18372 -4.99353,9.44558 -10.26184,18.35968 -5.26832,8.91411 -13.14936,22.28247 -17.51342,29.70747 -4.36406,7.425 -10.37023,17.55 -13.34703,22.5 -11.18218,18.59435 -12.78153,23.49927 -8.14902,24.99152 1.2375,0.39863 2.62095,0.66496 3.07433,0.59185 1.12366,-0.18119 -0.15632,1.77118 -3.76903,5.74897 C 341.13304,854.70147 335.34608,857 327.50941,857 c -5.67441,0 -6.94465,-0.34433 -9.05486,-2.45455 -1.97677,-1.97676 -2.46047,-3.48531 -2.48496,-7.75 -0.0217,-3.77849 -0.2989,-4.83612 -0.96768,-3.69199 -1.36988,2.34355 -10.64818,9.23846 -17.07479,12.68864 -8.57553,4.60386 -23.44177,9.2079 -29.73191,9.2079 -5.84811,0 -11.33415,-2.52257 -13.24304,-6.08938 -1.28245,-2.39628 -2.45092,-2.40186 -5.7978,-0.0277 -3.11806,2.21184 -8.88818,5.58485 -15.07385,8.81164 C 230.59551,869.51253 228.05238,870 222.05303,870 213.5637,870 210,868.40634 210,864.60996 c 0,-3.80959 -1.08021,-3.72905 -6.07519,0.45299 -5.53025,4.63019 -15.42302,9.90591 -18.60971,9.92438 -1.2017,0.007 -3.2267,0.39522 -4.5,0.86278 -1.27331,0.46757 -3.6651,0.47469 -5.3151,0.0159 z m 27.14047,-15.04322 c 2.39774,-1.19749 4.35953,-2.54749 4.35953,-3 0,-0.4525 0.62809,-0.82274 1.39575,-0.82274 1.56455,0 2.53848,-1.49639 19.01926,-29.222 12.94226,-21.77276 13.94351,-25.00038 7.93641,-25.58379 -7.58892,-0.73705 -17.72854,6.49686 -27.74546,19.79444 -7.85484,10.42738 -16.51865,26.94148 -17.3376,33.04723 -1.05299,7.85067 3.74561,10.09515 12.37211,5.78686 z m 96.9982,-39.07548 c 8.27376,-4.22355 14.06285,-8.93133 19.20241,-15.61572 4.14993,-5.3973 6.76861,-12.10032 5.75707,-14.73635 -1.4546,-3.79063 -10.84281,0.10304 -19.33212,8.01781 C 299.04385,805.21408 287,821.87736 287,824.68499 c 0,2.21473 4.67301,1.12854 12.63867,-2.93773 z"
           id="path117" />
      </g>
    </g>
  </g>
</svg>
