<?xml version="1.0" encoding="UTF-8" standalone="no"?>
<!-- Created with Inkscape (http://www.inkscape.org/) -->

<svg
   version="1.1"
   id="svg1"
   width="1264"
   height="1100"
   viewBox="0 0 1264 1100"
   sodipodi:docname="logoConFondoBlanco.svg"
   inkscape:export-filename="logoConFondos.png"
   inkscape:export-xdpi="96"
   inkscape:export-ydpi="96"
   inkscape:version="1.4 (86a8ad7, 2024-10-11)"
   xmlns:inkscape="http://www.inkscape.org/namespaces/inkscape"
   xmlns:sodipodi="http://sodipodi.sourceforge.net/DTD/sodipodi-0.dtd"
   xmlns="http://www.w3.org/2000/svg"
   xmlns:svg="http://www.w3.org/2000/svg">
  <defs
     id="defs1" />
  <sodipodi:namedview
     id="namedview1"
     pagecolor="#505050"
     bordercolor="#eeeeee"
     borderopacity="1"
     inkscape:showpageshadow="0"
     inkscape:pageopacity="0"
     inkscape:pagecheckerboard="0"
     inkscape:deskcolor="#505050"
     inkscape:zoom="0.35355339"
     inkscape:cx="558.61436"
     inkscape:cy="612.35447"
     inkscape:window-width="1366"
     inkscape:window-height="705"
     inkscape:window-x="-8"
     inkscape:window-y="-8"
     inkscape:window-maximized="1"
     inkscape:current-layer="g1" />
  <g
     inkscape:groupmode="layer"
     inkscape:label="Image"
     id="g1">
    <g
       id="g2"
       transform="translate(1.9013925,-99.471227)">
      <g
         id="g172"
         inkscape:label="Fondo Marron">
        <path
           style="fill:#9c6c3e;fill-opacity:1"
           d="m 526,535.91565 c 0,-0.67052 1.97075,-4.63834 4.37944,-8.81739 8.88792,-15.42039 16.38675,-30.75488 17.09781,-34.9636 0.63712,-3.77107 0.26912,-5.26325 -2.85882,-11.59221 -3.32546,-6.72861 -3.96948,-7.42169 -8.7376,-9.40323 -7.40699,-3.07821 -11.82218,-2.71563 -32.71616,2.68668 -10.26557,2.65425 -21.13967,5.40616 -24.16467,6.11535 -3.025,0.7092 -8.24293,2.72368 -11.59541,4.47664 l -6.09541,3.18719 -1.10983,-4.05254 C 458.56623,477.58928 451.0059,465.358 444.714,458.5 c -3.0276,-3.3 -8.93657,-8.475 -13.13104,-11.5 -6.72306,-4.84859 -7.5585,-5.7961 -7.05382,-8 0.31487,-1.375 0.81451,-4.75 1.11031,-7.5 1.3738,-12.77201 -12.37868,-27.46184 -25.73607,-27.49023 -3.3604,-0.007 -6.31877,0.92295 -11,3.45833 -10.837,5.86936 -23.30872,11.91331 -25.25769,12.24019 -1.80574,0.30285 -1.80574,0.23431 0,-2.61707 2.62196,-4.14023 13.14179,-15.90587 15.74924,-17.61433 1.61141,-1.05584 3.09329,-1.19614 5.64503,-0.53446 1.90302,0.49346 7.06004,1.09929 11.46004,1.34629 6.0878,0.34174 9.07561,1.04719 12.5,2.95135 2.475,1.37625 7.50282,3.24755 11.17294,4.15845 9.78894,2.42955 17.02864,5.07508 21.43321,7.83214 2.14162,1.34056 7.11772,3.66164 11.058,5.15798 3.94029,1.49633 11.56102,5.6604 16.93497,9.25348 5.37395,3.59309 12.05008,7.42998 14.83585,8.52644 4.29255,1.68952 9.51239,5.68579 21.01401,16.08815 4.62643,4.18426 11.75721,6.74329 18.79027,6.74329 6.4024,0 7.18437,0.2531 12.05366,3.90146 2.8639,2.1458 10.15709,6.48111 16.20709,9.63402 6.05,3.1529 13.475,7.85957 16.5,10.45925 6.9887,6.00609 10.9314,8.01087 15.70034,7.98331 C 595.67999,492.91458 606,482.0819 606,470.62027 c 0,-10.30211 -6.19615,-31.36746 -12.12282,-41.21449 -3.60004,-5.9814 -12.94758,-16.09634 -19.13059,-20.70113 -3.69585,-2.75249 -3.74398,-2.87552 -3.13883,-8.0244 1.38865,-11.81524 -8.86069,-23.39872 -26.7535,-30.23594 C 541.08442,369.00377 538,367.48151 538,367.0615 c 0,-0.42001 -2.1375,-3.02069 -4.75,-5.7793 -4.94098,-5.2173 -10.33253,-8.38128 -23.58332,-13.83965 -4.30832,-1.77472 -8.92424,-4.17532 -10.2576,-5.33466 C 498.07572,340.94855 496.78301,340 496.5364,340 c -0.24661,0 -2.60569,-1.24448 -5.24239,-2.76552 -6.70443,-3.86758 -14.95984,-7.00396 -20.48537,-7.78276 -4.47161,-0.63025 -4.61214,-0.74576 -3,-2.46592 0.93025,-0.99259 8.89136,-5.41926 17.69136,-9.83704 43.60407,-21.89016 80.14837,-32.72524 127,-37.65443 16.31044,-1.716 55.07867,-1.97115 71.07632,-0.46779 15.63705,1.46947 40.88582,5.57897 55.42368,9.02078 24.24341,5.73957 66.55381,22.81171 91.5,36.92001 10.33721,5.84621 36.24205,23.66073 47.5,32.66533 35.10224,28.07631 65.9245,63.87881 88.32149,102.59241 l 2.7336,4.72507 -3.71919,1.55398 c -5.58961,2.33549 -6.76964,2.50229 -20.8359,2.94526 -7.15,0.22517 -16.15,0.86403 -20,1.41968 -3.85,0.55565 -11.23842,1.52081 -16.41872,2.14479 -13.55094,1.63226 -20.69328,5.65095 -24.36479,13.70905 -1.39032,3.05142 -4.29619,2.86458 -9.41487,-0.60536 C 869.5834,482.91907 855.43687,479 848.6097,479 c -5.70928,0 -22.37918,3.30271 -29.98525,5.94079 -9.15472,3.17523 -25.51185,11.61848 -32.11805,16.57876 -7.8462,5.89133 -9.09968,6.22002 -12.35025,3.23851 -7.02358,-6.44221 -16.71803,-9.77204 -28.36167,-9.7416 -7.78935,0.0204 -24.12917,2.97659 -32.79448,5.93323 -11.0144,3.75816 -30.15273,13.44417 -37.30296,18.87922 -3.74162,2.8441 -6.95534,5.17109 -7.14159,5.17109 -0.18625,0 -0.60219,-1.0125 -0.92432,-2.25 -0.76095,-2.9233 -6.28361,-8.72432 -10.65883,-11.19607 -2.29392,-1.29593 -5.28672,-1.93386 -8.95851,-1.90954 -6.29517,0.0417 -22.76787,1.81814 -25.01379,2.69754 -0.825,0.32303 -4.65,0.80432 -8.5,1.06953 -3.85,0.26521 -9.925,1.19402 -13.5,2.06403 -3.575,0.87001 -12.125,2.19337 -19,2.9408 -14.50434,1.57688 -30.70906,6.47147 -43.5,13.13907 -9.67971,5.04579 -12.5,6.02957 -12.5,4.36029 z"
           id="path150" />
        <path
           style="fill:#9c6b3e"
           d="m 420.99023,743.85388 c -0.005,-1.29463 -1.21349,-4.82888 -2.68471,-7.85388 -4.2006,-8.63691 -4.18704,-8.66683 5.2296,-11.53908 4.76945,-1.45477 12.09935,-4.83314 17.33692,-7.99064 4.99069,-3.00865 9.92544,-5.47028 10.96611,-5.47028 1.04067,0 2.96532,0.8328 4.27699,1.85067 1.31167,1.01787 3.05986,2.076 3.88486,2.35141 0.99951,0.33366 -0.13865,1.46789 -3.4111,3.39933 -11.62762,6.86276 -20.0647,13.0023 -27.56786,20.06074 -6.9644,6.55161 -8.02233,7.23553 -8.03081,5.19173 z"
           id="path149" />
        <path
           style="fill:#9c6c3e;fill-opacity:1"
           d="m 335,762.39569 c -1.375,-0.75141 -5.425,-1.4177 -9,-1.48063 -9.6923,-0.17062 -11.37736,-0.86932 -12.04808,-4.99564 -1.49433,-9.19333 -7.08968,-15.97217 -16.79667,-20.34941 -5.21223,-2.35039 -6.00257,-4.84728 -9.66671,-30.53955 -0.82121,-5.75824 -1.69114,-11.15824 -1.93317,-12 -0.24203,-0.84175 -0.96522,-10.87233 -1.60709,-22.29018 l -1.16704,-20.75972 8.47933,-14.24028 c 4.66364,-7.83215 9.54757,-16.13054 10.85318,-18.44085 C 305.11639,611.9862 307.3482,611 316.36958,611 c 12.89626,0 38.76467,-3.00149 48.63042,-5.64254 11.2552,-3.01301 23.23178,-7.13675 31.40611,-10.81367 4.66137,-2.09675 6.07915,-2.38131 6.72717,-1.35022 1.14028,1.81435 0.23363,4.21857 -4.64088,12.30643 -2.32037,3.85 -7.14265,12.625 -10.71618,19.5 -3.57352,6.875 -7.94357,14.93913 -9.71123,17.92029 -6.28931,10.60698 -10.92142,20.80499 -14.10617,31.05601 -2.89746,9.32629 -3.1702,11.2379 -2.65168,18.58536 0.8163,11.56712 4.68501,19.50642 13.10915,26.9024 3.46803,3.04477 6.93061,5.57365 7.69461,5.61975 -18.56491,6.86127 -21.36876,2.37601 -33.14922,21.91619 -3.70249,6.325 -7.79603,12.68393 -9.09674,14.13095 -2.16795,2.41179 -2.57318,2.51714 -4.86494,1.26474 z"
           id="path148" />
        <path
           style="fill:#9c6c3e;fill-opacity:1"
           d="m 623.5,1020.97 c -21.54351,-1.9227 -54.24917,-7.8048 -75.4338,-13.5669 -18.17749,-4.9441 -53.56026,-19.96971 -74.75449,-31.74513 -16.24056,-9.02319 -28.73802,-17.14369 -41.70451,-27.09844 -4.34104,-3.33274 -9.74104,-7.45841 -12,-9.16814 C 395.17364,920.89836 362.95088,881.13807 359.63036,877 c -1.98602,-2.475 -3.61532,-5.03235 -3.62065,-5.68299 -0.005,-0.65065 2.91046,-4.14661 6.47956,-7.76881 10.04883,-10.19833 13.19846,-17.76597 11.25348,-27.03876 l -1.10105,-5.24927 5.85414,-10.38009 c 3.21978,-5.70904 6.2254,-10.53008 6.67915,-10.71341 0.45376,-0.18334 0.82501,-0.72249 0.82501,-1.19813 0,-0.73666 5.15613,-9.75166 16.42557,-28.71854 2.32084,-3.90607 5.98188,-5.93087 5.4243,-3 -0.52431,2.75597 1.43609,13.26604 2.92457,15.67917 0.87216,1.41396 2.89933,3.98829 4.50481,5.72074 3.50198,3.77892 3.29793,4.89302 -2.71976,14.85009 -15.26346,25.25546 -17.98975,31.14515 -17.11548,36.97523 0.81265,5.41913 4.55031,11.13777 9.98346,15.27477 3.99037,3.03841 4.78272,3.24869 12.17039,3.22989 7.491,-0.0191 11.14134,-0.42871 26.40214,-2.96293 11.62378,-1.93026 13.76501,-4.28126 30.5,-33.48828 3.3,-5.75938 6.45,-10.33482 7,-10.16764 0.55,0.16718 1.32843,2.91126 1.72984,6.09797 0.93597,7.43041 6.18093,18.81646 10.35667,22.4828 5.52396,4.85011 13.12786,7.06114 24.201,7.0371 9.87077,-0.0214 10.01586,-0.0561 27.35972,-6.53567 2.63158,-0.98314 4.57903,-1.09534 6.99339,-0.40291 6.11443,1.7536 16.3056,1.11281 41.35938,-2.60053 5.5,-0.81518 11.4151,-1.47262 13.14466,-1.46097 6.12948,0.0413 15.63328,-3.71798 20.10736,-7.95352 4.33197,-4.10099 5.82051,-4.8041 6.41465,-3.02994 0.7922,2.3656 11.36991,5.27532 19.33333,5.31821 15.48603,0.0834 24.8627,-4.36364 37.56017,-17.81358 8.60043,-9.1101 10.52906,-14.16972 9.35542,-24.5433 -0.7213,-6.37542 -0.55071,-6.85218 6.60388,-18.4567 7.08527,-11.4921 8.9934,-17.23661 9.22836,-27.78238 0.24589,-11.03674 -1.68047,-15.98054 -9.07692,-23.29491 -8.64287,-8.54695 -18.34879,-11.5752 -30.424,-9.4923 -3.9858,0.68752 -8.20421,1.62464 -9.37424,2.08249 -1.29511,0.50678 -2.54368,0.41609 -3.1916,-0.23183 -0.75235,-0.75235 -2.76657,-0.73192 -6.87267,0.0697 -3.19462,0.62368 -9.4084,1.40003 -13.8084,1.72523 -8.07771,0.59701 -17.00477,2.48785 -20.20735,4.2801 -1.1481,0.64251 -2.40787,0.61742 -3.69918,-0.0737 -1.36781,-0.73203 -4.39041,-0.72473 -10.02582,0.0242 -4.43721,0.58972 -15.49265,2.03626 -24.56765,3.21455 -9.075,1.17829 -17.737,2.38669 -19.24889,2.68535 -2.44748,0.48347 -2.9199,0.11814 -4.30847,-3.33177 -4.22353,-10.49336 -8.31603,-15.78435 -17.49989,-22.62478 -1.29224,-0.9625 -1.92051,-1.78225 -1.39614,-1.82166 0.52436,-0.0394 7.25339,-0.0162 14.95339,0.0515 12.50945,0.11006 14.82912,-0.14871 21.78749,-2.43049 9.33972,-3.06267 15.74249,-6.22344 24.77912,-12.2324 l 6.75291,-4.49038 4.84024,2.18359 c 10.83392,4.88755 16.70178,6.40922 24.34756,6.31388 10.23252,-0.1276 26.58671,-3.52926 40.72827,-8.47145 13.91093,-4.86158 16.82637,-6.26958 28.97852,-13.99498 5.06777,-3.22169 9.61052,-5.85762 10.09502,-5.85762 0.48449,0 1.70829,0.91426 2.71955,2.0317 2.69602,2.97906 11.17949,7.54908 17.40282,9.37484 13.77881,4.04234 38.41749,-0.35992 60.10483,-10.7391 l 4.78667,-2.29082 5.3385,2.76451 c 13.96391,5.22822 46.81575,-0.65885 61.3385,-4.20347 5.47656,-1.56411 11.02025,-7.83256 16.45499,-18.60622 2.45024,-4.85729 6.09066,-11.75644 8.08981,-15.33144 1.99916,-3.575 5.66285,-10.325 8.14155,-15 5.82993,-10.99567 20.66803,-38.12048 26.8045,-49 2.63689,-4.675 6.43869,-11.793 8.44844,-15.81777 2.00976,-4.02477 3.98043,-7.17477 4.37927,-7 10.3126,4.51896 10.5982,5.09152 6.53497,13.10101 -6.86909,13.54045 -13.35298,36.39706 -13.35336,47.07242 -5.9e-4,16.86652 10.60595,33.90124 25.70931,41.29063 5.1387,2.51413 6.96173,2.82963 18.24975,3.1583 10.33991,0.30107 14.20799,-0.0244 22.04077,-1.85471 15.8418,-3.70176 14.7109,-3.77887 15.1699,1.03426 0.604,6.33396 -0.8739,33.6829 -2.6611,49.24229 -3.2205,28.03877 -15.77101,75.4607 -25.51737,96.41722 -1.7538,3.77099 -4.03029,8.97488 -5.05886,11.56419 -7.35877,18.52472 -25.87296,49.50065 -43.82829,73.32873 -20.40303,27.07638 -51.01519,56.9381 -76.48723,74.61219 -12.33271,8.55721 -27.26394,18.39057 -30.14261,19.85124 -1.62591,0.825 -7.4603,3.99185 -12.96532,7.03745 -19.20193,10.62328 -56.05254,25.44861 -73.39249,29.52651 -42.51278,9.9979 -58.99842,12.3441 -90.61663,12.8966 -12.65,0.221 -27.5,2e-4 -33,-0.4906 z"
           id="path3" />
      </g>
      <g
         id="g117"
         inkscape:label="Fondo Blanco">
        <path
           style="fill:#fafaf9"
           d="m 630.5,1164.8751 c -4.95,-0.4567 -15.75,-1.2921 -24,-1.8566 -33.27341,-2.2764 -47.42262,-4.6042 -83,-13.6547 -7.7,-1.9588 -15.35,-3.8957 -17,-4.3041 -1.65,-0.4085 -4.575,-1.2393 -6.5,-1.8463 -1.925,-0.6071 -6.2,-1.8626 -9.5,-2.79 -5.42118,-1.5237 -19.27285,-6.5915 -27,-9.8784 -1.65,-0.7018 -7.5,-3.0241 -13,-5.1605 -11.13109,-4.3239 -42.716,-19.5876 -52,-25.1296 -25.15569,-15.0165 -43.65444,-26.9415 -55,-35.4551 C 301.16845,1033.0345 267.60877,999.61443 236.75613,958.5 225.83423,943.94539 225.38123,943.48994 221.5,943.16109 c -2.2,-0.1864 -6.475,0.21502 -9.5,0.89204 -7.81326,1.74868 -35.41294,1.45954 -46.40801,-0.48617 C 135.14286,938.17861 113.6892,925.18064 103.58625,906 c -7.167064,-13.6068 -8.087567,-17.71104 -8.074108,-36 0.01115,-15.15348 0.241775,-17.27527 2.826011,-26 1.547627,-5.225 5.029667,-14.78381 7.737857,-21.2418 C 108.7842,816.30021 111,810.85629 111,810.6606 c 0,-0.19568 -5.17622,-0.65143 -11.502709,-1.01276 C 88.019393,808.99229 85.595911,808.58819 70.5,804.8127 53.337393,800.52032 39.363322,792.58991 27.226606,780.25466 18.659369,771.54727 14.407107,765.28175 10.652342,755.83322 4.3669417,740.01657 4.8350653,716.29733 11.833656,695.97752 16.429373,682.63425 26.55761,666.60347 36.842045,656.39472 40.77892,652.48682 44,648.72666 44,648.03881 c 0,-0.68786 -2.873657,-6.04048 -6.385904,-11.89473 -7.531854,-12.55416 -10.724444,-20.97249 -13.782714,-36.34271 -4.1144,-20.6781 -2.189842,-44.19239 5.683441,-69.44042 3.949072,-12.66388 14.322009,-33.88417 22.768731,-46.57881 C 55.4276,479.05694 58,474.35009 58,473.3225 58,472.2949 56.880125,467.03946 55.511388,461.64374 50.733464,442.8086 51.116771,419.00777 56.496093,400.5 c 9.959176,-34.26494 32.67206,-60.23795 70.647197,-80.78766 3.49619,-1.89191 8.98842,-4.8602 12.20494,-6.5962 7.50741,-4.05183 20.5244,-9.55312 38.15177,-16.12382 21.76909,-8.11456 29.04653,-10.2061 47,-13.50778 4.95,-0.91032 11.025,-2.04996 13.5,-2.53254 2.475,-0.48257 10.575,-1.58168 18,-2.44245 24.95093,-2.89255 36.4807,-4.68284 39.61703,-6.15156 1.71437,-0.80282 5.98937,-4.14937 9.5,-7.43677 9.79997,-9.17682 30.59246,-25.88939 44.88297,-36.07598 28.57663,-20.37007 64.63066,-40.81516 94,-53.30441 3.575,-1.52026 7.4,-3.16611 8.5,-3.65746 2.066,-0.92283 20.58528,-7.7653 35.5,-13.11647 19.59817,-7.03152 64.12127,-17.37728 91,-21.14552 29.98153,-4.20324 41.51169,-4.84219 77.5,-4.29474 44.88576,0.68279 54.60082,1.74118 98,10.67641 26.72332,5.50192 39.28113,8.86179 58.5,15.65178 28.61392,10.10925 46.27405,17.51058 68.94086,28.89298 17.83103,8.95405 44.69855,24.74778 58.19576,34.20963 12.25861,8.59356 19.10351,13.52736 21.36338,15.39872 1.1,0.9109 5.375,4.34714 9.5,7.63611 4.125,3.28896 10.425,8.33981 14,11.22409 10.47614,8.45208 47.7866,46.39837 59.0911,60.09805 22.398,27.14375 40.0782,52.23171 52.9544,75.1415 l 4.3592,7.75592 7.4818,-0.5379 c 4.115,-0.29584 9.3115,-0.93727 11.5477,-1.4254 2.2362,-0.48813 6.7658,-1.40308 10.0658,-2.03323 3.3,-0.63014 12.3,-3.09755 20,-5.48313 24.5078,-7.59292 24.187,-7.53217 39.7736,-7.53217 16.0755,0 22.3471,1.36982 32.6962,7.14127 16.9356,9.44458 25.7903,21.07964 29.514,38.78168 2.9446,13.99807 1.4849,30.4746 -4.525,51.07705 -1.9327,6.62554 -2.2764,10.99784 -2.948,37.5 -0.94,37.09566 -2.7203,46.70795 -12.7441,68.80854 -12.2701,27.05349 -29.8091,48.12055 -54.7667,65.78356 l -12,8.49264 -0.6615,13.37562 c -1.5002,30.33544 -5.4676,58.10123 -13.3657,93.53964 -6.3831,28.64103 -18.6407,65.58277 -29.5309,89 -1.7904,3.85 -5.558,11.95 -8.3724,18 -22.4532,48.26629 -61.3478,102.59378 -102.1629,142.6997 -6.5486,6.4348 -13.6981,13.1848 -15.8877,15 -2.18961,1.8152 -6.01461,5.1303 -8.5,7.3669 -23.60477,21.2423 -63.69207,48.8219 -94.0189,64.6839 -6.325,3.3082 -13.3,7.0263 -15.5,8.2624 -5.60446,3.1491 -25.10921,11.5529 -44,18.9578 -17.50108,6.8603 -22.24458,8.4937 -33.5,11.5355 -36.1534,9.7707 -34.55058,9.3717 -51.5,12.8183 -17.84329,3.6284 -40.68816,6.5334 -60.5,7.6934 -5.225,0.3059 -14,0.9735 -19.5,1.4835 -11.69514,1.0844 -25.36908,1.039 -38,-0.1263 z m 45.60758,-76.3672 c 39.86489,-2.8079 57.1191,-5.9123 97.78592,-17.5935 28.05203,-8.0577 51.74322,-17.9266 82.6065,-34.4109 10.76519,-5.7498 31.53487,-18.5424 36.69136,-22.5993 2.03025,-1.5973 3.96135,-2.9042 4.29133,-2.9042 0.5714,0 25.47191,-18.70664 26.51731,-19.92126 0.275,-0.31952 3.87119,-3.50545 7.99153,-7.07984 13.36516,-11.59427 15.30217,-13.37793 23.89026,-21.9989 26.05775,-26.15752 53.04911,-61.96824 71.60361,-95 5.1438,-9.15713 18.5866,-36.90354 23.2996,-48.09092 9.4239,-22.36975 20.7103,-60.08133 24.8133,-82.90908 5.2699,-29.32016 9.0507,-78.38297 7.4363,-96.5 l -0.5346,-6 -10.6044,-0.28235 -10.6044,-0.28236 -0.5617,26.78236 c -0.6301,30.04422 -3.2293,52.74354 -9.4217,82.28235 -4.0813,19.46898 -16.9246,58.53802 -24.8193,75.5 -10.4257,22.40009 -14.2638,29.9993 -21.1362,41.84841 -8.9522,15.43493 -25.58056,40.35506 -32.14924,48.18048 -0.93668,1.11589 -3.47799,4.26589 -5.64736,7 -6.53247,8.23307 -22.43012,25.32149 -33.0557,35.53166 -16.58795,15.93944 -18.7588,17.90613 -25,22.64878 -3.3,2.50765 -6.7152,5.35948 -7.58934,6.33739 -2.21014,2.47253 -28.02934,20.72838 -37.00649,26.16598 -12.00181,7.2697 -32.31004,18.6111 -35.47377,19.8109 -1.61172,0.6112 -9.0054,3.8271 -16.4304,7.1465 -7.425,3.3194 -14.85,6.6247 -16.5,7.3452 -4.59607,2.0068 -23.136,8.0781 -31.51441,10.3202 -4.11707,1.1017 -11.53559,3.1128 -16.48559,4.4693 -45.44008,12.4516 -100.58431,15.3194 -156,8.1129 -31.29711,-4.07 -74.51562,-16.0915 -99.46422,-27.6665 -4.69468,-2.1781 -12.00566,-5.439 -16.24662,-7.2465 -21.96624,-9.3621 -55.96558,-30.57713 -82.28916,-51.34723 -15.94629,-12.5821 -50.56665,-47.56431 -63.74901,-64.41531 -11.44952,-14.6359 -23.44955,-31.82546 -24.93818,-35.72291 -0.89881,-2.35322 -1.04865,-2.40158 -2.27372,-0.73375 -0.72132,0.98203 -2.21171,1.95887 -3.31198,2.17076 -1.10026,0.21189 -2.83897,0.84413 -3.8638,1.40498 -1.02482,0.56084 -4.04485,1.79945 -6.71117,2.75247 -2.66632,0.95301 -5.04972,2.25879 -5.29644,2.90173 -0.58321,1.51982 4.58106,9.54674 18.90731,29.38799 19.51394,27.02598 52.62283,61.30839 78.82229,81.61612 4.62809,3.58731 9.9897,7.78565 11.9147,9.32975 9.39899,7.5388 35.49417,24.0747 51.5,32.6343 4.95,2.6471 10.90434,5.8577 13.23187,7.1347 7.04531,3.8654 40.57918,18.0821 50.48301,21.4023 5.10681,1.712 16.25667,4.9236 24.77746,7.1368 8.52078,2.2133 15.79828,4.2132 16.17221,4.4443 1.27725,0.7894 24.31498,5.2598 35.83545,6.9538 11.54608,1.6977 45.89567,4.6905 60.10758,5.237 4.18418,0.1609 17.68418,-0.4172 30,-1.2846 z m 5.51313,-66.9988 c 8.18361,-0.8199 17.35429,-1.9374 20.37929,-2.4832 28.36062,-5.117 34.4625,-6.417 47.5,-10.1205 22.54306,-6.4035 47.67546,-16.30868 67,-26.40601 7.15,-3.73597 13.675,-7.32724 14.5,-7.9806 0.825,-0.65335 3.42024,-2.15918 5.76719,-3.34627 4.7099,-2.38226 31.92379,-20.88123 36.84007,-25.04247 1.70899,-1.44653 4.18399,-3.4789 5.5,-4.51638 1.31601,-1.03748 5.09247,-4.18748 8.39215,-7 3.29967,-2.81252 7.34514,-6.23867 8.98993,-7.61367 7.17944,-6.00184 19.23133,-18.12088 25.35868,-25.5 3.6536,-4.4 7.70643,-9.125 9.0063,-10.5 2.81717,-2.98 16.97608,-21.84435 23.2675,-31 17.00012,-24.73959 34.0782,-59.30446 44.71495,-90.5 3.01433,-8.8404 9.83993,-35.22231 12.67753,-49 3.32,-16.12037 7.4857,-55.27962 7.4857,-70.36915 0,-9.13386 -0.689,-9.50998 -12,-6.55077 -8.54829,2.23641 -11.10288,2.45572 -25.5,2.18914 -15.08585,-0.27934 -16.28567,-0.44753 -21,-2.94389 -7.30668,-3.86907 -12.95996,-9.13798 -16.56476,-15.43852 -3.66184,-6.40023 -6.89323,-17.82407 -6.9181,-24.45736 -0.0378,-10.06967 6.34685,-32.16707 13.80593,-47.78288 1.66913,-3.49438 2.80667,-6.86938 2.52787,-7.5 -0.47475,-1.07383 -11.41504,-6.99765 -11.84665,-6.41458 -0.10911,0.14741 -2.78644,5.44301 -5.94962,11.76801 -3.16317,6.325 -6.09398,11.95 -6.51291,12.5 -0.41893,0.55 -2.67893,4.6 -5.02223,9 -2.3433,4.4 -7.96462,14.75 -12.49184,23 -17.6336,32.13394 -21.50941,39.31053 -25.92303,48 -6.94578,13.67473 -11.46538,17.62014 -21.60466,18.85989 -2.475,0.30262 -10.575,1.27034 -18,2.15047 -7.425,0.88014 -15.41896,2.02537 -17.76435,2.54495 -7.94799,1.76074 -13.07369,1.18414 -18.84943,-2.12041 -5.07737,-2.90497 -5.50165,-2.98497 -8.12173,-1.53131 -16.59361,9.20643 -45.25099,15.44518 -58.43665,12.72172 -6.9606,-1.43769 -15.90002,-5.63227 -20.81214,-9.76555 l -3.28233,-2.7619 -3.61669,2.05909 c -1.98917,1.13251 -7.66668,4.53727 -12.61668,7.56615 -17.31688,10.5961 -39.36134,17.31279 -60.5,18.43365 -11.0636,0.58664 -11.79572,0.41978 -29.67543,-6.76323 -2.98761,-1.20024 -3.51768,-1.04846 -8.96163,2.56611 C 585.16047,701.5454 575.35796,705 559.26681,705 c -9.11251,0 -12.92096,0.2825 -17.10738,-0.59198 0,0 -5.48521,1.02733 0.40688,4.43371 4.74874,2.74537 10.32415,7.46665 16.03382,19.98464 2.47966,5.43644 2.40911,5.6712 6.10732,5.57585 2.0859,-0.0538 10.09255,-1.03003 17.79255,-2.16943 24.18288,-3.57846 33.30656,-4.37054 35.38576,-3.07206 1.44773,0.90412 2.71179,0.81734 5.73932,-0.39404 3.93183,-1.57321 10.95128,-2.76563 28.62093,-4.86195 7.69459,-0.91288 10.06258,-0.89352 11.25,0.0919 1.1476,0.95242 1.8358,0.97282 2.90427,0.0861 0.77015,-0.63917 5.1271,-1.75515 9.6821,-2.47996 7.0293,-1.11852 9.12391,-1.10094 13.84973,0.11623 10.24647,2.63906 17.51984,8.36606 22.149,17.43997 1.80546,3.53898 2.04701,5.50645 1.75614,14.304 -0.32107,9.71123 -0.5454,10.62037 -4.67603,18.95022 -2.38633,4.81229 -5.71314,10.78603 -7.39291,13.27497 -2.87103,4.25406 -3.06586,5.14586 -3.2499,14.87561 -0.22984,12.15174 -1.24792,14.23468 -12.41631,25.40306 -7.89728,7.89729 -14.31768,11.24179 -26.18363,13.63951 -7.86053,1.58836 -8.99475,1.60359 -13.5,0.18126 -2.70516,-0.85404 -6.07299,-1.81838 -7.48406,-2.14298 -1.41108,-0.3246 -3.61586,-1.50108 -4.89953,-2.6144 l -2.33393,-2.02421 -4.74712,4.44038 c -7.51378,7.02826 -7.05332,6.90745 -44.95383,11.79435 -4.675,0.6028 -15.25,1.16552 -23.5,1.25049 -14.29298,0.14722 -15.42354,0.30994 -23.98573,3.45222 -8.4834,3.11336 -9.54555,3.27072 -19,2.81481 -10.21699,-0.49268 -13.09438,-1.31349 -19.84024,-5.65965 -6.30473,-4.06195 -12.08147,-18.21569 -11.54672,-28.29091 0.15103,-2.84557 -0.15333,-5.30253 -0.67636,-5.45991 -0.79312,-0.23865 -7.08282,9.35066 -13.45618,20.51536 -11.44215,20.0441 -16.2356,25.62457 -22.90749,26.66858 -1.97301,0.30873 -7.08392,1.21539 -11.35759,2.01479 C 431.45602,867.34595 423.69203,868 418.47638,868 h -9.48301 l -4.85746,-4.75 c -5.67901,-5.55338 -8.70157,-12.42125 -7.73474,-17.57489 0.35197,-1.87614 4.50881,-10.10805 9.23744,-18.29314 4.72862,-8.18508 9.87889,-17.17343 11.44505,-19.9741 l 2.84755,-5.09214 -3.61156,-3.90786 c -5.69296,-6.16005 -7.54223,-11.30303 -7.18054,-19.96971 0.19901,-4.76874 -0.11408,-7.81313 -0.88256,-8.58161 -0.92131,-0.92131 -1.35655,-0.75688 -1.92219,0.72623 -0.40216,1.05447 -2.38158,4.61722 -4.39871,7.91722 -2.01713,3.3 -6.27715,10.5 -9.46673,16 -3.18957,5.5 -9.17873,15.625 -13.30925,22.5 -7.81791,13.01245 -7.93555,13.42734 -6.60102,23.27928 0.87338,6.44755 -2.71354,13.72732 -11.19239,22.71535 -3.50144,3.71171 -6.36626,7.41383 -6.36626,8.22693 0,1.31879 5.30294,9.50749 6.98004,10.77844 0.36288,0.275 2.5303,3.05404 4.81648,6.17564 6.17017,8.42487 41.03783,43.03477 53.95667,53.55778 20.14655,16.41035 46.14865,32.83519 73.24681,46.2681 8.32941,4.129 37.72011,15.60898 48.33788,18.88068 16.92392,5.2149 51.82811,11.906 73.66212,14.1209 6.325,0.6417 12.4,1.2922 13.5,1.4456 6.57644,0.9172 39.51556,0.3234 52.12071,-0.9396 z M 182.02617,877.6347 c 7.79779,-1.63151 13.50383,-4.40493 21.15675,-10.28323 l 5.68292,-4.36513 0.31708,2.75683 c 0.78904,6.86026 16.29029,8.34316 27.03571,2.58632 2.90475,-1.55622 5.43137,-3.16699 5.6147,-3.57949 0.18334,-0.4125 0.83415,-0.75 1.44625,-0.75 0.61211,0 2.78054,-1.15566 4.81875,-2.56814 l 3.70583,-2.56814 4.67451,3.56814 c 4.20299,3.20821 5.29725,3.56641 10.84793,3.551 12.51085,-0.0347 32.40478,-7.59309 41.8362,-15.89496 2.55425,-2.24834 4.91255,-4.0879 5.24065,-4.0879 0.3281,0 0.61152,1.6875 0.62982,3.75 0.0354,3.99436 2.06396,7.1613 5.9031,9.21594 3.08686,1.65204 13.14036,0.54573 18.1182,-1.99378 C 342.56595,855.18079 354,843.59591 354,841.82959 c 0,-0.69392 -5.70634,-1.34964 -8.25,-0.94801 -1.46297,0.23099 -0.70142,-2.01944 3.26686,-9.65378 4.26996,-8.21473 5.44074,-10.24882 16.60877,-28.85582 9.90008,-16.49447 29.87586,-50.41698 31.24296,-53.05624 0.62227,-1.20134 1.13141,-3.16199 1.13141,-4.35699 0,-1.70518 -0.37658,-2.00181 -1.75,-1.37845 -0.9625,0.43685 -3.325,0.82824 -5.25,0.86976 -1.925,0.0415 -4.48292,0.63225 -5.68426,1.31272 C 384.1144,746.44325 381.309,747 379.08152,747 c -6.87763,0 -5.78366,-1.56638 -41.90418,60 -4.67887,7.975 -9.63943,16.2169 -11.02347,18.31534 -4.89276,7.41827 -18.50083,18.30736 -29.47166,23.58303 -5.92324,2.84838 -14.00709,3.63389 -16.07862,1.56236 -1.86646,-1.86646 -2.07868,-6.79944 -0.48873,-11.36037 1.17783,-3.37873 2.45311,-4.11971 16.38514,-9.52034 9.91081,-3.84185 18.95761,-9.42265 26.52871,-16.36507 C 331.30702,805.62404 335,798.71151 335,790.80708 c 0,-8.70656 -1.67454,-9.56146 -17.5,-8.93424 -16.81561,0.66647 -36.44888,15.27708 -52.31128,38.92883 -4.91954,7.33532 -10.36352,18.51151 -12.04802,24.7339 -1.7014,6.28482 -4.41609,8.59084 -9.71168,8.24967 -3.98996,-0.25706 -4.42749,-0.53431 -4.42822,-2.80603 -4.5e-4,-1.40787 4.34234,-9.79631 9.8365,-19 12.99356,-21.76652 29.82556,-50.35639 32.95719,-55.97921 1.37845,-2.475 3.33861,-5.57319 4.35589,-6.88486 1.01729,-1.31167 1.84962,-2.81569 1.84962,-3.34227 0,-0.52658 0.9,-2.10158 2,-3.5 1.1,-1.39842 2,-3.43436 2,-4.52431 0,-1.64506 -0.46717,-1.8767 -2.75,-1.36357 -1.5125,0.33998 -5,1.03039 -7.75,1.53425 -2.75,0.50386 -6.27526,1.40637 -7.83392,2.00559 -1.55865,0.59921 -3.20839,0.85804 -3.66608,0.57517 -0.45769,-0.28287 -1.96431,-0.0839 -3.34805,0.44223 -1.74938,0.66511 -4.60582,4.55177 -9.37566,12.75715 -3.77287,6.49034 -7.42377,12.92562 -8.1131,14.30062 -0.68933,1.375 -2.06279,3.56593 -3.05213,4.86874 -1.51343,1.99296 -2.13043,2.19126 -3.88919,1.25 -5.90511,-3.16032 -21.65443,0.62122 -34.58388,8.30387 -13.68334,8.1306 -27.80659,24.83475 -37.63214,44.50908 -10.5424,21.10969 -9.24578,29.41142 4.99452,31.97812 0.27521,0.0496 3.43682,-0.52419 7.0258,-1.27511 z M 193.25,861.35851 c -0.73381,-0.3083 -1.25,-2.36112 -1.25,-4.97105 0,-8.51206 14.80978,-33.53612 26.25878,-44.36941 6.82616,-6.45906 15.09426,-9.94282 18.20286,-7.66976 1.66051,1.2142 1.31359,2.13689 -4.97374,13.22847 -3.71732,6.55778 -8.04782,13.80432 -9.62333,16.10342 -1.57551,2.29909 -2.86457,4.42063 -2.86457,4.71453 0,0.29389 -2.03695,3.88949 -4.52656,7.99021 -3.37414,5.55767 -5.87533,8.35113 -9.82435,10.97234 -5.43463,3.6073 -9.19506,4.92727 -11.39909,4.00125 z m 98.23853,-38.33995 C 291.83476,822.45835 291.62992,822 291.03334,822 c -1.54568,0 0.90632,-4.35422 6.47599,-11.5 9.01499,-11.56604 17.69546,-18.5 23.15976,-18.5 3.16397,0 3.33001,0.16737 2.72819,2.75 -2.09201,8.97761 -14.39153,21.26178 -26.76914,26.73575 -3.17302,1.40326 -5.48584,2.09302 -5.13961,1.53281 z m 139.19828,24.04477 c 12.72676,-0.79831 12.46691,-0.60637 20.23148,-14.94433 0.78006,-1.44045 4.71756,-7.94043 8.75,-14.44441 C 463.70073,811.17062 467,805.51156 467,805.0989 c 0,-2.14882 5.38767,-5.1974 12.5,-7.07306 9.6319,-2.54012 20.10907,-7.34252 29.24511,-13.40504 11.56965,-7.67741 23.62336,-20.44842 28.24932,-29.9304 2.55733,-5.24186 3.00557,-7.32389 3.00557,-13.96069 0,-11.71949 -3.7401,-15.95983 -16.16518,-18.32732 -5.85183,-1.11502 -8.62664,-1.10689 -17.1578,0.0503 -11.38338,1.54406 -13.57405,2.17312 -25.67702,7.37319 -27.66741,11.88737 -47.09315,27.92461 -52.44712,43.29859 -2.05503,5.90104 -1.94134,7.83313 0.62143,10.56108 1.81168,1.92844 3.19117,2.31445 8.2712,2.31445 h 6.09689 l 1.1768,-6.19232 c 3.03324,-15.96087 16.49066,-31.66403 34.2808,-40.00151 11.67084,-5.46962 13.39788,-6.08934 21.89386,-7.85621 6.24456,-1.29865 9.1892,-1.48862 11.5,-0.74193 12.82776,4.14507 9.36591,20.73997 -8.33366,39.9486 -8.084,8.77325 -23.76925,19.93217 -25.06657,17.83307 -0.97,-1.5695 0.0468,-4.5274 3.33516,-9.70219 C 490.46191,766.48875 505,741.08784 505,739.67644 c 0,-2.15486 -1.71658,-2.09781 -11.5,0.38219 -4.4,1.11536 -9.43856,1.9093 -11.1968,1.76431 -3.57992,-0.29522 -1.15821,-3.8863 -28.77999,42.67706 -6.52529,11 -16.67729,28.1 -22.56001,38 -14.8013,24.90907 -16.08082,27.62858 -12.2132,25.95815 0.9625,-0.41571 6.33407,-1.04337 11.93681,-1.39482 z M 529.62788,835.3882 C 534.41353,833.39614 547,825.04874 547,823.86694 547,823.39012 547.45,823 548,823 c 0.55,0 1,0.6521 1,1.44911 0,0.79701 1.65247,2.70951 3.67216,4.25 3.10615,2.36917 4.62417,2.80089 9.84861,2.80089 6.28462,0 7.63496,-0.42671 17.65846,-5.58012 6.53781,-3.3613 6.9647,-3.45854 6.17751,-1.40715 -1.16197,3.02805 1.24373,4.18944 6.86945,3.31634 2.9006,-0.45016 8.06407,-1.10569 11.47439,-1.45672 7.57689,-0.7799 7.76437,-0.96843 17.27659,-17.37235 3.98664,-6.875 8.04486,-13.85 9.01826,-15.5 0.97341,-1.65 5.45409,-9.3 9.95708,-17 9.6229,-16.45493 10.84578,-17.90253 16.85212,-19.9491 5.76528,-1.96443 7.82555,-1.95702 8.58838,0.0309 1.36761,3.56392 0.26063,6.55791 -7.00374,18.94281 -13.5789,23.1504 -16.49381,29.08153 -17.0667,34.72655 -0.44466,4.38148 -0.17283,5.70328 1.64495,7.99885 1.92314,2.42861 2.84956,2.75 7.92692,2.75 10.18983,0 16.45538,-3.30186 24.35556,-12.83502 1.5125,-1.82514 2.75,-3.70803 2.75,-4.18421 0,-0.47617 -1.76101,-1.00415 -3.91336,-1.17327 l -3.91337,-0.3075 1.24483,-3.60253 c 1.49064,-4.31392 7.99416,-15.87654 15.69123,-27.89747 6.98623,-10.91077 8.78991,-16.74525 6.92424,-22.39828 C 693.55967,744.13576 687.5193,739 683.74061,739 c -2.99635,0 -11.18876,2.54591 -19.07352,5.92736 -5.89495,2.52811 -5.46143,2.54126 -5.84754,-0.17736 -0.36552,-2.57371 -0.14499,-2.56413 -15.56955,-0.67651 -5.6375,0.68991 -10.25,1.64675 -10.25,2.12633 0,0.47957 -2.62217,5.0183 -5.82704,10.08607 -3.20488,5.06776 -6.12701,9.88911 -6.49364,10.71411 -0.36662,0.825 -1.11035,2.175 -1.65271,3 -0.54237,0.825 -5.95729,9.93603 -12.03317,20.24673 -10.50736,17.83091 -11.28837,18.86903 -15.987,21.25 C 588.28947,812.87353 584.70153,814 583.03324,814 580.3888,814 580,813.64649 580,811.24204 c 0,-3.18617 2.47582,-8.06744 12.54936,-24.74204 6.57547,-10.8843 13.63744,-22.92067 20.06073,-34.19136 2.66328,-4.67315 2.05161,-5.78387 -2.34176,-4.25234 -1.62877,0.5678 -7.40591,1.34991 -12.83807,1.73803 -8.77628,0.62705 -9.99738,0.94839 -10.96006,2.88422 -0.78198,1.57246 -1.48495,1.92448 -2.52679,1.26531 -2.99183,-1.89291 -12.37136,-0.96622 -21.70997,2.14494 -13.06769,4.35351 -24.65603,12.26906 -33.47771,22.86733 -2.08019,2.49913 -4.38708,5.21887 -5.12641,6.04387 -2.38327,2.65945 -13.11513,21.30088 -16.11957,28 -1.97045,4.3936 -3.04554,8.64305 -3.31756,13.11312 -0.35844,5.8905 -0.15178,6.84661 1.89126,8.75 1.97778,1.84258 3.49039,2.13688 10.98299,2.13688 5.72347,0 10.01095,-0.55014 12.56144,-1.6118 z m 4.02711,-15.21694 C 532.74474,819.16545 532,817.09512 532,815.57052 c 0,-3.25353 8.4623,-20.4159 14.31891,-29.04013 C 554.90009,773.89404 568.14549,763 574.92807,763 c 2.43785,0 3.07193,0.42639 3.07193,2.06574 0,2.64097 -0.0112,2.66196 -14.28354,26.74868 -12.16177,20.52483 -15.42415,24.50389 -23.4168,28.56105 -4.04194,2.05173 -4.61912,2.034 -6.64467,-0.20421 z M 340.20836,763.25 c 0.83508,-0.9625 4.55314,-6.925 8.26236,-13.25 7.40995,-12.63555 9.62778,-15.46104 13.86648,-17.66579 3.64118,-1.89394 16.33775,-5.28008 19.9128,-5.31067 3.92174,-0.0336 3.42486,-1.23774 -2,-4.84685 -6.39849,-4.25686 -7.2821,-5.05081 -10.68092,-9.59717 -8.48017,-11.3433 -9.69086,-22.98761 -4.14905,-39.90526 4.2422,-12.9503 7.48317,-19.31173 32.18967,-63.18254 7.29203,-12.9483 10.08908,-19.12628 9.1049,-20.11045 -0.28415,-0.28415 -5.76293,1.76753 -12.17506,4.5593 -23.2669,10.13012 -40.56519,13.81615 -69.34093,14.77557 -14.82606,0.49433 -17.64123,0.84419 -19.67677,2.44534 -1.30647,1.02767 -5.18178,6.69924 -8.61182,12.6035 -3.43003,5.90426 -8.18798,14.09912 -10.57322,18.21081 -4.95209,8.53642 -4.92077,8.23087 -3.3,32.19466 1.01547,15.01417 2.59403,27.8174 5.52718,44.82955 2.23305,12.95156 2.75126,14.30916 6.29823,16.5 10.6265,6.56363 12.56805,8.22789 14.92155,12.79052 1.35908,2.63478 2.69018,6.73468 2.95802,9.11089 l 0.48697,4.32037 9.79704,0.53984 c 5.38837,0.29692 10.62441,1.02084 11.63563,1.60871 2.60515,1.51449 3.8118,1.37955 5.54694,-0.62033 z m 87.05375,-21.43536 c 7.31943,-7.2578 19.59655,-16.55925 27.8493,-21.09931 3.21458,-1.76843 6.06209,-3.7691 6.32781,-4.44593 0.61266,-1.56055 -7.30409,-6.2694 -10.54043,-6.2694 -1.33402,0 -4.83738,1.62426 -7.78525,3.60947 -6.3336,4.2653 -14.14206,7.84231 -23.11354,10.58819 -3.575,1.09419 -6.88943,2.35927 -7.36541,2.8113 -0.47754,0.4535 0.26274,2.31641 1.65167,4.15645 3.25455,4.31157 5.71374,10.31852 5.71374,13.95671 0,1.58284 0.23045,2.87788 0.51211,2.87788 0.28166,0 3.31916,-2.78341 6.75,-6.18536 z M 115,742.55716 c 10.85479,-1.79796 16.89365,-3.16233 25,-5.64829 11.9123,-3.65313 29.42311,-10.16747 36,-13.39266 16.26147,-7.97433 47.06328,-32.80628 61.5,-49.58036 11.37177,-13.2129 14.70046,-17.28293 19.576,-23.93585 8.91833,-12.16948 16.25905,-23.65786 23.96135,-37.5 9.06424,-16.28974 10.26309,-17.98227 13.6867,-19.32278 3.29339,-1.28952 21.868,-3.17722 31.26321,-3.17722 26.15307,0 62.09625,-11.13266 82.60968,-25.58664 22.23094,-15.66416 36.79705,-41.3394 35.12474,-61.91336 -0.95897,-11.79801 -7.27922,-24.46278 -16.64123,-33.34637 -6.53716,-6.20309 -16.07929,-11.52714 -27.33045,-15.2491 -7.30849,-2.41769 -9.75,-3.65644 -9.75,-4.94685 0,-0.94682 2.05255,-3.91214 4.56122,-6.58959 9.84518,-10.50754 11.39626,-14.13723 7.16461,-16.76596 -1.39739,-0.86807 -2.67163,-0.5924 -6,1.29807 -8.90819,5.0597 -29.96292,15.16167 -35.95737,17.25218 -5.76763,2.01142 -8.98493,2.24522 -40.26846,2.9263 -60.31297,1.31308 -90.37677,5.91637 -134.12665,20.5371 -9.79315,3.27277 -14.49477,3.89861 -19.04054,2.53454 -3.09392,-0.92841 -9.68085,-9.62693 -13.80229,-18.22694 C 149.30747,445.19801 149,443.78261 149,435.67118 c 0,-7.79532 0.36548,-9.65103 2.97943,-15.12808 7.37284,-15.44841 32.69039,-32.63227 67.52057,-45.82847 19.90047,-7.53975 26.64459,-9.15995 72,-17.29726 23.21787,-4.16557 30.86934,-5.64982 31.4271,-6.09633 0.97043,-0.77686 -5.7205,-6.71349 -9.47859,-8.41003 -3.53615,-1.59634 -5.18975,-1.71102 -13,-0.90161 -4.92168,0.51006 -16.37351,1.64425 -25.44851,2.52042 -31.89487,3.07941 -65.03181,11.30281 -89.5,22.2107 -39.51474,17.61563 -55.70802,30.3866 -63.09379,49.75948 -2.67566,7.01828 -2.6727,26.61084 0.005,34.5 3.4702,10.22322 10.5736,22.62694 17.18048,30 2.12728,2.37397 2.7927,4.1152 2.52658,6.61138 -0.0652,0.61126 -3.38098,3.61544 -7.36848,6.67596 -16.97294,13.02719 -31.97136,33.25854 -38.707643,52.21266 -3.420208,9.62357 -7.039659,25.5796 -7.041062,31.0399 -7.12e-4,2.77195 0.687407,7.72195 1.529154,11 3.840982,14.95811 11.209271,24.02846 23.545801,28.98485 6.77234,2.72089 8.38941,2.96954 18.9146,2.90851 10.46427,-0.0607 12.30174,-0.36368 20.23935,-3.33742 11.49581,-4.30676 18.72303,-9.13717 27.40536,-18.31672 8.4814,-8.96711 14.24451,-18.34703 17.98935,-29.27912 2.36848,-6.91416 2.79777,-9.98006 3.16281,-22.5882 0.50099,-17.30369 -1.01949,-24.43988 -8.29306,-38.92242 C 191.0226,503.0672 189,498.64824 189,498.16946 c 0,-1.31954 9.13468,-6.72373 21.45469,-12.69286 9.94432,-4.81809 27.5757,-11.27175 41.04531,-15.02391 2.75,-0.76605 8.15,-2.30578 12,-3.4216 18.3491,-5.31804 33.97849,-8.15771 57.5,-10.44708 6.17917,-0.60142 10,0.0854 10,1.79751 0,0.63154 -8.38125,9.46655 -18.62499,19.63336 -25.62473,25.43229 -32.7159,33.86303 -48.35121,57.48512 -4.59431,6.94116 -7.23775,11.49796 -14.50275,25 -2.07155,3.85 -4.85198,8.90699 -6.17873,11.23775 -1.32675,2.33076 -7.50241,14.25576 -13.72369,26.5 -17.24341,33.93713 -21.19836,41.18527 -30.07932,55.12566 -14.07101,22.08718 -26.69364,38.40903 -40.75627,52.70041 -11.69506,11.88529 -14.29921,14.00796 -21.78304,17.75561 -4.675,2.34109 -10.25621,4.53446 -12.40269,4.87416 l -3.9027,0.61765 0.87863,-4.40562 c 0.48324,-2.42309 0.88946,-7.18919 0.90269,-10.59133 0.0215,-5.52274 -0.29746,-6.52334 -2.97593,-9.33605 -3.83236,-4.02443 -5.58278,-4.94164 -12.51849,-6.55963 -9.642128,-2.24936 -18.951061,1.43064 -25.569779,10.10823 -3.696485,4.84634 -5.316655,9.97405 -5.367838,16.98876 -0.05841,8.00552 2.220823,12.19386 8.54972,15.71104 4.261291,2.36814 6.023974,2.72742 13.406387,2.73254 4.675,0.003 12.325,-0.62766 17,-1.40202 z m 3.57611,-133.22024 c -4.59945,-2.49017 -6.18434,-4.46368 -7.96573,-9.91893 -1.52536,-4.67116 -1.53259,-5.64128 -0.0895,-12 3.37588,-14.87504 11.22631,-31.66062 20.684,-44.226 6.15016,-8.17103 19.0709,-21.07614 27.67267,-27.63919 l 6.37757,-4.86602 1.8809,2.40661 c 7.98671,10.21896 15.19141,24.1968 17.05744,33.09314 1.46513,6.98505 -0.23272,13.6418 -7.094,27.81347 -3.84331,7.93816 -5.99691,10.89743 -13.09948,18 -14.93182,14.93182 -35.42167,22.75217 -45.42389,17.33692 z m 178.81237,-27.76693 c -0.67323,-1.75442 0.96421,-5.32218 10.30954,-22.46298 C 311.71411,551.74086 315,545.48872 315,545.21335 c 0,-0.62275 8.79831,-15.34284 14.77136,-24.71335 24.21164,-37.98317 42.86558,-59.50969 51.55524,-59.49442 8.29172,0.0146 15.96379,4.72299 19.73231,12.1099 2.97979,5.84085 2.7188,20.24677 -0.5481,30.25464 -3.07669,9.42521 -10.79177,25.08506 -17.00472,34.51573 -5.03044,7.63571 -17.59956,20.00551 -26.50609,26.08574 -11.84833,8.08851 -28.78044,14.68578 -45,17.53337 -10.62981,1.86623 -13.91472,1.88085 -14.61152,0.065 z m 122.61539,122.33654 c 6.9268,-2.63198 9.00051,-3.80986 21.84211,-12.40653 5.75109,-3.85 11.24046,-7.46757 12.19862,-8.03904 0.95815,-0.57147 2.40512,-1.58931 3.21549,-2.26185 1.24727,-1.03514 1.55724,-0.5977 2.01971,2.85028 1.08592,8.09618 7.33357,13.2843 17.66617,14.67019 4.95894,0.66513 17.50976,-2.17767 25.73238,-5.82848 7.08457,-3.14551 21.71419,-12.89721 28.31344,-18.87295 l 4.4918,-4.06739 1.32194,3.96584 c 0.73049,2.19147 3.08438,5.55809 5.26109,7.52462 L 546.00576,685 H 557.767 c 9.27163,0 12.92248,-0.42378 17.24712,-2.00198 6.47405,-2.3626 18.98631,-9.83617 31.36301,-18.73313 4.88241,-3.50972 9.43093,-6.16879 10.10781,-5.90904 0.67687,0.25974 1.52766,1.95715 1.89064,3.77203 0.79867,3.99339 4.9188,8.52893 9.49654,10.45403 4.11004,1.72841 19.1189,1.89103 25.86353,0.28024 17.87648,-4.26939 33.51619,-10.15089 42.76166,-16.08105 9.25134,-5.93393 18.03322,-12.54244 23.42546,-17.62805 3.53252,-3.33164 6.79502,-5.82747 7.25,-5.54627 0.45498,0.28119 0.82891,2.8472 0.83097,5.70224 0.006,7.68867 3.86348,13.19209 12.48827,17.8147 2.37461,1.27271 5.31208,1.5828 13.03664,1.37621 9.42324,-0.25203 22.84034,-2.74884 24.92135,-4.63767 0.5225,-0.47424 1.68739,-0.86226 2.58865,-0.86226 5.07393,0 34.23296,-17.11599 45.39135,-26.64417 2.1615,-1.8457 4.47556,-3.35583 5.14237,-3.35583 0.6803,0 -0.96088,4.05949 -3.73961,9.25 C 822.65225,641.9269 820,647.63997 820,649.12212 c 0,1.14497 4.62096,1.11724 10.67371,-0.064 2.65446,-0.51806 10.90129,-1.70985 18.32629,-2.64843 7.425,-0.93857 14.05274,-2.13671 14.72832,-2.66253 0.67558,-0.52581 3.78161,-5.74652 6.9023,-11.60157 3.12069,-5.85505 8.02022,-14.69555 10.88785,-19.64555 2.86763,-4.95 7.38456,-13.275 10.03762,-18.5 2.65306,-5.225 5.79196,-11.075 6.97533,-13 1.18336,-1.925 5.20738,-9.35 8.94226,-16.5 3.73488,-7.15 7.55451,-14.125 8.48808,-15.5 0.93357,-1.375 4.08968,-7.20171 7.01357,-12.94825 2.92389,-5.74654 6.04358,-11.22905 6.93264,-12.18335 C 934.62119,518.80936 947.56403,512 952.46676,512 c 3.77022,0 3.91294,0.27119 3.55714,6.75928 -0.0983,1.7926 0.11686,4.6051 0.47814,6.25 0.64785,2.94964 0.74683,2.99072 7.20569,2.99072 5.49669,0 7.42251,-0.49987 11.98697,-3.11139 7.43954,-4.25648 15.48027,-12.77044 19.20383,-20.33406 4.13602,-8.40145 4.07354,-12.38145 -0.26661,-16.98335 -2.97555,-3.155 -3.94168,-3.5712 -8.2899,-3.5712 -9.87919,0 -29.84596,6.99353 -36.61565,12.82494 -2.25218,1.94002 -3.48687,0.73066 -3.90507,-3.82494 -0.29339,-3.19594 -0.62536,-3.5289 -3.8213,-3.83267 -1.925,-0.18296 -5.3,0.20797 -7.5,0.86875 -2.2,0.66078 -7.825,1.59167 -12.5,2.06864 -10.0734,1.02776 -18.80486,2.36245 -19.39118,2.96414 -0.23107,0.23713 -3.44037,6.05614 -7.13178,12.93114 -3.6914,6.875 -7.05341,12.95 -7.47113,13.5 -0.41772,0.55 -3.77203,6.79729 -7.45403,13.88287 -3.682,7.08557 -7.76103,14.5723 -9.06453,16.63716 -1.30349,2.06487 -5.13565,9.20891 -8.51592,15.87565 -6.31753,12.45979 -11.53254,20.15407 -19.12628,28.21918 C 824.24437,616.9323 797.75661,633 783.03962,633 c -3.97527,0 -5.12536,-0.49325 -7.95338,-3.41102 -3.26462,-3.36823 -3.30106,-3.50936 -2.90525,-11.25 0.31427,-6.14572 1.04003,-9.12415 3.35993,-13.78871 3.31324,-6.66182 2.67308,-6.22866 14.95908,-10.12192 8.84324,-2.80229 28.28737,-12.02096 31.51424,-14.94124 0.90378,-0.81791 2.13281,-1.48711 2.73117,-1.48711 0.59836,0 1.23792,-0.34593 1.42126,-0.76873 0.18333,-0.4228 3.25833,-2.84682 6.83333,-5.38672 14.65854,-10.41429 25.98438,-23.40667 32.56952,-37.36193 3.1267,-6.62612 3.843,-9.35607 4.21524,-16.06502 0.43955,-7.92205 0.38569,-8.15387 -2.71475,-11.68509 -4.85107,-5.52505 -10.25053,-7.14717 -21.34507,-6.41251 -10.77177,0.71328 -20.63123,3.60073 -33.89139,9.92544 -11.3049,5.39211 -17.3404,9.86406 -30.01464,22.23906 -19.0913,18.64056 -37.2123,46.59719 -48.82891,75.33203 -4.98142,12.32205 -4.59773,11.93575 -24.53302,24.70006 -11.5471,7.39346 -23.73142,11.43999 -34.53267,11.46863 -6.34707,0.0168 -9.42163,-2.2218 -10.50738,-7.65056 -2.46555,-12.32776 17.2955,-54.5522 36.89465,-78.83466 6.33339,-7.84678 17.9775,-18.68659 23.91826,-22.26614 6.75402,-4.06957 15.87071,-6.22523 18.18938,-4.30091 1.99685,1.65725 2.01962,5.77251 0.0579,10.46754 -1.36659,3.27072 -1.36529,3.7052 0.0127,4.234 0.84458,0.32409 2.10793,0.11427 2.80745,-0.46628 0.69952,-0.58055 3.95629,-1.1934 7.23727,-1.36188 L 758.5,543.5 l 2.75,-5.42931 c 4.69609,-9.27148 3.45484,-17.10348 -3.26104,-20.5764 -6.52903,-3.37629 -28.46613,-1.24215 -41.55597,4.04276 -30.77948,12.42693 -50.50045,29.04747 -71.24182,60.04154 C 633.85117,598.52408 618,633.55755 618,641.67515 618,643.01932 617.39962,644 616.57673,644 c -0.78281,0 -2.76027,1.125 -4.39436,2.5 -1.6341,1.375 -3.66706,2.5 -4.51771,2.5 -0.85064,0 -1.78389,0.3839 -2.07388,0.85312 -0.28999,0.46922 -3.00508,1.63249 -6.03353,2.58505 -9.07227,2.85358 -13.39775,0.65665 -12.67594,-6.43817 0.13989,-1.375 2.43448,-6.325 5.09909,-11 2.66462,-4.675 7.42325,-13.45 10.57473,-19.5 3.15149,-6.05 8.0796,-15.05 10.95135,-20 2.87176,-4.95 7.17067,-12.825 9.55314,-17.5 2.38247,-4.675 5.29377,-10.075 6.46955,-12 1.17579,-1.925 3.87223,-6.875 5.99209,-11 2.11986,-4.125 5.79479,-10.91922 8.16652,-15.09826 5.1786,-9.12486 5.52106,-11.42238 1.56222,-10.4809 -4.98134,1.18465 -25.60341,3.81787 -33.51392,4.27938 -7.53723,0.43972 -7.81097,0.54561 -9.37499,3.62636 -2.84578,5.60554 -3.34225,5.92059 -6.25223,3.96746 -2.08262,-1.39782 -4.62598,-1.73103 -12.60886,-1.65189 -8.44129,0.0837 -11.05226,0.52561 -16.75083,2.83517 -3.81657,1.54681 -7.49786,2.44936 -8.46952,2.0765 -0.94528,-0.36274 -1.39562,-0.33646 -1.00076,0.0584 0.39485,0.39486 -2.09386,1.92042 -5.53049,3.39014 -9.40235,4.02104 -15.96203,8.23689 -27.12887,17.43548 -9.85215,8.11564 -16.04384,14.15801 -20.11953,19.63436 -1.1,1.47802 -4.50456,6.00393 -7.56568,10.05756 -3.06113,4.05363 -7.47956,10.29524 -9.81873,13.87024 -5.04108,7.70436 -20.28197,38.36674 -22.61601,45.5 -3.39138,10.36467 -4.47855,11.7288 -12.66211,15.88778 -9.48778,4.82181 -16.43576,5.81857 -19.20775,2.75556 -2.71997,-3.00553 -1.64866,-6.79639 5.62337,-19.89834 3.4358,-6.19026 11.87191,-21.62856 18.74691,-34.30734 6.875,-12.67877 15.59868,-28.53902 19.38595,-35.24499 3.78727,-6.70597 9.07406,-16.46767 11.74843,-21.69267 5.4451,-10.63826 7.74572,-14.79454 13.00794,-23.5 1.99476,-3.3 4.83119,-8.57636 6.30317,-11.72525 1.47199,-3.14889 5.58855,-10.73585 9.14792,-16.8599 C 522.89686,499.0695 526,492.75843 526,490.78404 c 0,-1.18445 -8.64469,-0.2134 -15,1.68494 -8.47855,2.53255 -15.50128,4.42486 -18.5,4.98491 -11.61402,2.16907 -12.64507,2.80296 -17.71609,10.89173 -2.63554,4.20395 -7.55624,12.93348 -10.93488,19.39896 -3.37864,6.46548 -8.93182,16.70542 -12.3404,22.75542 -3.40859,6.05 -8.46506,15.275 -11.23662,20.5 -2.77155,5.225 -7.03935,13.1 -9.48398,17.5 -2.44464,4.4 -6.60815,12.05 -9.25227,17 -2.64411,4.95 -6.47721,11.925 -8.51802,15.5 -2.0408,3.575 -6.09731,11 -9.01447,16.5 -2.91716,5.5 -7.96559,14.81958 -11.21873,20.71017 -9.59426,17.37273 -13.20655,33.20551 -9.29963,40.76065 1.83828,3.55484 6.12331,6.69256 10.04657,7.35662 6.13998,1.03927 20.92416,-0.31275 26.47239,-2.42091 z M 509,666.7631 c -2.1627,-1.13547 -2.54081,-2.09678 -2.80251,-7.12505 -0.39135,-7.5196 2.16284,-15.30365 10.54551,-32.13805 9.18579,-18.44727 12.55999,-23.99372 24.54718,-40.35025 4.61848,-6.30192 16.47166,-18.48838 22.35777,-22.98639 8.03219,-6.13801 16.0819,-8.4144 23.10205,-6.53307 3.24202,0.86882 2.8763,4.34974 -1.1137,10.60029 -1.85004,2.89818 -6.396,11.11942 -10.10215,18.26942 -3.70615,7.15 -8.20218,15.475 -9.99118,18.5 -1.789,3.025 -5.50164,9.775 -8.25031,15 -9.18746,17.4646 -16.62236,30.4639 -19.67658,34.40284 -7.07281,9.12157 -22.27661,15.68861 -28.61608,12.36026 z m 279.37061,-86.23968 c -0.54144,-1.41097 8.74005,-17.70673 13.0817,-22.96788 1.12623,-1.36476 3.84576,-5.08556 6.04341,-8.26846 5.43499,-7.87161 23.01594,-25.8782 28.32482,-29.01058 4.81376,-2.84023 11.78554,-3.44847 13.32921,-1.16286 3.17431,4.69998 -5.38075,23.57203 -15.77492,34.79868 -10.6706,11.52525 -25.96672,21.85702 -39.34975,26.57883 -5.21114,1.8386 -4.96186,1.83718 -5.65447,0.0323 z M 1000,625.33292 c 13.4114,-3.17724 32.0181,-13.73404 48.25,-27.37539 l 3.75,-3.15152 v 3.0319 c 0,5.62474 2.628,9.88722 8.3328,13.51519 2.4086,1.53174 5.0545,1.79651 17.6673,1.76791 16.7194,-0.0379 24.9084,-1.12311 36.4999,-4.83692 29.2497,-9.3713 53.7078,-35.14324 60.2863,-63.52461 1.3652,-5.88988 1.6345,-11.55883 1.4274,-30.04792 -0.2803,-25.02474 0.8407,-35.54286 5.2646,-49.39539 2.4562,-7.6909 3.1156,-12.38893 1.9084,-13.59609 -0.3372,-0.33729 -2.2497,-0.0155 -4.25,0.715 -2.0002,0.73054 -11.6604,3.93272 -21.4671,7.11595 -9.8068,3.18322 -18.9126,6.63885 -20.2351,7.67918 -1.3226,1.04032 -4.0561,4.90161 -6.0744,8.58064 -4.9897,9.09525 -20.6423,35.14223 -26.1436,43.50467 -6.2683,9.52853 -13.4551,17.10136 -19.5362,20.58556 -10.3945,5.95558 -18.9065,15.16456 -26.0803,28.2157 -4.6832,8.52001 -9.3945,13.89942 -18.5615,21.19387 -10.856,8.63853 -17.786,11.68758 -26.566,11.68856 -7.8227,8.8e-4 -10.5226,-1.26171 -13.0183,-6.08777 -1.67007,-3.22957 -1.3728,-6.88898 1.2521,-15.41144 2.5048,-8.13283 4.838,-11.16658 10.0835,-13.11092 10.3725,-3.84473 30.0041,-12.72448 35.6854,-16.14114 14.0733,-8.46346 37.3457,-28.95756 39.0768,-34.41163 0.3205,-1.00997 0.9192,-1.83631 1.3304,-1.83631 1.4768,0 9.1791,-16.64048 10.7905,-23.31257 1.5714,-6.5062 1.5595,-7.01876 -0.2638,-11.39711 -3.7567,-9.02118 -11.9612,-11.77169 -28.6788,-9.61439 -18.9551,2.44603 -32.1193,8.368 -49.2303,22.14634 -11.999,9.66197 -21.1886,19.94174 -33.54726,37.52675 -6.28893,8.94847 -8.95111,13.72713 -20.97524,37.65098 -6.57368,13.07935 -9.24338,22.2992 -9.74723,33.66225 -0.43,9.69743 -0.32041,10.40147 2.39589,15.39221 3.26249,5.99428 8.57777,9.98932 14.71816,11.06236 5.51698,0.96411 17.60354,0.1237 25.65568,-1.7839 z m 77.3138,-31.21751 c -4.1174,-2.5954 -5.3138,-4.9522 -5.3138,-10.46788 0,-7.23798 0.3979,-7.64753 7.4298,-7.64753 11.5055,0 22.961,-7.75129 29.451,-19.92778 3.7891,-7.10909 4.2376,-13.75009 1.1192,-16.57222 -1.1,-0.99549 -2,-2.30337 -2,-2.90641 0,-0.60304 3.2625,-6.14113 7.25,-12.30688 3.9875,-6.16575 8.9506,-13.94609 11.0291,-17.28964 2.1866,-3.51746 4.2333,-5.79842 4.8571,-5.4129 0.6877,0.42504 0.8665,-0.0127 0.4938,-1.20894 -0.3214,-1.03138 -0.1515,-2.55023 0.3775,-3.37523 1.3705,-2.13727 1.2887,0.45498 -0.4128,13.07593 -0.773,5.73324 -1.7103,17.36897 -2.083,25.85718 -0.7919,18.03499 -2.3645,23.56511 -9.8911,34.78343 -12.6228,18.81389 -32.3082,29.70142 -42.3068,23.39887 z m -58.7956,-45.08604 c -1.8966,-3.06866 20.0881,-34.73771 33.4156,-48.13538 7.7472,-7.78794 16.7511,-14.27484 21.4511,-15.45446 8.1462,-2.04456 7.4117,10.57413 -1.4903,25.6021 -8.0839,13.64705 -29.1651,31.20686 -44.1821,36.80202 -6.4038,2.38596 -8.3013,2.63067 -9.1943,1.18572 z M 561,523.472 c 5.82315,-1.84197 12.12162,-2.93947 20,-3.48497 6.325,-0.43794 15.325,-1.72847 20,-2.86785 4.675,-1.13937 10.525,-2.08764 13,-2.10725 2.475,-0.0196 6.975,-0.69999 10,-1.51193 3.025,-0.81194 7.75,-1.4926 10.5,-1.51258 2.75,-0.02 6.92134,-0.47956 9.26964,-1.02132 6.73003,-1.55261 12.64887,0.4161 18.42002,6.12683 2.64568,2.61799 4.81723,5.35558 4.82565,6.08353 0.008,0.72795 0.4388,1.99334 0.95639,2.81198 0.78482,1.24133 1.48789,0.9676 4.23468,-1.64875 7.80895,-7.43808 26.88758,-17.67285 42.29362,-22.6885 8.5541,-2.7849 24.74782,-5.66066 31.73923,-5.63641 5.05045,0.0175 15.96405,2.43366 20.43736,4.52458 1.74713,0.81664 4.79282,3.05437 6.7682,4.97272 1.97537,1.91836 3.85074,3.48792 4.16747,3.48792 0.31674,0 3.88808,-2.41887 7.93632,-5.37526 14.14196,-10.32777 31.95069,-18.33246 48.24459,-21.68506 11.45061,-2.35606 18.04251,-2.44311 26.37606,-0.34834 6.49455,1.63252 17.52746,7.13334 19.80052,9.87221 1.63998,1.97605 3.03025,1.96523 3.03025,-0.0236 0,-2.91159 6.16061,-10.98789 10.11963,-13.26641 2.47269,-1.4231 6.81663,-2.59999 11.66056,-3.15917 C 909.02608,474.52424 915.875,473.62691 920,473.02032 938.37602,470.31808 941.24503,470 947.24263,470 c 3.49655,0 6.8783,0.52093 7.51499,1.15762 0.77603,0.77603 1.58363,0.83279 2.45,0.17219 0.71081,-0.54198 3.54238,-1.79708 6.29238,-2.78911 2.75,-0.99203 5.39743,-2.16444 5.88317,-2.60537 2.1574,-1.95832 -26.35695,-44.97154 -38.07507,-57.43533 -1.55128,-1.65 -4.1151,-4.575 -5.69738,-6.5 -17.18448,-20.90669 -45.31506,-45.67959 -72.21319,-63.5938 -16.9711,-11.30279 -21.91801,-14.17974 -39.89753,-23.20303 -17.05599,-8.55979 -23.28741,-11.2771 -36,-15.69838 -4.4,-1.53026 -12.05,-4.25495 -17,-6.05486 -10.31497,-3.75071 -26.59338,-8.30213 -33.96568,-9.49675 C 723.76545,283.5045 717,282.41601 711.5,281.53431 c -39.97252,-6.408 -87.53127,-6.06619 -128.5,0.92353 -29.17635,4.97781 -62.95714,16.34042 -93.9432,31.59904 -26.25042,12.92662 -28.70947,15.06856 -18.8068,16.38155 6.88918,0.91344 16.54257,5.03669 25.77576,11.00961 4.1001,2.65234 10.27152,5.88268 13.71425,7.17852 9.96046,3.74911 17.33292,8.33687 23.36883,14.54205 3.93741,4.04782 7.51341,6.57505 12,8.48065 12.58855,5.34675 19.72356,11.18157 24.05467,19.67124 1.65721,3.2484 1.9434,5.11275 1.44102,9.38721 -0.61445,5.228 -0.55232,5.39781 3.13297,8.56303 16.9113,14.52481 21.42476,21.10837 26.55142,38.72926 5.38329,18.50299 5.82968,23.23969 2.84297,30.16709 -3.12419,7.24629 -8.90932,11.95013 -16.43311,13.3616 -5.0271,0.94309 -8.68513,-0.68211 -17.36662,-7.71566 -3.94231,-3.19398 -10.69231,-7.67273 -15,-9.95278 -10.13039,-5.36199 -17.25153,-9.69857 -20.13576,-12.26211 -1.89918,-1.68802 -3.41583,-1.99753 -8.63889,-1.76296 -9.34579,0.41971 -15.30493,-2.67687 -29.62256,-15.39295 -2.76306,-2.45399 -8.26627,-6.09466 -12.22935,-8.09037 -3.96308,-1.99572 -10.53445,-5.8748 -14.60304,-8.62018 -4.0686,-2.74539 -10.1436,-6.09222 -13.5,-7.43741 -3.35641,-1.34519 -9.50458,-4.18082 -13.66261,-6.3014 -4.15802,-2.12058 -11.60614,-4.99321 -16.55137,-6.38362 -4.94523,-1.39041 -11.14855,-3.73371 -13.78515,-5.20733 -3.96556,-2.2164 -7.15309,-2.92686 -18.44863,-4.11201 l -13.6548,-1.43268 -5.85125,6.32138 c -7.77542,8.40016 -15.73484,18.87307 -15.11086,19.8827 0.69855,1.13028 9.13626,-2.75205 23.09735,-10.62748 16.83399,-9.49602 23.72703,-9.74993 32.98629,-1.21504 6.65399,6.13343 9.7118,12.09691 9.7118,18.94039 0,3.18572 -0.56823,6.41893 -1.27854,7.2748 -1.96048,2.36224 -0.83708,3.88063 7.6526,10.34327 13.62481,10.37169 24.459,24.01574 28.36597,35.72275 0.73421,2.2 1.66124,4.39568 2.06007,4.87929 0.39883,0.4836 2.89809,-0.45774 5.55391,-2.09189 2.65582,-1.63414 7.97514,-3.87824 11.82071,-4.98689 12.84292,-3.70252 45.95319,-11.34685 49.04617,-11.32353 3.13878,0.0237 10.6184,4.21772 13.65759,7.65824 0.94149,1.06582 2.66772,4.09886 3.83606,6.7401 2.05447,4.64445 2.06948,4.97182 0.45691,9.96346 -1.67235,5.1767 -12.61277,26.66741 -17.39068,34.16122 -2.97178,4.66101 -7.1141,12.18166 -7.1141,12.91609 0,0.27923 7.0875,-3.03899 15.75,-7.37384 8.6625,-4.33485 19.575,-9.09146 24.25,-10.57025 z m 24,-57.61419 c 0,-4.17823 -3.612,-16.14209 -6.7396,-22.32328 -7.96975,-15.75088 -25.16231,-26.99473 -40.25006,-26.32332 -7.86828,0.35014 -8.16016,0.99285 -4.96443,10.93157 4.01373,12.48272 9.5986,17.84693 29.45409,28.29033 6.05,3.18212 13.025,7.29778 15.5,9.14591 5.66289,4.2286 7,4.28185 7,0.27879 z m 445.7279,-3.09161 c 4.5253,-2.34641 8.4609,-4.86057 8.7458,-5.58702 1.4115,-3.59975 -20.8968,-42.1785 -39.1894,-67.77203 C 975.95126,355.36243 942.47345,321.48986 906.41615,294.43219 884.51738,277.99917 848.07019,256.71233 823,245.71329 c -7.45368,-3.27015 -30.92695,-12.11743 -39.5,-14.88791 -20.76342,-6.70991 -59.74319,-15.54899 -81,-18.36761 -26.89256,-3.56592 -77.08949,-3.57209 -103.5,-0.0127 -32.98517,4.44543 -80.05499,16.07027 -97.77964,24.14865 -2.90379,1.32346 -5.85129,2.4063 -6.55,2.4063 -0.6987,0 -1.69786,0.39215 -2.22036,0.87145 -0.5225,0.4793 -3.64143,1.69859 -6.93096,2.70954 -15.51431,4.7679 -64.75366,32.23562 -87.09139,48.58315 -20.4766,14.98549 -20.56358,16.25943 -1.19664,17.52811 15.60916,1.02252 14.04081,1.48204 28.76899,-8.42928 22.66425,-15.2519 46.06706,-27.53072 73.5,-38.56347 24.73484,-9.94765 31.99154,-12.29998 53.16146,-17.23278 40.12035,-9.34845 58.72043,-11.57196 97.83854,-11.69593 31.15626,-0.0987 40.31947,0.6226 65,5.11682 37.12222,6.75981 69.18963,16.16743 94,27.57678 1.65,0.75877 5.475,2.35095 8.5,3.53817 7.0468,2.76566 16.06417,7.42443 33.30537,17.20702 26.75175,15.17884 46.36204,29.31962 73.46417,52.97425 11.71742,10.22692 35.32229,35.55651 46.00905,49.37075 15.57189,20.12899 36.16131,51.8831 43.54151,67.15202 4.8386,10.01068 5.6276,11.29176 6.9651,11.3096 0.6681,0.009 4.9173,-1.90359 9.4427,-4.25 z M 523.83156,427.75 c -0.3992,-14.74912 -1.51605,-16.93712 -11.08666,-21.71961 -5.8829,-2.93972 -6.28858,-3.01041 -7.56549,-1.31834 -1.82043,2.41233 -1.09786,16.70646 1.05188,20.80873 1.89608,3.61821 5.863,7.74811 11.16875,11.62758 6.58836,4.81729 6.8076,4.49691 6.43152,-9.39836 z m -29.46185,-11 c 1.64533,-6.13953 -1.74412,-20.44381 -5.86292,-24.74291 -2.86872,-2.9943 -11.9462,-6.36631 -15.704,-5.83356 -1.90005,0.26937 -2.25199,0.85115 -2.01234,3.32647 1.0276,10.61384 6.83855,21.08128 14.57256,26.25 5.72659,3.82713 8.17618,4.09911 9.0067,1 z m 47.50514,-13.92159 c 8.07179,-4.05519 8.48799,-5.92378 2.28988,-10.28085 -3.85371,-2.70904 -5.27942,-3.08712 -12.83517,-3.40367 -8.83101,-0.36999 -16.3913,1.06071 -18.90887,3.57828 -2.67718,2.67717 1.21656,7.24565 10.07931,11.82595 6.24273,3.22626 10.23537,2.87187 19.37485,-1.71971 z m -76.24401,-2.4937 c 0.72504,-2.88877 -1.90554,-14.64044 -4.53221,-20.24689 -2.32569,-4.96403 -5.65616,-6.87101 -13.34863,-7.64322 L 441,371.76701 v 4.57898 c 0,5.12208 3.02514,13.93483 6.00426,17.49143 1.95834,2.33794 14.40496,9.15369 16.72669,9.1595 0.67702,0.002 1.53197,-1.1963 1.89989,-2.66221 z M 435.4497,386.25 c -1.55503,-7.26764 -7.78753,-20.64432 -10.74927,-23.07093 -4.04389,-3.31321 -17.18377,-3.68904 -18.39746,-0.5262 -0.30678,0.79945 0.72136,4.46325 2.28476,8.14179 4.78004,11.247 13.27328,17.73108 23.68132,18.07925 3.60809,0.12071 3.74393,0.009 3.18065,-2.62391 z m 62.39917,-0.86281 C 507.91472,380.9408 516,376.53865 516,375.50453 c 0,-2.17232 -4.65966,-5.53628 -10.52349,-7.59725 -7.96432,-2.79924 -15.69454,-1.94985 -22.25796,2.44568 -5.53094,3.70407 -6.2534,5.90921 -3.05905,9.33706 2.28411,2.45107 9.56734,6.29824 13.68937,7.23103 0.19188,0.0434 1.99188,-0.64682 4,-1.53386 z M 400.48748,376.75 c -1.15777,-4.0244 -7.46474,-16.17363 -9.99316,-19.25 -2.37766,-2.89294 -2.8052,-3.01237 -11.97999,-3.34653 C 370.1805,353.84994 369,354.01272 369,355.4654 c 0,2.77332 4.73427,11.86415 8.42247,16.17299 4.80253,5.61068 8.7181,7.31153 16.89492,7.33884 6.59936,0.022 6.79668,-0.0492 6.17009,-2.22723 z M 372,374.17332 c 0,-1.00468 -3.18731,-6.06718 -7.08291,-11.25 -11.36858,-15.12511 -11.14716,-13.8184 -3.68041,-21.71931 10.4972,-11.10757 13.8616,-15.23598 13.23829,-16.24451 C 374.14882,324.43178 371.06885,324 367.6306,324 c -12.70105,0 -29.66995,9.3881 -34.72218,19.21016 -2.32502,4.52008 -2.36822,5.97446 -0.29968,10.0895 5.24104,10.42623 24.12234,22.4148 35.64126,22.63021 2.99033,0.0559 3.75,-0.29992 3.75,-1.75655 z m 97.28324,-6.78034 c 8.80694,-4.40117 13.7131,-7.81535 13.71497,-9.5442 0.006,-5.19147 -17.64747,-8.78206 -26.51917,-5.39393 -5.19292,1.9832 -10.47904,6.06488 -10.47904,8.09141 0,1.80403 5.91345,6.46759 10.1435,7.99954 5.17203,1.87309 7.49208,1.66954 13.13974,-1.15282 z m -38.98358,-11.02037 c 1.76019,-0.89506 6.23784,-4.09612 9.95034,-7.11346 10.47323,-8.51213 8.84032,-11.37165 -6.63294,-11.61548 -10.1599,-0.1601 -12.73875,0.76116 -19.6768,7.02926 -5.53772,5.003 -5.17424,6.61521 2.30974,10.24482 7.17028,3.47747 9.58115,3.72712 14.04966,1.45486 z m -37.98773,-9.83243 c 5.78522,-2.74294 16.91155,-13.15081 16.47165,-15.40803 -0.40531,-2.07974 -6.3742,-3.96903 -12.78358,-4.0463 -9.39353,-0.11325 -18.66518,5.47411 -22.50249,13.56064 -1.92464,4.05588 -1.54513,4.68955 4.00249,6.68303 5.89386,2.11789 9.03303,1.9506 14.81193,-0.78934 z"
           id="path5"
           sodipodi:nodetypes="scsssssssssssssssssssssssssssssssssssssssssssssssssssssscssssssssssscsssssscsssssssssssssssssssscccsssssssssssssscssssssssssssscsssssssssssssssssssssssssssssssssssssssssssscsssssssssssssssssssssssssssscsssssssssssscsssscsssssssssssssssssssscssssscsssssssssssssssssssssssssssssssssssssssssssssssssssssssssssssssssssssssssssssssscsssssssssssssssssssssssssssssssssssscsssssssssssssssssssssssssssssssssssssssssssssssssssssssscssssssssssssssssssssssssssssssssssssssssssssscsssssssssssscssssssssssssssscssssssscsssssscsssssssssssssssssssssssssscsscsssssssssscssssssssssssssssssssssssssssssssssssssssssssssssssssssssssssssssscssssssssssssssssssssssssssssssssssssssssssssssssssssssssssssssssssssssssssssssscsssssssssssssssssssssssssssssssssssssssssssssssssssssssssssssscssssssssssssssssssssssssssssssssssssssssssssssssssssscssssssssssssssssssssssssssscssssssssssssssssssssssssssssssssssssssssssssssscsscscsssscsssssssssssssssssssssssscssssssssssssssss" />
      </g>
      <g
         id="g171"
         inkscape:label="Letras">
        <path
           style="fill:#9c6c3e;fill-opacity:1"
           d="m 379.79156,346.65637 c -5.44003,-1.72109 -6.25372,-2.86738 -4.46593,-6.29147 C 378.62372,334.04816 388.77019,328 396.06914,328 c 3.38235,0 9.34147,2.23733 10.36345,3.89092 0.98038,1.58629 -8.16029,10.32587 -13.43259,12.84317 -6.08954,2.9075 -8.83256,3.30671 -13.20844,1.92228 z"
           id="path171" />
        <path
           style="fill:#9c6c3e;fill-opacity:1"
           d="m 419.97888,355.2084 c -2.48662,-0.93962 -5.41162,-2.24783 -6.5,-2.90712 -1.84383,-1.11689 -1.87427,-1.38988 -0.44602,-4 0.84308,-1.54071 3.97317,-4.26379 6.95577,-6.05129 4.66628,-2.79655 6.35003,-3.25 12.06791,-3.25 7.40085,0 12.94346,1.50728 12.94346,3.5199 0,1.75521 -7.2302,7.8834 -13.62173,11.54553 -5.93902,3.40286 -5.52796,3.36164 -11.39939,1.14298 z"
           id="path170" />
        <path
           style="fill:#9c6c3e;fill-opacity:1"
           d="m 459,368.33906 c -4.91093,-1.7831 -9.90146,-4.63989 -10.40706,-5.95745 -0.9891,-2.57757 1.24148,-5.26401 6.6438,-8.00158 4.51771,-2.28929 6.05731,-2.56 12.28624,-2.16025 6.73346,0.43213 13.47702,2.9558 13.47702,5.04358 0,1.69619 -5.66588,6.03567 -10.9381,8.37748 -6.31839,2.80648 -8.97742,3.45507 -11.0619,2.69822 z"
           id="path169" />
        <path
           style="fill:#9c6c3e;fill-opacity:1"
           d="m 361.5,373.59582 c -11.08151,-3.51945 -23.8053,-13.18482 -27.54416,-20.92336 -1.94642,-4.02862 -1.94606,-4.06121 0.09,-8.2671 1.12425,-2.3224 3.10555,-5.27618 4.40289,-6.56395 3.25785,-3.23383 12.77941,-8.8539 16.75727,-9.89092 1.81171,-0.47231 5.22572,-1.42748 7.58668,-2.1226 4.34619,-1.27961 7.11459,-0.60613 7.96231,1.93701 0.2057,0.61712 -2.92876,4.63497 -6.96548,8.92856 -4.03671,4.2936 -7.90041,8.5393 -8.58598,9.4349 -1.77198,2.31482 -0.32791,5.50938 6.6335,14.67463 10.74415,14.14551 10.68755,16.29419 -0.33701,12.79283 z"
           id="path166" />
        <path
           style="fill:#9c6c3e;fill-opacity:1"
           d="m 386.32955,376.35941 c -5.28456,-1.86656 -8.23727,-4.83288 -12.18684,-12.24305 C 369.54226,355.48504 369.72438,355 377.56574,355 c 6.94879,0 9.75178,0.97744 12.60864,4.39682 2.39819,2.8704 8.82678,15.07752 8.82068,16.74941 -0.007,1.91424 -7.49278,2.04023 -12.66551,0.21318 z"
           id="path165" />
        <path
           style="fill:#9c6c3e;fill-opacity:1"
           d="M 488.38362,383.54506 C 483.54018,381.26019 479,377.66572 479,376.11603 c 0,-1.07468 2.66105,-3.28332 7.322,-6.07717 5.41218,-3.24416 14.7845,-3.2676 21.64536,-0.0541 3.33144,1.56037 5.03264,2.97121 5.03264,4.17368 0,1.81745 -4.31066,4.98154 -11.01502,8.08521 -7.98748,3.69768 -8.43178,3.74019 -13.60136,1.30146 z"
           id="path162" />
        <path
           style="fill:#9c6c3e;fill-opacity:1"
           d="m 424.58122,385.9858 c -6.1784,-2.41249 -10.56708,-6.62778 -14.03349,-13.47901 -3.35265,-6.62638 -2.53503,-8.99524 3.45397,-10.00708 6.20503,-1.04833 10.627,1.73977 14.78913,9.3247 1.86533,3.39932 3.98475,8.42946 4.70983,11.17808 l 1.31832,4.99751 -2.65949,-0.0468 c -1.46272,-0.0257 -4.87294,-0.91107 -7.57827,-1.96743 z"
           id="path159" />
        <path
           style="fill:#9c6c3e;fill-opacity:1"
           d="m 459,399.0132 c -8.73866,-1.59286 -16.33484,-11.25342 -16.44676,-20.91644 L 442.5,373.5 l 5.5,0.30193 c 8.70029,0.47761 11.61037,3.44273 14.5842,14.86002 1.56317,6.00143 1.81517,10.01522 0.6658,10.60462 -0.4125,0.21153 -2.325,0.0975 -4.25,-0.25337 z"
           id="path157" />
        <path
           style="fill:#9c6c3e;fill-opacity:1"
           d="m 526.95322,405.03023 c -5.92085,-1.74029 -14.55486,-8.72532 -13.75419,-11.12733 0.74325,-2.22975 10.8768,-4.78734 16.80097,-4.24037 9.06105,0.83659 17,4.59358 17,8.045 0,1.41628 -10.41298,6.6782 -15,7.57985 -1.375,0.27027 -3.64605,0.15456 -5.04678,-0.25715 z"
           id="path155" />
        <path
           style="fill:#9c6c3e;fill-opacity:1"
           d="M 486.5,415.14141 C 478.91894,410.46361 473.21,401.05485 472.7619,392.5 l -0.2619,-5 3.5,0.31779 c 1.925,0.17478 5.39474,1.21883 7.71054,2.3201 3.3213,1.57944 4.73114,3.10277 6.67553,7.21287 3.08106,6.51281 4.54277,17.44731 2.50485,18.73782 -2.01381,1.27524 -3.03429,1.124 -6.39092,-0.94717 z"
           id="path153" />
        <path
           style="fill:#9c6c3e;fill-opacity:1"
           d="m 517.43876,436.12575 c -4.77741,-2.91331 -10.12185,-9.81009 -11.33478,-14.62709 C 504.04311,413.31419 504.96864,405 507.94061,405 c 2.13811,0 10.66738,5.99532 12.74095,8.95576 2.64868,3.78152 3.11195,24.05361 0.54939,24.0405 -0.40202,-0.002 -2.10851,-0.84378 -3.79219,-1.87051 z"
           id="path152" />
        <path
           style="fill:#9c6c3e;fill-opacity:1"
           d="m 577.67325,463.57285 c -2.6512,-1.88493 -10.29976,-6.2623 -16.9968,-9.72748 -15.15341,-7.84069 -22.33337,-14.37802 -25.64024,-23.34537 -1.21693,-3.3 -2.28541,-7.12122 -2.37441,-8.49161 -0.15401,-2.37162 0.13613,-2.50776 6.02449,-2.82695 14.2821,-0.77419 30.83278,9.79952 38.06504,24.31856 2.70593,5.43227 7.24867,18.8549 7.24867,21.41797 0,2.8022 -0.70398,2.65252 -6.32675,-1.34512 z"
           id="path151" />
        <path
           style="fill:#302e2c"
           d="m 973.99994,624.98177 c -4.99507,-0.57524 -7.50498,-2.02607 -11.21337,-6.48177 -9.29568,-11.16895 -4.92844,-32.75825 13.55326,-67 12.30016,-22.78898 27.64347,-42.7952 42.66017,-55.62497 17.2538,-14.74107 28.2444,-20.41565 46.2406,-23.87467 13.1927,-2.53575 18.9378,-2.3602 26.0484,0.79599 3.927,1.74307 5.1509,2.94389 6.7998,6.6715 1.9417,4.38949 1.9532,4.76054 0.3358,10.78899 -3.758,14.00602 -14.6081,30.83316 -25.9489,40.24316 -2.6514,2.2 -6.4306,5.39954 -8.3982,7.11009 -10.4532,9.08755 -22.1041,15.59288 -42.0775,23.49417 -6.875,2.71969 -13.175,5.29411 -14,5.72095 -2.2905,1.18506 -6.7606,10.95324 -8.11093,17.72444 -1.49557,7.49938 -0.70841,10.83101 3.56983,15.10929 3.0942,3.09412 3.8104,3.33931 9.6911,3.31732 7.5938,-0.0284 14.4655,-2.60629 23.85,-8.94727 8.2469,-5.57236 19.0245,-16.33606 21.5568,-21.52899 6.2951,-12.90926 17.8927,-26.07411 27.3327,-31.02639 2.5358,-1.33028 5.8139,-3.50516 7.2848,-4.83306 3.5249,-3.18231 12.3295,-14.77922 17.282,-22.76287 11.161,-17.99218 14.2589,-23.19572 19.2758,-32.37768 6.4163,-11.74314 7.5709,-13.17271 12.2476,-15.16412 3.4614,-1.47393 25.4778,-8.62843 35.7703,-11.62402 6.2381,-1.81555 6.1551,-2.08818 2.7881,9.161 -4.7353,15.82036 -5.8618,25.80226 -5.2056,46.12714 1.0903,33.77035 -2.8046,47.66768 -19.0501,67.97197 -17.9056,22.37931 -44.7377,34.0165 -78.4514,34.0247 -11.0009,0.003 -14.2428,-0.32603 -16.609,-1.68406 -4.1717,-2.39423 -7.3814,-7.54752 -7.9737,-12.80202 -0.2796,-2.48082 -0.7081,-4.51059 -0.9522,-4.51059 -0.244,0 -3.328,2.44691 -6.8532,5.43757 -14.2273,12.06984 -28.7958,20.56522 -41.9429,24.45833 -7.13254,2.11207 -20.85014,3.082 -29.50006,2.08587 z m 123.40936,-31.56879 c 12.2801,-6.01299 26.4097,-22.7188 30.6064,-36.1868 1.568,-5.03186 2.3256,-11.26038 3.0078,-24.72618 0.9125,-18.01186 1.466,-22.562 4.4279,-36.39906 2.4214,-11.31217 2.2277,-11.16314 -8.3196,6.39906 -3.9637,6.6 -10.1026,16.5 -13.6419,22 -3.5393,5.5 -6.4474,10.72681 -6.4625,11.61514 -0.015,0.88833 0.8726,2.75931 1.9726,4.15773 2.4419,3.10442 2.489,4.98336 0.295,11.77674 -2.397,7.42182 -10.8609,16.40704 -18.8978,20.06166 -4.8811,2.21958 -7.3834,2.73881 -12.5,2.59369 l -6.3972,-0.18145 -0.2959,7.34366 c -0.3393,8.41797 0.9913,11.40379 6.1214,13.73612 4.6506,2.11434 13.1958,1.18241 20.0838,-2.19031 z m -71.8952,-43.28877 c 14.3009,-5.38031 25.3356,-13.00186 37.8229,-26.12382 10.6528,-11.19432 15.9352,-21.12668 16.4939,-31.01297 0.348,-6.15873 0.1795,-6.9115 -1.7819,-7.96122 -5.0883,-2.72314 -14.4434,2.27099 -26.0878,13.92671 -7.3872,7.39432 -11.8339,12.84242 -22.4836,27.54709 -4.46,6.15808 -12.1772,19.11104 -13.2563,22.25 -1.0803,3.14242 -1.0275,3.25 1.5948,3.25 1.4917,0 4.9558,-0.84411 7.698,-1.87579 z"
           id="path122" />
        <path
           style="fill:#302e2c"
           d="m 389.90157,703.24341 c -1.42914,-0.95888 -3.42945,-2.58658 -4.44514,-3.61712 -2.63876,-2.67734 -3.10992,-11.84671 -0.98868,-19.24068 2.0751,-7.23311 14.61251,-31.49362 36.18153,-70.01302 4.0429,-7.22007 7.35072,-13.37386 7.35072,-13.67508 0,-0.30123 2.6372,-5.19389 5.86045,-10.8726 3.22325,-5.6787 8.68665,-15.72491 12.14088,-22.32491 3.45423,-6.6 6.61907,-12.45 7.03298,-13 1.02837,-1.36649 4.46855,-7.53064 9.20856,-16.5 9.30816,-17.6135 17.39547,-30.98309 19.25713,-31.83505 1.1,-0.5034 5.375,-1.66952 9.5,-2.59138 10.84457,-2.42356 23.93835,-5.50328 28.11602,-6.61303 1.98881,-0.52829 3.90735,-0.96054 4.26342,-0.96054 1.11078,0 -2.16566,6.89465 -8.75224,18.41748 -6.04279,10.57149 -9.38493,16.69989 -31.67554,58.08252 -5.3326,9.9 -13.12824,24.23712 -17.32365,31.86026 C 461.43261,607.9834 458,614.44953 458,614.72945 c 0,0.27991 -1.52004,3.04279 -3.37787,6.13974 -1.85783,3.09695 -5.9826,10.58081 -9.16616,16.63081 -3.18355,6.05 -6.77711,12.5813 -7.98569,14.514 C 432.70322,659.63728 430,666.07672 430,669.80929 c 0,3.36842 0.43723,4.11123 3.34009,5.67453 3.8635,2.08063 7.17932,1.69589 15.73943,-1.82624 8.66646,-3.56588 12.41057,-6.93765 14.9366,-13.45118 8.62232,-22.23326 12.00264,-29.32874 21.77469,-45.7064 20.06047,-33.62074 44.57895,-56.71573 70.99676,-66.87484 16.76474,-6.44697 17.95074,-6.75312 26.62169,-6.87186 6.64517,-0.091 9.29174,0.3053 12.12177,1.81514 3.9864,2.12677 3.85361,2.19537 8.34374,-4.31023 1.10613,-1.60263 2.96255,-2.11753 9.5,-2.63493 16.56921,-1.31134 27.20234,-2.42491 29.91802,-3.13319 2.72585,-0.71093 2.59615,-0.34795 -5.41022,15.14076 -4.51166,8.72803 -9.27257,17.57408 -10.57979,19.65788 -1.30722,2.0838 -5.1085,9.0588 -8.44727,15.5 -3.33878,6.4412 -7.75901,14.63627 -9.82274,18.21127 -2.06373,3.575 -5.90917,10.55 -8.54541,15.5 -16.73841,31.42921 -17.23918,32.79002 -13.38731,36.37858 3.97048,3.69907 10.81761,2.78091 22.39995,-3.00372 8.60187,-4.29608 9.5,-4.97879 9.5,-7.22139 0,-3.01106 7.96864,-23.95793 13.46635,-35.39848 6.25576,-13.01805 15.36482,-27.83532 23.82499,-38.75499 6.37934,-8.23392 20.7088,-22.37006 28.70866,-28.32136 28.11752,-20.91733 68.44122,-30.11824 76.7072,-17.50276 2.01401,3.07377 1.13746,10.06094 -1.97067,15.7087 -2.25508,4.09767 -2.29497,4.11782 -9.25069,4.67185 -3.84221,0.30604 -7.17144,0.42044 -7.39828,0.25423 -0.22684,-0.16622 0.11066,-1.45028 0.75,-2.85349 C 744.4769,539.05397 745,536.36244 745,534.476 c 0,-9.16374 -12.26618,-7.79162 -26.994,3.0196 -20.54189,15.07913 -47.65659,59.14964 -55.37585,90.0044 -1.85345,7.40841 -1.29842,10.43814 2.72863,14.89476 l 3.14122,3.47629 9,-0.83053 c 13.19552,-1.21771 27.32232,-7.28634 42.8211,-18.39521 8.56081,-6.13603 10.21933,-8.17007 13.18085,-16.16531 5.99594,-16.18728 18.91735,-39.28356 33.49364,-59.86795 5.3154,-7.50633 25.26086,-26.79213 33.40399,-32.29922 19.54865,-13.22051 46.05259,-20.46709 58.07058,-15.87737 6.38571,2.43872 10.53633,7.51542 10.50539,12.84934 -0.15751,27.15945 -33.04467,60.7337 -75.24634,76.81841 C 788.10598,594.24644 782.52415,596 781.32515,596 c -5.63902,0 -12.75986,18.53878 -10.90946,28.40227 0.35496,1.89209 2.05099,4.79437 3.80238,6.50667 2.77946,2.71744 3.84497,3.09106 8.81522,3.09106 16.14804,0 38.51326,-13.40219 61.7446,-37 9.25983,-9.40591 8.46847,-8.09994 36.96078,-60.99554 5.1832,-9.62255 9.77901,-17.94755 10.2129,-18.5 0.43389,-0.55245 2.93435,-5.16337 5.55658,-10.24648 2.62223,-5.08311 5.26813,-9.63393 5.87977,-10.11293 C 904.92799,495.93896 945,490.45921 945,491.4547 c 0,0.094 -1.125,2.50301 -2.5,5.35324 -1.375,2.85024 -2.5,5.40946 -2.5,5.68716 0,1.33041 3.03831,0.1447 8.5,-3.31716 12.15485,-7.70428 25.38068,-12.92645 35.08919,-13.85483 5.75478,-0.55031 6.27651,-0.41489 9.5,2.46581 2.93434,2.62228 3.39722,3.65317 3.31352,7.37958 -0.13464,5.99481 -4.0949,13.20536 -11.06429,20.14504 -8.49072,8.45455 -14.90127,11.87192 -21.5536,11.48993 L 958.5,526.5 958,519.39912 c -0.66446,-9.43648 -1.58118,-10.47418 -7.8227,-8.85515 -12.61824,3.27313 -21.62125,10.78201 -27.55564,22.98254 -2.13309,4.38542 -5.33316,10.44849 -7.11127,13.47349 -1.7781,3.025 -6.05067,10.9 -9.4946,17.5 -3.44393,6.6 -6.61017,12.45 -7.0361,13 -0.42593,0.55 -4.69697,8.425 -9.4912,17.5 -4.79423,9.075 -10.17742,18.975 -11.96265,22 -1.78523,3.025 -5.39154,9.55 -8.01401,14.5 -5.78754,10.92415 -7.09423,12.5 -10.36492,12.5 -3.33457,0 -17.37701,1.78271 -28.5213,3.62082 -4.88092,0.80505 -9.03266,1.30546 -9.22609,1.11203 -0.19343,-0.19343 0.46411,-1.89995 1.4612,-3.79227 0.9971,-1.89232 4.58236,-8.70398 7.96724,-15.13703 5.87841,-11.17204 6.71087,-14.74502 2.56728,-11.01897 -17.07201,15.35171 -37.39298,27.6987 -56.39524,34.26566 -8.07397,2.79027 -11.26634,3.34902 -21.26709,3.72226 -13.24563,0.49435 -15.99736,-0.27294 -21.36292,-5.95681 C 729.84575,646.02305 729,643.85749 729,637.06574 c 0,-7.36294 -1.03672,-7.67618 -6.54705,-1.97813 -7.33688,7.58682 -25.9033,20.64313 -37.95295,26.68933 C 673.39756,667.34786 650.70977,673 639.45046,673 c -11.02374,0 -18.71601,-4.69335 -19.98296,-12.19238 -0.36675,-2.17078 -1.30812,-4.19297 -2.09193,-4.49374 -1.29808,-0.49812 -5.7222,1.97626 -10.87557,6.08264 -7.93623,6.32386 -23.97428,15.81459 -33.78393,19.99207 -5.15442,2.19504 -22.59169,2.24421 -26.78545,0.0755 C 542.21279,680.54156 537,673.47055 537,670.34996 c 0,-3.16121 -0.80408,-2.97663 -5.5,1.26255 -2.2,1.98602 -6.475,5.47317 -9.5,7.74922 -3.025,2.27605 -6.02005,4.62618 -6.65567,5.22251 -2.10398,1.97394 -15.73807,8.29479 -22.34433,10.35897 -8.83546,2.76072 -18.64308,2.73195 -24.01962,-0.0705 C 463.99051,692.27189 460,686.67079 460,682.26787 460,680.47054 459.53647,679 458.96992,679 c -0.56654,0 -6.6996,3.88285 -13.62902,8.62856 -6.92943,4.7457 -16.80854,10.5957 -21.95359,13 -9.23252,4.31437 -9.49518,4.37135 -20.12097,4.36485 -8.57007,-0.005 -11.2964,-0.36223 -13.36477,-1.75 z m 138.7657,-39.35239 c 9.18452,-5.98395 12.72005,-10.92862 27.09284,-37.89102 1.90572,-3.575 5.74328,-10.775 8.52791,-16 2.78463,-5.225 6.03527,-11.075 7.22365,-13 1.18837,-1.925 4.12627,-7.325 6.52868,-12 2.4024,-4.675 6.01836,-11.22606 8.03547,-14.5579 4.59996,-7.59819 5.3143,-9.84464 3.9444,-12.40433 -1.63707,-3.05888 -12.69045,-2.87539 -19.52022,0.32403 -16.02456,7.50676 -36.1722,32.05515 -52.64026,64.1382 -9.61706,18.73595 -12.83419,27.18673 -13.55871,35.61618 -0.51197,5.95658 -0.34259,6.84226 1.69897,8.88382 2.05978,2.05978 2.90657,2.21407 9.23823,1.68325 5.98093,-0.50142 7.88757,-1.18182 13.42904,-4.79223 z m 267.95969,-83.0601 c 21.76713,-8.76176 40.70004,-25.19411 49.89094,-43.30162 4.25811,-8.38915 5.75842,-17.28651 3.39509,-20.13414 -2.19267,-2.642 -10.56811,-1.41654 -16.03759,2.34656 -12.64628,8.70087 -35.54823,37.21655 -46.28346,57.62849 -4.042,7.68543 -2.71927,8.19208 9.03502,3.46071 z"
           id="path121" />
        <path
           style="fill:#302e2c"
           d="m 86.502229,740.4246 c -6.554867,-3.41781 -9.499494,-7.94754 -9.507175,-14.62494 -0.0081,-7.02367 2.958834,-13.74653 8.578533,-19.43846 4.211139,-4.26527 6.038722,-5.3548 10.751261,-6.40942 7.684332,-1.71967 15.117352,0.0229 20.782832,4.87238 l 4.08935,3.50034 -0.53791,7.58775 c -0.29586,4.17326 -0.84127,9.05025 -1.21202,10.83775 -0.66263,3.19469 -0.61218,3.25 2.96438,3.25 5.05149,0 13.96807,-3.31251 20.54939,-7.6341 5.59402,-3.67328 25.10491,-22.76962 32.60373,-31.91099 18.57532,-22.64408 32.95492,-46.74082 60.38362,-101.18842 8.32472,-16.52505 13.70047,-26.54438 23.48241,-43.76649 3.79314,-6.67822 19.32557,-29.38851 21.54404,-31.5 0.28893,-0.275 2.30131,-2.75 4.47196,-5.5 2.17065,-2.75 14.25244,-15.43381 26.84842,-28.18624 12.6123,-12.76894 22.60642,-23.66417 22.24436,-24.25 -1.47359,-2.38431 -24.63411,-0.48273 -48.67567,3.99649 -7.71463,1.43732 -39.48601,10.12319 -49.86374,13.63208 -16.41957,5.55173 -42.84541,17.65171 -46.99634,21.51888 -1.74912,1.62956 -1.79652,2.11235 -0.54357,5.53701 0.75495,2.06348 2.94022,6.90178 4.85616,10.75178 5.81029,11.67553 7.68375,19.6277 7.68375,32.61484 0,16.61935 -3.87962,29.8479 -12.62574,43.05069 -9.06381,13.68238 -23.31697,24.53782 -39.87426,30.3689 -7.49073,2.63806 -22.00573,3.11619 -28.64648,0.94364 -15.96561,-5.22324 -25.820967,-16.69318 -28.950254,-33.69308 -1.396523,-7.58664 -0.423619,-15.31526 3.640064,-28.91616 5.79858,-19.40752 13.96695,-33.35962 28.29912,-48.33678 6.60568,-6.90296 9.10772,-9.08873 17.13315,-14.96745 2.20402,-1.61447 4.27347,-3.774 4.59878,-4.79896 0.63164,-1.9901 0.15014,-2.81033 -7.37109,-12.5568 C 127.2538,462.31568 123.11023,451.96131 122.31325,438 c -0.99295,-17.39399 2.48522,-27.50867 13.46008,-39.1426 9.09432,-9.64046 12.81963,-12.04811 39.22667,-25.35207 11.56816,-5.82808 20.83405,-9.65928 31,-12.81767 20.41131,-6.34144 32.62414,-9.60827 42.21629,-11.29248 20.83515,-3.65829 60.29026,-6.91349 64.4815,-5.31998 1.23553,0.46975 3.61336,2.16041 5.28406,3.75702 l 3.03764,2.90293 -3.25974,0.58909 c -1.79286,0.32399 -11.11503,1.96044 -20.71592,3.63655 -53.47011,9.33473 -73.44799,14.82028 -98.54383,27.0583 -33.47676,16.32498 -49.07396,31.21833 -51.05111,48.74735 -1.27179,11.27536 3.1199,24.0985 12.15306,35.48531 6.86099,8.64867 8.67537,8.67329 33.27119,0.45141 20.1318,-6.72965 29.59868,-8.98172 53.12686,-12.63828 24.82334,-3.85785 42.09612,-5.19259 73.5,-5.67969 23.74205,-0.36826 32.52183,-0.85564 37.5,-2.0817 6.78114,-1.67011 27.7029,-11.10322 36.1401,-16.29468 5.30313,-3.26304 8.34206,-3.80067 9.17747,-1.62361 0.69173,1.80261 -1.27038,4.60742 -9.05564,12.94492 -3.64609,3.90472 -6.24585,7.54534 -6.06983,8.5 0.20553,1.11469 2.80146,2.44041 7.8079,3.98745 16.14271,4.98825 24.17502,9.45888 32.77614,18.24256 6.80085,6.9452 10.9065,14.30411 13.33218,23.89637 1.92995,7.6319 2.00654,9.04807 0.86311,15.95929 -4.66182,28.17738 -26.98256,52.39025 -59.53611,64.58298 -24.07183,9.01595 -36.23569,11.60164 -54.4558,11.57573 -11.3777,-0.0162 -30.69304,2.60129 -34.80016,4.71586 -3.4825,1.79298 -5.61796,4.95051 -15.69683,23.20964 -5.18008,9.38435 -18.60869,29.87116 -21.77339,33.21767 -0.66696,0.70528 -2.4194,3.08233 -3.89431,5.28233 -1.47491,2.2 -4.39912,5.86546 -6.49824,8.14547 -2.09912,2.28002 -6.74159,7.43437 -10.31659,11.45412 -13.08505,14.7129 -36.73141,34.51776 -53.04605,44.42838 -11.81972,7.1801 -39.91466,17.22451 -58.55341,20.93381 -15.30469,3.04579 -32.064721,3.48312 -36.898311,0.96282 z M 138.5,610.19031 c 11.76246,-4.37184 16.94871,-7.70238 25.98983,-16.69031 6.94259,-6.90174 10.01005,-10.86512 13.15716,-17 9.93076,-19.35872 10.66809,-28.36749 3.56029,-43.5 -3.21574,-6.84632 -14.28139,-24 -15.48213,-24 -2.48542,0 -21.88061,17.148 -29.63183,26.19858 -9.20793,10.75149 -10.52252,12.58535 -15.00461,20.93146 -8.43354,15.70413 -13.92064,35.21363 -11.9486,42.48352 3.58648,13.2216 13.94514,17.30607 29.35989,11.57675 z m 177.55066,-28.05558 c 43.11139,-9.51722 71.67744,-35.5424 85.50389,-77.89858 3.05221,-9.35021 3.49768,-26.24926 0.83129,-31.53581 -3.97021,-7.87158 -9.48931,-11.51865 -18.66403,-12.33333 -5.76132,-0.51158 -6.56637,-0.32123 -10.87724,2.57186 -2.56048,1.71837 -6.37525,5.2476 -8.47726,7.84272 -2.10201,2.59513 -4.34196,5.16841 -4.97767,5.71841 -1.80893,1.56502 -15.41485,20.05121 -22.08016,30 -8.63238,12.88489 -18.34603,28.72939 -23.29634,38 -2.3495,4.4 -5.0615,9.35 -6.02665,11 C 304.64969,561.20451 294,582.23014 294,583.11347 c 0,1.54669 13.28122,0.95719 22.05066,-0.97874 z"
           id="path120" />
        <path
           style="fill:#302e2c"
           d="m 511.52449,835.10254 c -4.30958,-0.65317 -6.48228,-3.38146 -6.50975,-8.1744 -0.034,-5.9396 7.85511,-23.42011 15.91254,-35.25845 12.57228,-18.47175 25.05387,-28.38782 44.86039,-35.63961 6.1383,-2.24742 12.22354,-2.41605 18.71233,-0.51854 1.45374,0.42511 2.27313,-0.0428 3,-1.71334 0.91978,-2.11384 1.83151,-2.35334 11.36557,-2.98556 5.70106,-0.37805 11.01799,-0.93772 11.81539,-1.24371 2.09337,-0.8033 0.84091,2.70401 -3.36783,9.43107 -6.06947,9.70116 -9.57528,15.60637 -13.20709,22.24612 -1.58058,2.88963 -5.67103,9.84691 -9.08991,15.46061 -6.01511,9.87667 -7.56866,14.9722 -5.55711,18.22696 1.13615,1.83834 5.8292,1.14906 11.54098,-1.69504 6.48882,-3.23102 6.21842,-2.82107 38.3852,-58.19572 4.89919,-8.43387 4.84686,-8.40681 18.195,-9.40805 l 9.0802,-0.6811 -0.4437,3.02311 c -0.24403,1.66271 -0.15764,3.02311 0.192,3.02311 0.34963,0 4.1492,-1.76656 8.44349,-3.92568 4.29428,-2.15913 10.54947,-4.49197 13.90042,-5.1841 5.93737,-1.22634 6.19654,-1.18965 10.17001,1.43987 2.24256,1.48406 4.07738,3.5019 4.07738,4.4841 0,0.98219 0.49959,2.2854 1.1102,2.89601 1.69018,1.69018 -1.56774,10.41748 -7.38756,19.7898 -7.57342,12.19634 -16.29478,27.75585 -16.93949,30.22124 -0.66521,2.54376 0.66444,3.94155 4.21685,4.43294 2.41066,0.33346 2.30721,0.55129 -2.89506,6.09582 -2.96728,3.1625 -5.93564,5.75 -6.59636,5.75 -0.66072,0 -2.66005,0.72772 -4.44297,1.61715 -3.49049,1.74129 -12.30084,1.26244 -14.79061,-0.80389 -0.75284,-0.62479 -1.275,-3.32919 -1.275,-6.60351 0,-6.16713 2.77189,-12.00007 16.23454,-34.16264 3.82638,-6.2991 7.19386,-12.91217 7.48329,-14.69572 0.69374,-4.27499 -0.30233,-7.97797 -2.35821,-8.76689 -1.75083,-0.67185 -9.2252,1.76105 -13.24802,4.31222 -2.55354,1.61939 -8.35977,10.22458 -14.57652,21.60328 -2.10345,3.85 -6.30142,11.05 -9.32883,16 -3.02741,4.95 -6.91507,11.57244 -8.63923,14.71654 -1.72417,3.1441 -4.52512,7.68893 -6.22434,10.09963 -3.38041,4.79583 -1.63825,4.27003 -21.09268,6.3659 -2.8875,0.31107 -5.25,0.22548 -5.25,-0.19021 0,-0.41568 0.9367,-2.27141 2.08156,-4.12383 C 590.73015,819.70056 590.85962,819 589.704,819 c -0.80251,0 -1.92701,0.56378 -2.49889,1.25285 -0.57187,0.68907 -4.11447,2.75666 -7.87244,4.59463 -3.75797,1.83798 -7.61406,3.7492 -8.5691,4.24715 -0.95504,0.49795 -4.51256,0.90537 -7.90561,0.90537 -5.07257,0 -6.76367,-0.45344 -9.51357,-2.55089 C 551.50498,826.04612 550,824.27268 550,823.50813 c 0,-2.83828 -1.8897,-2.3779 -6.12297,1.49168 -2.39295,2.18737 -7.50671,5.48197 -11.36392,7.32134 -7.20807,3.43726 -12.25149,4.10561 -20.98862,2.78139 z m 30.78037,-14.02513 c 5.89148,-2.7 10.07223,-7.15381 15.76945,-16.7994 2.70913,-4.58665 4.92569,-8.56159 4.92569,-8.8332 0,-0.27161 1.9125,-3.5093 4.25,-7.19488 2.3375,-3.68558 4.7,-7.46103 5.25,-8.3899 0.55,-0.92886 2.49412,-4.1999 4.32027,-7.26897 3.8433,-6.45918 3.84902,-9.64133 0.0197,-10.98232 -6.19158,-2.16825 -21.35956,9.08704 -30.53705,22.65979 C 538.36186,796.01275 531,811.20246 531,815.84309 c 0,7.01537 3.69026,8.72401 11.30486,5.23432 z"
           id="path119" />
        <path
           style="fill:#302e2c"
           d="m 420,845.57647 c 0,-1.30917 4.44999,-9.37291 13.01072,-23.57647 4.80667,-7.975 10.52756,-17.65 12.71308,-21.5 2.18553,-3.85 6.3484,-10.825 9.25084,-15.5 2.90243,-4.675 8.74343,-14.575 12.98,-22 10.35057,-18.14038 10.26475,-18.01379 12.54536,-18.50527 1.1,-0.23706 4.925,-1.08695 8.5,-1.88865 3.575,-0.8017 8.36153,-1.66638 10.63673,-1.92151 l 4.13674,-0.46387 -3.91453,6.90802 c -2.15299,3.79942 -6.7583,11.51226 -10.23401,17.13966 -7.79147,12.61485 -15.82669,27.6297 -15.42459,28.82284 0.40624,1.20541 12.57447,-5.12303 19.05324,-9.90918 10.77809,-7.96224 24.20304,-24.94488 26.626,-33.68204 0.6101,-2.2 1.11178,-6.15899 1.11484,-8.79775 0.004,-3.85113 -0.49307,-5.25988 -2.52175,-7.14 -4.96092,-4.59762 -7.44762,-4.97863 -17.73199,-2.71684 -5.13747,1.12985 -11.49647,2.97828 -14.1311,4.10762 -2.63464,1.12934 -5.14861,1.83186 -5.58661,1.56117 -0.438,-0.2707 -1.35244,0.17787 -2.03211,0.99681 -0.67966,0.81894 -1.66689,1.48899 -2.19384,1.48899 -2.12323,0 -12.35496,7.69926 -18.47841,13.90479 -9.09064,9.2125 -13.11926,16.71159 -15.79214,29.39636 -0.56444,2.67868 -0.81397,2.78799 -5.70711,2.5 -4.22252,-0.24851 -5.47189,-0.77823 -7.14806,-3.03065 -1.64781,-2.21432 -1.82548,-3.15806 -0.94131,-5 0.59944,-1.24878 2.11094,-4.49141 3.35889,-7.20586 7.69238,-16.73192 41.06319,-38.78999 65.41112,-43.23666 15.98228,-2.91886 19.56328,-3.21635 25.83184,-2.14601 C 534.81937,726.14344 539,730.34466 539,739.9273 c 0,10.93529 -5.75294,21.02575 -19.7178,34.58438 -10.06132,9.76864 -27.12341,19.15578 -40.14274,22.08554 -10.25431,2.30754 -9.80937,1.8236 -24.15594,26.27294 -5.92867,10.10358 -11.72177,19.31254 -12.87357,20.46434 -1.7791,1.77909 -3.59992,2.15465 -12.10207,2.49615 C 424.50355,846.05173 420,845.93735 420,845.57647 Z"
           id="path118" />
        <path
           style="fill:#302e2c"
           d="m 175.5,875.86596 c -1.65,-0.45885 -3.75217,-0.59729 -4.67148,-0.30765 -0.96863,0.30518 -2.54549,-0.41152 -3.75,-1.7044 -4.89682,-5.25612 -1.66296,-16.88466 10.3845,-37.34132 7.30687,-12.4071 21.51291,-27.17298 32.03698,-33.29951 12.40764,-7.22304 28.61137,-10.6372 33.2062,-6.9966 0.6634,0.52563 1.65536,0.6781 2.20435,0.3388 0.54899,-0.33929 4.90627,-7.24053 9.68285,-15.33609 C 264.99083,763.59718 266.31481,762 270.52509,762 c 1.74706,0 4.48111,-0.41216 6.07569,-0.9159 C 282.08563,759.35137 289,758.92645 289,760.32211 c 0,0.70612 -2.475,5.22582 -5.5,10.04378 -3.025,4.81797 -5.5,8.95039 -5.5,9.18316 0,0.51098 -8.85216,15.61348 -14.03857,23.95095 -2.05281,3.3 -6.32664,10.5 -9.49742,16 -3.17077,5.5 -8.08697,13.825 -10.9249,18.5 -9.51057,15.66707 -9.4995,17.5 0.10568,17.5 4.92426,0 5.80441,-0.3256 7.86467,-2.9094 1.27593,-1.60018 2.87943,-4.97518 3.56333,-7.5 6.43932,-23.77282 33.19564,-53.76899 53.57658,-60.06402 7.47283,-2.30812 18.55622,-2.66182 22.35063,-0.71326 2.27625,1.16893 2.49152,1.83583 2.40524,7.45147 -0.0738,4.80542 -0.64833,7.00336 -2.60114,9.95143 -4.04904,6.11268 -12.38689,14.05762 -19.5945,18.67114 -6.31796,4.04406 -21.40409,11.0353 -27.09949,12.55848 -1.41727,0.37904 -3.39739,2.09412 -4.40027,3.81129 -2.11254,3.61716 -2.52608,12.55444 -0.68363,14.77445 1.47618,1.77869 9.20571,1.96031 14.07457,0.3307 6.72318,-2.25025 19.44429,-10.49307 26.59558,-17.23296 6.52693,-6.15145 8.78246,-9.43332 21.54685,-31.35146 7.84123,-13.46444 16.58318,-28.37263 19.42654,-33.12932 2.84336,-4.7567 6.35485,-10.67354 7.80331,-13.14854 4.22783,-7.22416 6.95195,-8.46419 23.37914,-10.6423 4.10711,-0.54457 4.31373,-0.45586 3.66911,1.57515 -0.3757,1.18372 -4.99353,9.44558 -10.26184,18.35968 -5.26832,8.91411 -13.14936,22.28247 -17.51342,29.70747 -4.36406,7.425 -10.37023,17.55 -13.34703,22.5 -11.18218,18.59435 -12.78153,23.49927 -8.14902,24.99152 1.2375,0.39863 2.62095,0.66496 3.07433,0.59185 1.12366,-0.18119 -0.15632,1.77118 -3.76903,5.74897 C 341.13304,854.70147 335.34608,857 327.50941,857 c -5.67441,0 -6.94465,-0.34433 -9.05486,-2.45455 -1.97677,-1.97676 -2.46047,-3.48531 -2.48496,-7.75 -0.0217,-3.77849 -0.2989,-4.83612 -0.96768,-3.69199 -1.36988,2.34355 -10.64818,9.23846 -17.07479,12.68864 -8.57553,4.60386 -23.44177,9.2079 -29.73191,9.2079 -5.84811,0 -11.33415,-2.52257 -13.24304,-6.08938 -1.28245,-2.39628 -2.45092,-2.40186 -5.7978,-0.0277 -3.11806,2.21184 -8.88818,5.58485 -15.07385,8.81164 C 230.59551,869.51253 228.05238,870 222.05303,870 213.5637,870 210,868.40634 210,864.60996 c 0,-3.80959 -1.08021,-3.72905 -6.07519,0.45299 -5.53025,4.63019 -15.42302,9.90591 -18.60971,9.92438 -1.2017,0.007 -3.2267,0.39522 -4.5,0.86278 -1.27331,0.46757 -3.6651,0.47469 -5.3151,0.0159 z m 27.14047,-15.04322 c 2.39774,-1.19749 4.35953,-2.54749 4.35953,-3 0,-0.4525 0.62809,-0.82274 1.39575,-0.82274 1.56455,0 2.53848,-1.49639 19.01926,-29.222 12.94226,-21.77276 13.94351,-25.00038 7.93641,-25.58379 -7.58892,-0.73705 -17.72854,6.49686 -27.74546,19.79444 -7.85484,10.42738 -16.51865,26.94148 -17.3376,33.04723 -1.05299,7.85067 3.74561,10.09515 12.37211,5.78686 z m 96.9982,-39.07548 c 8.27376,-4.22355 14.06285,-8.93133 19.20241,-15.61572 4.14993,-5.3973 6.76861,-12.10032 5.75707,-14.73635 -1.4546,-3.79063 -10.84281,0.10304 -19.33212,8.01781 C 299.04385,805.21408 287,821.87736 287,824.68499 c 0,2.21473 4.67301,1.12854 12.63867,-2.93773 z"
           id="path117" />
      </g>
      <g
         id="g123"
         inkscape:label="Circunferencia">
        <path
           style="fill:#302e2c"
           d="M 1019.153,461.70485 C 1018.0781,459.94218 1016.1602,456.25 1014.8911,453.5 1008.5877,439.8422 982.14182,398.84069 973.28864,389 970.03858,385.38741 968,382.63243 968,381.8528 c 0,-0.46265 -2.125,-2.9813 -4.72222,-5.59699 -2.59722,-2.6157 -6.17668,-6.6453 -7.95436,-8.95468 -4.19906,-5.45497 -24.4528,-25.66239 -30.84992,-30.77936 -2.73543,-2.18803 -6.7735,-5.62367 -8.9735,-7.63475 -2.2,-2.01109 -8.95,-7.53772 -15,-12.2814 -6.05,-4.74369 -11.54351,-9.07055 -12.20779,-9.61526 C 887.62792,306.44566 886.66356,306 886.1492,306 c -0.51437,0 -1.19424,-0.675 -1.51083,-1.5 -0.31658,-0.825 -1.22722,-1.5 -2.02365,-1.5 -0.79643,0 -1.61198,-0.49179 -1.81234,-1.09287 -0.20036,-0.60107 -2.44027,-2.28857 -4.97759,-3.75 -11.13846,-6.41545 -15.74614,-9.31318 -19.30106,-12.13827 C 854.43442,284.35849 852.27748,283 851.73053,283 c -0.54695,0 -2.61493,-1.0015 -4.59549,-2.22556 -1.98057,-1.22406 -4.20614,-2.31437 -4.94571,-2.42292 -2.331,-0.34211 -7.86206,-3.25226 -9.16488,-4.82206 -0.68808,-0.82909 -1.59673,-1.29381 -2.01921,-1.0327 -0.42248,0.26111 -2.39649,-0.63029 -4.38669,-1.98087 C 824.62835,269.1653 823,268.28617 823,268.56227 c 0,0.2761 -1.92613,-0.57335 -4.28029,-1.88766 C 812.90413,263.4278 794.23815,256 791.89454,256 790.85254,256 790,255.55 790,255 c 0,-0.55 -0.79987,-1 -1.77749,-1 -0.97763,0 -2.66513,-0.61301 -3.75,-1.36224 -1.08488,-0.74924 -4.11001,-1.67681 -6.72251,-2.06128 -2.6125,-0.38446 -4.75,-1.14801 -4.75,-1.69677 0,-0.54876 -0.37369,-0.76679 -0.83043,-0.48451 -1.10553,0.68325 -11.18305,-2.00868 -12.51829,-3.34392 -0.5782,-0.5782 -2.24214,-1.05128 -3.69764,-1.05128 -1.4555,0 -4.03877,-0.69462 -5.7406,-1.54361 -1.70183,-0.84898 -5.03347,-1.6848 -7.40364,-1.85738 -2.37017,-0.17257 -5.57619,-0.82795 -7.1245,-1.45639 -1.5483,-0.62844 -4.6983,-1.15832 -7,-1.17751 -2.30169,-0.0192 -7.7849,-0.69852 -12.1849,-1.50962 -34.45193,-6.35092 -87.63136,-7.2183 -121,-1.97354 -18.02534,2.83315 -28.06416,4.60839 -31,5.48197 -3.15337,0.93831 -18.28442,4.41421 -20,4.59439 -4.51214,0.47391 -38.83692,12.09252 -50,16.92452 -1.65,0.71421 -5.35209,2.25578 -8.22687,3.42572 -2.87478,1.16993 -10.07478,4.53209 -16,7.47147 -5.92522,2.93938 -11.44813,5.65282 -12.27313,6.02986 -0.825,0.37705 -3.15002,1.67657 -5.16671,2.88783 -2.01669,1.21126 -5.61669,3.26583 -8,4.56572 -2.38331,1.29988 -6.72468,3.99988 -9.64748,6 -2.92281,2.00011 -6.22319,4.14695 -7.33419,4.77075 -1.11099,0.62381 -2.52211,1.63631 -3.1358,2.25 -0.6137,0.6137 -1.67764,1.11582 -2.3643,1.11582 -0.68666,0 -2.48464,1.14563 -3.9955,2.54585 -4.74157,4.39435 -8.63242,5.74881 -13.01685,4.53135 -2.11154,-0.58632 -6.76417,-1.07545 -10.33917,-1.08694 -3.575,-0.0115 -7.05557,-0.37377 -7.73459,-0.80507 -1.79517,-1.14024 0.77105,-4.43011 6.52909,-8.37022 2.58802,-1.77093 5.30014,-3.80377 6.02693,-4.51742 C 400.54821,291.5839 401.52857,291 402,291 c 0.47143,0 1.45179,-0.58082 2.17857,-1.29071 6.71548,-6.55937 56.07905,-34.87506 73.32143,-42.05828 25.68594,-10.70083 47.89773,-18.61359 58,-20.66203 3.3,-0.66914 8.025,-1.80026 10.5,-2.5136 2.475,-0.71334 9,-2.27118 14.5,-3.46187 5.5,-1.19068 12.72875,-2.80582 16.06389,-3.58919 3.33514,-0.78338 7.61014,-1.42683 9.5,-1.4299 1.88986,-0.003 5.01111,-0.42216 6.93611,-0.93131 14.84075,-3.92533 94.7054,-4.01785 115.5,-0.1338 2.75,0.51365 7.7,1.3811 11,1.92767 15.71385,2.60263 56.84915,12.44356 59,14.11476 0.55,0.42734 2.35,1.01107 4,1.29717 4.86949,0.84433 41.3852,15.262 42.5,16.78047 0.275,0.37458 1.625,0.99499 3,1.37869 6.16585,1.7206 41.55099,20.94237 54.29978,29.49651 5.38988,3.61648 10.52932,7.02542 11.42097,7.57542 0.89165,0.55 2.33175,1.52737 3.20021,2.17194 26.40102,19.59443 45.80398,36.10275 61.62284,52.42961 10.84274,11.19093 15.15058,16.18907 30.74332,35.66969 7.88264,9.8481 25.29788,34.63647 27.56038,39.22876 1.6765,3.40283 3.5139,6.51415 4.8091,8.14335 0.5932,0.74616 2.4354,3.83165 4.0939,6.85665 7.8679,14.35116 10.2495,19.34697 10.2495,21.49972 0,1.28349 0.5625,2.56059 1.25,2.838 0.7467,0.30132 0.5454,0.53617 -0.5,0.58333 -0.9625,0.0434 -1.75,0.4582 -1.75,0.92173 0,0.86659 -6.4099,4.35242 -11.1963,6.08878 -2.4237,0.87922 -2.894,0.65402 -4.6507,-2.22671 z"
           id="path123" />
        <path
           style="fill:#302e2c"
           d="m 630.5,1087.4869 c -0.55,-0.1954 -7.975,-0.8617 -16.5,-1.4806 -34.12314,-2.4775 -61.77894,-8.014 -98.5,-19.7192 -33.77988,-10.7677 -78.27885,-32.7659 -105.5,-52.1545 -2.475,-1.7628 -6.29563,-4.3877 -8.49028,-5.8331 -19.00439,-12.51613 -50.86937,-41.23718 -74.00972,-66.70761 -7.78534,-8.56927 -32.86688,-41.57721 -39.10554,-51.46387 l -3.10553,-4.92147 5.10553,-2.21726 c 2.80805,-1.21949 5.88693,-2.61597 6.84197,-3.10327 0.95504,-0.48731 2.86754,-0.88602 4.25,-0.88602 1.38246,0 2.51357,-0.50953 2.51357,-1.13228 0,-0.62276 2.36913,2.41474 5.26472,6.75 4.93788,7.39293 8.64731,12.69074 11.42924,16.32326 14.77309,19.29004 22.67975,28.36821 38.64557,44.37159 24.83379,24.89223 33.23783,32.09568 56.46351,48.39726 19.29369,13.54177 50.55153,31.32797 67.69696,38.52067 2.2,0.9229 9.175,3.8905 15.5,6.5948 6.325,2.7042 15.55,6.1347 20.5,7.6232 4.95,1.4886 10.125,3.1033 11.5,3.5883 1.375,0.4849 7,1.9944 12.5,3.3543 5.5,1.3599 12.7,3.2031 16,4.096 22.30748,6.0358 61.12163,10.5139 91,10.4989 17.78913,-0.01 39.43935,-1.5293 58,-4.073 7.03629,-0.9642 11.77373,-1.8672 31.44753,-5.9936 2.44613,-0.513 5.82113,-1.3675 7.5,-1.8989 1.67886,-0.5314 6.20247,-1.83 10.05247,-2.8859 3.85,-1.0559 10.6,-2.9072 15,-4.114 4.4,-1.2069 10.475,-3.0883 13.5,-4.181 3.025,-1.0927 6.94624,-2.4203 8.71387,-2.9502 1.76762,-0.5299 3.48168,-1.3968 3.80901,-1.9264 0.32734,-0.5297 1.21699,-0.963 1.97701,-0.963 0.76002,0 5.12096,-1.7463 9.69098,-3.8807 4.57002,-2.1343 9.43413,-4.2111 10.80913,-4.615 4.92989,-1.4483 19.00024,-8.8739 37,-19.5266 0.825,-0.4883 3.975,-2.3248 7,-4.0812 14.71933,-8.54651 43.64924,-30.15732 57.31083,-42.81156 3.40404,-3.15304 7.7322,-7.04954 9.61814,-8.65887 4.82672,-4.11883 10.38409,-9.79759 19.07103,-19.48761 4.125,-4.60131 8.175,-9.05941 9,-9.90688 0.825,-0.84747 4.65635,-5.36377 8.5141,-10.03622 27.69231,-33.54045 54.2315,-80.12966 68.0697,-119.49536 12.7282,-36.20807 16.8697,-53.09421 22.3985,-91.3259 1.3075,-9.04186 3.743,-55.20168 3.401,-64.45951 l -0.2507,-6.78542 9.6837,0.28542 9.6837,0.28541 -0.1456,28 c -0.1561,30.00358 -1.8477,46.57481 -7.8678,77.07327 C 1060.5138,805.29469 1027.917,874.26209 985.13746,926.5 961.88142,954.89782 946.7945,970.01938 919,992.78934 c -10.29985,8.43786 -12.9168,10.33856 -32.14757,23.34886 -31.95269,21.6171 -69.69875,39.8292 -106.35243,51.314 -18.38513,5.7607 -30.27794,9.0494 -39.62201,10.9566 -4.19211,0.8557 -8.24211,1.7708 -9,2.0337 -3.19603,1.1087 -30.70264,4.6088 -47.3631,6.0268 -15.75279,1.3407 -51.22404,2.009 -54.01489,1.0176 z"
           id="path2" />
      </g>
    </g>
  </g>
</svg>
