<?xml version="1.0" encoding="UTF-8" standalone="no"?>
<!-- Created with Inkscape (http://www.inkscape.org/) -->

<svg
   version="1.1"
   id="svg1"
   width="1264"
   height="1000"
   viewBox="0 0 1264 1000"
   sodipodi:docname="logoConFondoMarron.svg"
   inkscape:export-filename="logoConFondoMarron.png"
   inkscape:export-xdpi="96"
   inkscape:export-ydpi="96"
   inkscape:version="1.4 (86a8ad7, 2024-10-11)"
   xmlns:inkscape="http://www.inkscape.org/namespaces/inkscape"
   xmlns:sodipodi="http://sodipodi.sourceforge.net/DTD/sodipodi-0.dtd"
   xmlns="http://www.w3.org/2000/svg"
   xmlns:svg="http://www.w3.org/2000/svg">
  <defs
     id="defs1" />
  <sodipodi:namedview
     id="namedview1"
     pagecolor="#505050"
     bordercolor="#eeeeee"
     borderopacity="1"
     inkscape:showpageshadow="0"
     inkscape:pageopacity="0"
     inkscape:pagecheckerboard="0"
     inkscape:deskcolor="#505050"
     inkscape:zoom="0.25"
     inkscape:cx="396"
     inkscape:cy="466"
     inkscape:window-width="1366"
     inkscape:window-height="705"
     inkscape:window-x="-8"
     inkscape:window-y="-8"
     inkscape:window-maximized="1"
     inkscape:current-layer="g1" />
  <g
     inkscape:groupmode="layer"
     inkscape:label="Image"
     id="g1">
    <g
       id="g2"
       transform="translate(2.0932401,5.9856364)">
      <g
         id="g172"
         inkscape:label="Fondo Marron"
         transform="translate(0,-156)">
        <path
           style="fill:#9c6c3e;fill-opacity:1"
           d="m 526,535.91565 c 0,-0.67052 1.97075,-4.63834 4.37944,-8.81739 8.88792,-15.42039 16.38675,-30.75488 17.09781,-34.9636 0.63712,-3.77107 0.26912,-5.26325 -2.85882,-11.59221 -3.32546,-6.72861 -3.96948,-7.42169 -8.7376,-9.40323 -7.40699,-3.07821 -11.82218,-2.71563 -32.71616,2.68668 -10.26557,2.65425 -21.13967,5.40616 -24.16467,6.11535 -3.025,0.7092 -8.24293,2.72368 -11.59541,4.47664 l -6.09541,3.18719 -1.10983,-4.05254 C 458.56623,477.58928 451.0059,465.358 444.714,458.5 c -3.0276,-3.3 -8.93657,-8.475 -13.13104,-11.5 -6.72306,-4.84859 -7.5585,-5.7961 -7.05382,-8 0.31487,-1.375 0.81451,-4.75 1.11031,-7.5 1.3738,-12.77201 -12.37868,-27.46184 -25.73607,-27.49023 -3.3604,-0.007 -6.31877,0.92295 -11,3.45833 -10.837,5.86936 -23.30872,11.91331 -25.25769,12.24019 -1.80574,0.30285 -1.80574,0.23431 0,-2.61707 2.62196,-4.14023 13.14179,-15.90587 15.74924,-17.61433 1.61141,-1.05584 3.09329,-1.19614 5.64503,-0.53446 1.90302,0.49346 7.06004,1.09929 11.46004,1.34629 6.0878,0.34174 9.07561,1.04719 12.5,2.95135 2.475,1.37625 7.50282,3.24755 11.17294,4.15845 9.78894,2.42955 17.02864,5.07508 21.43321,7.83214 2.14162,1.34056 7.11772,3.66164 11.058,5.15798 3.94029,1.49633 11.56102,5.6604 16.93497,9.25348 5.37395,3.59309 12.05008,7.42998 14.83585,8.52644 4.29255,1.68952 9.51239,5.68579 21.01401,16.08815 4.62643,4.18426 11.75721,6.74329 18.79027,6.74329 6.4024,0 7.18437,0.2531 12.05366,3.90146 2.8639,2.1458 10.15709,6.48111 16.20709,9.63402 6.05,3.1529 13.475,7.85957 16.5,10.45925 6.9887,6.00609 10.9314,8.01087 15.70034,7.98331 C 595.67999,492.91458 606,482.0819 606,470.62027 c 0,-10.30211 -6.19615,-31.36746 -12.12282,-41.21449 -3.60004,-5.9814 -12.94758,-16.09634 -19.13059,-20.70113 -3.69585,-2.75249 -3.74398,-2.87552 -3.13883,-8.0244 1.38865,-11.81524 -8.86069,-23.39872 -26.7535,-30.23594 C 541.08442,369.00377 538,367.48151 538,367.0615 c 0,-0.42001 -2.1375,-3.02069 -4.75,-5.7793 -4.94098,-5.2173 -10.33253,-8.38128 -23.58332,-13.83965 -4.30832,-1.77472 -8.92424,-4.17532 -10.2576,-5.33466 C 498.07572,340.94855 496.78301,340 496.5364,340 c -0.24661,0 -2.60569,-1.24448 -5.24239,-2.76552 -6.70443,-3.86758 -14.95984,-7.00396 -20.48537,-7.78276 -4.47161,-0.63025 -4.61214,-0.74576 -3,-2.46592 0.93025,-0.99259 8.89136,-5.41926 17.69136,-9.83704 43.60407,-21.89016 80.14837,-32.72524 127,-37.65443 16.31044,-1.716 55.07867,-1.97115 71.07632,-0.46779 15.63705,1.46947 40.88582,5.57897 55.42368,9.02078 24.24341,5.73957 66.55381,22.81171 91.5,36.92001 10.33721,5.84621 36.24205,23.66073 47.5,32.66533 35.10224,28.07631 65.9245,63.87881 88.32149,102.59241 l 2.7336,4.72507 -3.71919,1.55398 c -5.58961,2.33549 -6.76964,2.50229 -20.8359,2.94526 -7.15,0.22517 -16.15,0.86403 -20,1.41968 -3.85,0.55565 -11.23842,1.52081 -16.41872,2.14479 -13.55094,1.63226 -20.69328,5.65095 -24.36479,13.70905 -1.39032,3.05142 -4.29619,2.86458 -9.41487,-0.60536 C 869.5834,482.91907 855.43687,479 848.6097,479 c -5.70928,0 -22.37918,3.30271 -29.98525,5.94079 -9.15472,3.17523 -25.51185,11.61848 -32.11805,16.57876 -7.8462,5.89133 -9.09968,6.22002 -12.35025,3.23851 -7.02358,-6.44221 -16.71803,-9.77204 -28.36167,-9.7416 -7.78935,0.0204 -24.12917,2.97659 -32.79448,5.93323 -11.0144,3.75816 -30.15273,13.44417 -37.30296,18.87922 -3.74162,2.8441 -6.95534,5.17109 -7.14159,5.17109 -0.18625,0 -0.60219,-1.0125 -0.92432,-2.25 -0.76095,-2.9233 -6.28361,-8.72432 -10.65883,-11.19607 -2.29392,-1.29593 -5.28672,-1.93386 -8.95851,-1.90954 -6.29517,0.0417 -22.76787,1.81814 -25.01379,2.69754 -0.825,0.32303 -4.65,0.80432 -8.5,1.06953 -3.85,0.26521 -9.925,1.19402 -13.5,2.06403 -3.575,0.87001 -12.125,2.19337 -19,2.9408 -14.50434,1.57688 -30.70906,6.47147 -43.5,13.13907 -9.67971,5.04579 -12.5,6.02957 -12.5,4.36029 z"
           id="path150" />
        <path
           style="fill:#9c6b3e"
           d="m 420.99023,743.85388 c -0.005,-1.29463 -1.21349,-4.82888 -2.68471,-7.85388 -4.2006,-8.63691 -4.18704,-8.66683 5.2296,-11.53908 4.76945,-1.45477 12.09935,-4.83314 17.33692,-7.99064 4.99069,-3.00865 9.92544,-5.47028 10.96611,-5.47028 1.04067,0 2.96532,0.8328 4.27699,1.85067 1.31167,1.01787 3.05986,2.076 3.88486,2.35141 0.99951,0.33366 -0.13865,1.46789 -3.4111,3.39933 -11.62762,6.86276 -20.0647,13.0023 -27.56786,20.06074 -6.9644,6.55161 -8.02233,7.23553 -8.03081,5.19173 z"
           id="path149" />
        <path
           style="fill:#9c6c3e;fill-opacity:1"
           d="m 335,762.39569 c -1.375,-0.75141 -5.425,-1.4177 -9,-1.48063 -9.6923,-0.17062 -11.37736,-0.86932 -12.04808,-4.99564 -1.49433,-9.19333 -7.08968,-15.97217 -16.79667,-20.34941 -5.21223,-2.35039 -6.00257,-4.84728 -9.66671,-30.53955 -0.82121,-5.75824 -1.69114,-11.15824 -1.93317,-12 -0.24203,-0.84175 -0.96522,-10.87233 -1.60709,-22.29018 l -1.16704,-20.75972 8.47933,-14.24028 c 4.66364,-7.83215 9.54757,-16.13054 10.85318,-18.44085 C 305.11639,611.9862 307.3482,611 316.36958,611 c 12.89626,0 38.76467,-3.00149 48.63042,-5.64254 11.2552,-3.01301 23.23178,-7.13675 31.40611,-10.81367 4.66137,-2.09675 6.07915,-2.38131 6.72717,-1.35022 1.14028,1.81435 0.23363,4.21857 -4.64088,12.30643 -2.32037,3.85 -7.14265,12.625 -10.71618,19.5 -3.57352,6.875 -7.94357,14.93913 -9.71123,17.92029 -6.28931,10.60698 -10.92142,20.80499 -14.10617,31.05601 -2.89746,9.32629 -3.1702,11.2379 -2.65168,18.58536 0.8163,11.56712 4.68501,19.50642 13.10915,26.9024 3.46803,3.04477 6.93061,5.57365 7.69461,5.61975 -18.56491,6.86127 -21.36876,2.37601 -33.14922,21.91619 -3.70249,6.325 -7.79603,12.68393 -9.09674,14.13095 -2.16795,2.41179 -2.57318,2.51714 -4.86494,1.26474 z"
           id="path148" />
        <path
           style="fill:#9c6c3e;fill-opacity:1"
           d="m 623.5,1020.97 c -21.54351,-1.9227 -54.24917,-7.8048 -75.4338,-13.5669 -18.17749,-4.9441 -53.56026,-19.96971 -74.75449,-31.74513 -16.24056,-9.02319 -28.73802,-17.14369 -41.70451,-27.09844 -4.34104,-3.33274 -9.74104,-7.45841 -12,-9.16814 C 395.17364,920.89836 362.95088,881.13807 359.63036,877 c -1.98602,-2.475 -3.61532,-5.03235 -3.62065,-5.68299 -0.005,-0.65065 2.91046,-4.14661 6.47956,-7.76881 10.04883,-10.19833 13.19846,-17.76597 11.25348,-27.03876 l -1.10105,-5.24927 5.85414,-10.38009 c 3.21978,-5.70904 6.2254,-10.53008 6.67915,-10.71341 0.45376,-0.18334 0.82501,-0.72249 0.82501,-1.19813 0,-0.73666 5.15613,-9.75166 16.42557,-28.71854 2.32084,-3.90607 5.98188,-5.93087 5.4243,-3 -0.52431,2.75597 1.43609,13.26604 2.92457,15.67917 0.87216,1.41396 2.89933,3.98829 4.50481,5.72074 3.50198,3.77892 3.29793,4.89302 -2.71976,14.85009 -15.26346,25.25546 -17.98975,31.14515 -17.11548,36.97523 0.81265,5.41913 4.55031,11.13777 9.98346,15.27477 3.99037,3.03841 4.78272,3.24869 12.17039,3.22989 7.491,-0.0191 11.14134,-0.42871 26.40214,-2.96293 11.62378,-1.93026 13.76501,-4.28126 30.5,-33.48828 3.3,-5.75938 6.45,-10.33482 7,-10.16764 0.55,0.16718 1.32843,2.91126 1.72984,6.09797 0.93597,7.43041 6.18093,18.81646 10.35667,22.4828 5.52396,4.85011 13.12786,7.06114 24.201,7.0371 9.87077,-0.0214 10.01586,-0.0561 27.35972,-6.53567 2.63158,-0.98314 4.57903,-1.09534 6.99339,-0.40291 6.11443,1.7536 16.3056,1.11281 41.35938,-2.60053 5.5,-0.81518 11.4151,-1.47262 13.14466,-1.46097 6.12948,0.0413 15.63328,-3.71798 20.10736,-7.95352 4.33197,-4.10099 5.82051,-4.8041 6.41465,-3.02994 0.7922,2.3656 11.36991,5.27532 19.33333,5.31821 15.48603,0.0834 24.8627,-4.36364 37.56017,-17.81358 8.60043,-9.1101 10.52906,-14.16972 9.35542,-24.5433 -0.7213,-6.37542 -0.55071,-6.85218 6.60388,-18.4567 7.08527,-11.4921 8.9934,-17.23661 9.22836,-27.78238 0.24589,-11.03674 -1.68047,-15.98054 -9.07692,-23.29491 -8.64287,-8.54695 -18.34879,-11.5752 -30.424,-9.4923 -3.9858,0.68752 -8.20421,1.62464 -9.37424,2.08249 -1.29511,0.50678 -2.54368,0.41609 -3.1916,-0.23183 -0.75235,-0.75235 -2.76657,-0.73192 -6.87267,0.0697 -3.19462,0.62368 -9.4084,1.40003 -13.8084,1.72523 -8.07771,0.59701 -17.00477,2.48785 -20.20735,4.2801 -1.1481,0.64251 -2.40787,0.61742 -3.69918,-0.0737 -1.36781,-0.73203 -4.39041,-0.72473 -10.02582,0.0242 -4.43721,0.58972 -15.49265,2.03626 -24.56765,3.21455 -9.075,1.17829 -17.737,2.38669 -19.24889,2.68535 -2.44748,0.48347 -2.9199,0.11814 -4.30847,-3.33177 -4.22353,-10.49336 -8.31603,-15.78435 -17.49989,-22.62478 -1.29224,-0.9625 -1.92051,-1.78225 -1.39614,-1.82166 0.52436,-0.0394 7.25339,-0.0162 14.95339,0.0515 12.50945,0.11006 14.82912,-0.14871 21.78749,-2.43049 9.33972,-3.06267 15.74249,-6.22344 24.77912,-12.2324 l 6.75291,-4.49038 4.84024,2.18359 c 10.83392,4.88755 16.70178,6.40922 24.34756,6.31388 10.23252,-0.1276 26.58671,-3.52926 40.72827,-8.47145 13.91093,-4.86158 16.82637,-6.26958 28.97852,-13.99498 5.06777,-3.22169 9.61052,-5.85762 10.09502,-5.85762 0.48449,0 1.70829,0.91426 2.71955,2.0317 2.69602,2.97906 11.17949,7.54908 17.40282,9.37484 13.77881,4.04234 38.41749,-0.35992 60.10483,-10.7391 l 4.78667,-2.29082 5.3385,2.76451 c 13.96391,5.22822 46.81575,-0.65885 61.3385,-4.20347 5.47656,-1.56411 11.02025,-7.83256 16.45499,-18.60622 2.45024,-4.85729 6.09066,-11.75644 8.08981,-15.33144 1.99916,-3.575 5.66285,-10.325 8.14155,-15 5.82993,-10.99567 20.66803,-38.12048 26.8045,-49 2.63689,-4.675 6.43869,-11.793 8.44844,-15.81777 2.00976,-4.02477 3.98043,-7.17477 4.37927,-7 10.3126,4.51896 10.5982,5.09152 6.53497,13.10101 -6.86909,13.54045 -13.35298,36.39706 -13.35336,47.07242 -5.9e-4,16.86652 10.60595,33.90124 25.70931,41.29063 5.1387,2.51413 6.96173,2.82963 18.24975,3.1583 10.33991,0.30107 14.20799,-0.0244 22.04077,-1.85471 15.8418,-3.70176 14.7109,-3.77887 15.1699,1.03426 0.604,6.33396 -0.8739,33.6829 -2.6611,49.24229 -3.2205,28.03877 -15.77101,75.4607 -25.51737,96.41722 -1.7538,3.77099 -4.03029,8.97488 -5.05886,11.56419 -7.35877,18.52472 -25.87296,49.50065 -43.82829,73.32873 -20.40303,27.07638 -51.01519,56.9381 -76.48723,74.61219 -12.33271,8.55721 -27.26394,18.39057 -30.14261,19.85124 -1.62591,0.825 -7.4603,3.99185 -12.96532,7.03745 -19.20193,10.62328 -56.05254,25.44861 -73.39249,29.52651 -42.51278,9.9979 -58.99842,12.3441 -90.61663,12.8966 -12.65,0.221 -27.5,2e-4 -33,-0.4906 z"
           id="path3" />
      </g>
      <g
         id="g171"
         inkscape:label="Letras"
         transform="translate(0,-156)">
        <path
           style="fill:#9c6c3e;fill-opacity:1"
           d="m 379.79156,346.65637 c -5.44003,-1.72109 -6.25372,-2.86738 -4.46593,-6.29147 C 378.62372,334.04816 388.77019,328 396.06914,328 c 3.38235,0 9.34147,2.23733 10.36345,3.89092 0.98038,1.58629 -8.16029,10.32587 -13.43259,12.84317 -6.08954,2.9075 -8.83256,3.30671 -13.20844,1.92228 z"
           id="path171" />
        <path
           style="fill:#9c6c3e;fill-opacity:1"
           d="m 419.97888,355.2084 c -2.48662,-0.93962 -5.41162,-2.24783 -6.5,-2.90712 -1.84383,-1.11689 -1.87427,-1.38988 -0.44602,-4 0.84308,-1.54071 3.97317,-4.26379 6.95577,-6.05129 4.66628,-2.79655 6.35003,-3.25 12.06791,-3.25 7.40085,0 12.94346,1.50728 12.94346,3.5199 0,1.75521 -7.2302,7.8834 -13.62173,11.54553 -5.93902,3.40286 -5.52796,3.36164 -11.39939,1.14298 z"
           id="path170" />
        <path
           style="fill:#9c6c3e;fill-opacity:1"
           d="m 459,368.33906 c -4.91093,-1.7831 -9.90146,-4.63989 -10.40706,-5.95745 -0.9891,-2.57757 1.24148,-5.26401 6.6438,-8.00158 4.51771,-2.28929 6.05731,-2.56 12.28624,-2.16025 6.73346,0.43213 13.47702,2.9558 13.47702,5.04358 0,1.69619 -5.66588,6.03567 -10.9381,8.37748 -6.31839,2.80648 -8.97742,3.45507 -11.0619,2.69822 z"
           id="path169" />
        <path
           style="fill:#9c6c3e;fill-opacity:1"
           d="m 361.5,373.59582 c -11.08151,-3.51945 -23.8053,-13.18482 -27.54416,-20.92336 -1.94642,-4.02862 -1.94606,-4.06121 0.09,-8.2671 1.12425,-2.3224 3.10555,-5.27618 4.40289,-6.56395 3.25785,-3.23383 12.77941,-8.8539 16.75727,-9.89092 1.81171,-0.47231 5.22572,-1.42748 7.58668,-2.1226 4.34619,-1.27961 7.11459,-0.60613 7.96231,1.93701 0.2057,0.61712 -2.92876,4.63497 -6.96548,8.92856 -4.03671,4.2936 -7.90041,8.5393 -8.58598,9.4349 -1.77198,2.31482 -0.32791,5.50938 6.6335,14.67463 10.74415,14.14551 10.68755,16.29419 -0.33701,12.79283 z"
           id="path166" />
        <path
           style="fill:#9c6c3e;fill-opacity:1"
           d="m 386.32955,376.35941 c -5.28456,-1.86656 -8.23727,-4.83288 -12.18684,-12.24305 C 369.54226,355.48504 369.72438,355 377.56574,355 c 6.94879,0 9.75178,0.97744 12.60864,4.39682 2.39819,2.8704 8.82678,15.07752 8.82068,16.74941 -0.007,1.91424 -7.49278,2.04023 -12.66551,0.21318 z"
           id="path165" />
        <path
           style="fill:#9c6c3e;fill-opacity:1"
           d="M 488.38362,383.54506 C 483.54018,381.26019 479,377.66572 479,376.11603 c 0,-1.07468 2.66105,-3.28332 7.322,-6.07717 5.41218,-3.24416 14.7845,-3.2676 21.64536,-0.0541 3.33144,1.56037 5.03264,2.97121 5.03264,4.17368 0,1.81745 -4.31066,4.98154 -11.01502,8.08521 -7.98748,3.69768 -8.43178,3.74019 -13.60136,1.30146 z"
           id="path162" />
        <path
           style="fill:#9c6c3e;fill-opacity:1"
           d="m 424.58122,385.9858 c -6.1784,-2.41249 -10.56708,-6.62778 -14.03349,-13.47901 -3.35265,-6.62638 -2.53503,-8.99524 3.45397,-10.00708 6.20503,-1.04833 10.627,1.73977 14.78913,9.3247 1.86533,3.39932 3.98475,8.42946 4.70983,11.17808 l 1.31832,4.99751 -2.65949,-0.0468 c -1.46272,-0.0257 -4.87294,-0.91107 -7.57827,-1.96743 z"
           id="path159" />
        <path
           style="fill:#9c6c3e;fill-opacity:1"
           d="m 459,399.0132 c -8.73866,-1.59286 -16.33484,-11.25342 -16.44676,-20.91644 L 442.5,373.5 l 5.5,0.30193 c 8.70029,0.47761 11.61037,3.44273 14.5842,14.86002 1.56317,6.00143 1.81517,10.01522 0.6658,10.60462 -0.4125,0.21153 -2.325,0.0975 -4.25,-0.25337 z"
           id="path157" />
        <path
           style="fill:#9c6c3e;fill-opacity:1"
           d="m 526.95322,405.03023 c -5.92085,-1.74029 -14.55486,-8.72532 -13.75419,-11.12733 0.74325,-2.22975 10.8768,-4.78734 16.80097,-4.24037 9.06105,0.83659 17,4.59358 17,8.045 0,1.41628 -10.41298,6.6782 -15,7.57985 -1.375,0.27027 -3.64605,0.15456 -5.04678,-0.25715 z"
           id="path155" />
        <path
           style="fill:#9c6c3e;fill-opacity:1"
           d="M 486.5,415.14141 C 478.91894,410.46361 473.21,401.05485 472.7619,392.5 l -0.2619,-5 3.5,0.31779 c 1.925,0.17478 5.39474,1.21883 7.71054,2.3201 3.3213,1.57944 4.73114,3.10277 6.67553,7.21287 3.08106,6.51281 4.54277,17.44731 2.50485,18.73782 -2.01381,1.27524 -3.03429,1.124 -6.39092,-0.94717 z"
           id="path153" />
        <path
           style="fill:#9c6c3e;fill-opacity:1"
           d="m 517.43876,436.12575 c -4.77741,-2.91331 -10.12185,-9.81009 -11.33478,-14.62709 C 504.04311,413.31419 504.96864,405 507.94061,405 c 2.13811,0 10.66738,5.99532 12.74095,8.95576 2.64868,3.78152 3.11195,24.05361 0.54939,24.0405 -0.40202,-0.002 -2.10851,-0.84378 -3.79219,-1.87051 z"
           id="path152" />
        <path
           style="fill:#9c6c3e;fill-opacity:1"
           d="m 577.67325,463.57285 c -2.6512,-1.88493 -10.29976,-6.2623 -16.9968,-9.72748 -15.15341,-7.84069 -22.33337,-14.37802 -25.64024,-23.34537 -1.21693,-3.3 -2.28541,-7.12122 -2.37441,-8.49161 -0.15401,-2.37162 0.13613,-2.50776 6.02449,-2.82695 14.2821,-0.77419 30.83278,9.79952 38.06504,24.31856 2.70593,5.43227 7.24867,18.8549 7.24867,21.41797 0,2.8022 -0.70398,2.65252 -6.32675,-1.34512 z"
           id="path151" />
        <path
           style="fill:#302e2c"
           d="m 973.99994,624.98177 c -4.99507,-0.57524 -7.50498,-2.02607 -11.21337,-6.48177 -9.29568,-11.16895 -4.92844,-32.75825 13.55326,-67 12.30016,-22.78898 27.64347,-42.7952 42.66017,-55.62497 17.2538,-14.74107 28.2444,-20.41565 46.2406,-23.87467 13.1927,-2.53575 18.9378,-2.3602 26.0484,0.79599 3.927,1.74307 5.1509,2.94389 6.7998,6.6715 1.9417,4.38949 1.9532,4.76054 0.3358,10.78899 -3.758,14.00602 -14.6081,30.83316 -25.9489,40.24316 -2.6514,2.2 -6.4306,5.39954 -8.3982,7.11009 -10.4532,9.08755 -22.1041,15.59288 -42.0775,23.49417 -6.875,2.71969 -13.175,5.29411 -14,5.72095 -2.2905,1.18506 -6.7606,10.95324 -8.11093,17.72444 -1.49557,7.49938 -0.70841,10.83101 3.56983,15.10929 3.0942,3.09412 3.8104,3.33931 9.6911,3.31732 7.5938,-0.0284 14.4655,-2.60629 23.85,-8.94727 8.2469,-5.57236 19.0245,-16.33606 21.5568,-21.52899 6.2951,-12.90926 17.8927,-26.07411 27.3327,-31.02639 2.5358,-1.33028 5.8139,-3.50516 7.2848,-4.83306 3.5249,-3.18231 12.3295,-14.77922 17.282,-22.76287 11.161,-17.99218 14.2589,-23.19572 19.2758,-32.37768 6.4163,-11.74314 7.5709,-13.17271 12.2476,-15.16412 3.4614,-1.47393 25.4778,-8.62843 35.7703,-11.62402 6.2381,-1.81555 6.1551,-2.08818 2.7881,9.161 -4.7353,15.82036 -5.8618,25.80226 -5.2056,46.12714 1.0903,33.77035 -2.8046,47.66768 -19.0501,67.97197 -17.9056,22.37931 -44.7377,34.0165 -78.4514,34.0247 -11.0009,0.003 -14.2428,-0.32603 -16.609,-1.68406 -4.1717,-2.39423 -7.3814,-7.54752 -7.9737,-12.80202 -0.2796,-2.48082 -0.7081,-4.51059 -0.9522,-4.51059 -0.244,0 -3.328,2.44691 -6.8532,5.43757 -14.2273,12.06984 -28.7958,20.56522 -41.9429,24.45833 -7.13254,2.11207 -20.85014,3.082 -29.50006,2.08587 z m 123.40936,-31.56879 c 12.2801,-6.01299 26.4097,-22.7188 30.6064,-36.1868 1.568,-5.03186 2.3256,-11.26038 3.0078,-24.72618 0.9125,-18.01186 1.466,-22.562 4.4279,-36.39906 2.4214,-11.31217 2.2277,-11.16314 -8.3196,6.39906 -3.9637,6.6 -10.1026,16.5 -13.6419,22 -3.5393,5.5 -6.4474,10.72681 -6.4625,11.61514 -0.015,0.88833 0.8726,2.75931 1.9726,4.15773 2.4419,3.10442 2.489,4.98336 0.295,11.77674 -2.397,7.42182 -10.8609,16.40704 -18.8978,20.06166 -4.8811,2.21958 -7.3834,2.73881 -12.5,2.59369 l -6.3972,-0.18145 -0.2959,7.34366 c -0.3393,8.41797 0.9913,11.40379 6.1214,13.73612 4.6506,2.11434 13.1958,1.18241 20.0838,-2.19031 z m -71.8952,-43.28877 c 14.3009,-5.38031 25.3356,-13.00186 37.8229,-26.12382 10.6528,-11.19432 15.9352,-21.12668 16.4939,-31.01297 0.348,-6.15873 0.1795,-6.9115 -1.7819,-7.96122 -5.0883,-2.72314 -14.4434,2.27099 -26.0878,13.92671 -7.3872,7.39432 -11.8339,12.84242 -22.4836,27.54709 -4.46,6.15808 -12.1772,19.11104 -13.2563,22.25 -1.0803,3.14242 -1.0275,3.25 1.5948,3.25 1.4917,0 4.9558,-0.84411 7.698,-1.87579 z"
           id="path122" />
        <path
           style="fill:#302e2c"
           d="m 389.90157,703.24341 c -1.42914,-0.95888 -3.42945,-2.58658 -4.44514,-3.61712 -2.63876,-2.67734 -3.10992,-11.84671 -0.98868,-19.24068 2.0751,-7.23311 14.61251,-31.49362 36.18153,-70.01302 4.0429,-7.22007 7.35072,-13.37386 7.35072,-13.67508 0,-0.30123 2.6372,-5.19389 5.86045,-10.8726 3.22325,-5.6787 8.68665,-15.72491 12.14088,-22.32491 3.45423,-6.6 6.61907,-12.45 7.03298,-13 1.02837,-1.36649 4.46855,-7.53064 9.20856,-16.5 9.30816,-17.6135 17.39547,-30.98309 19.25713,-31.83505 1.1,-0.5034 5.375,-1.66952 9.5,-2.59138 10.84457,-2.42356 23.93835,-5.50328 28.11602,-6.61303 1.98881,-0.52829 3.90735,-0.96054 4.26342,-0.96054 1.11078,0 -2.16566,6.89465 -8.75224,18.41748 -6.04279,10.57149 -9.38493,16.69989 -31.67554,58.08252 -5.3326,9.9 -13.12824,24.23712 -17.32365,31.86026 C 461.43261,607.9834 458,614.44953 458,614.72945 c 0,0.27991 -1.52004,3.04279 -3.37787,6.13974 -1.85783,3.09695 -5.9826,10.58081 -9.16616,16.63081 -3.18355,6.05 -6.77711,12.5813 -7.98569,14.514 C 432.70322,659.63728 430,666.07672 430,669.80929 c 0,3.36842 0.43723,4.11123 3.34009,5.67453 3.8635,2.08063 7.17932,1.69589 15.73943,-1.82624 8.66646,-3.56588 12.41057,-6.93765 14.9366,-13.45118 8.62232,-22.23326 12.00264,-29.32874 21.77469,-45.7064 20.06047,-33.62074 44.57895,-56.71573 70.99676,-66.87484 16.76474,-6.44697 17.95074,-6.75312 26.62169,-6.87186 6.64517,-0.091 9.29174,0.3053 12.12177,1.81514 3.9864,2.12677 3.85361,2.19537 8.34374,-4.31023 1.10613,-1.60263 2.96255,-2.11753 9.5,-2.63493 16.56921,-1.31134 27.20234,-2.42491 29.91802,-3.13319 2.72585,-0.71093 2.59615,-0.34795 -5.41022,15.14076 -4.51166,8.72803 -9.27257,17.57408 -10.57979,19.65788 -1.30722,2.0838 -5.1085,9.0588 -8.44727,15.5 -3.33878,6.4412 -7.75901,14.63627 -9.82274,18.21127 -2.06373,3.575 -5.90917,10.55 -8.54541,15.5 -16.73841,31.42921 -17.23918,32.79002 -13.38731,36.37858 3.97048,3.69907 10.81761,2.78091 22.39995,-3.00372 8.60187,-4.29608 9.5,-4.97879 9.5,-7.22139 0,-3.01106 7.96864,-23.95793 13.46635,-35.39848 6.25576,-13.01805 15.36482,-27.83532 23.82499,-38.75499 6.37934,-8.23392 20.7088,-22.37006 28.70866,-28.32136 28.11752,-20.91733 68.44122,-30.11824 76.7072,-17.50276 2.01401,3.07377 1.13746,10.06094 -1.97067,15.7087 -2.25508,4.09767 -2.29497,4.11782 -9.25069,4.67185 -3.84221,0.30604 -7.17144,0.42044 -7.39828,0.25423 -0.22684,-0.16622 0.11066,-1.45028 0.75,-2.85349 C 744.4769,539.05397 745,536.36244 745,534.476 c 0,-9.16374 -12.26618,-7.79162 -26.994,3.0196 -20.54189,15.07913 -47.65659,59.14964 -55.37585,90.0044 -1.85345,7.40841 -1.29842,10.43814 2.72863,14.89476 l 3.14122,3.47629 9,-0.83053 c 13.19552,-1.21771 27.32232,-7.28634 42.8211,-18.39521 8.56081,-6.13603 10.21933,-8.17007 13.18085,-16.16531 5.99594,-16.18728 18.91735,-39.28356 33.49364,-59.86795 5.3154,-7.50633 25.26086,-26.79213 33.40399,-32.29922 19.54865,-13.22051 46.05259,-20.46709 58.07058,-15.87737 6.38571,2.43872 10.53633,7.51542 10.50539,12.84934 -0.15751,27.15945 -33.04467,60.7337 -75.24634,76.81841 C 788.10598,594.24644 782.52415,596 781.32515,596 c -5.63902,0 -12.75986,18.53878 -10.90946,28.40227 0.35496,1.89209 2.05099,4.79437 3.80238,6.50667 2.77946,2.71744 3.84497,3.09106 8.81522,3.09106 16.14804,0 38.51326,-13.40219 61.7446,-37 9.25983,-9.40591 8.46847,-8.09994 36.96078,-60.99554 5.1832,-9.62255 9.77901,-17.94755 10.2129,-18.5 0.43389,-0.55245 2.93435,-5.16337 5.55658,-10.24648 2.62223,-5.08311 5.26813,-9.63393 5.87977,-10.11293 C 904.92799,495.93896 945,490.45921 945,491.4547 c 0,0.094 -1.125,2.50301 -2.5,5.35324 -1.375,2.85024 -2.5,5.40946 -2.5,5.68716 0,1.33041 3.03831,0.1447 8.5,-3.31716 12.15485,-7.70428 25.38068,-12.92645 35.08919,-13.85483 5.75478,-0.55031 6.27651,-0.41489 9.5,2.46581 2.93434,2.62228 3.39722,3.65317 3.31352,7.37958 -0.13464,5.99481 -4.0949,13.20536 -11.06429,20.14504 -8.49072,8.45455 -14.90127,11.87192 -21.5536,11.48993 L 958.5,526.5 958,519.39912 c -0.66446,-9.43648 -1.58118,-10.47418 -7.8227,-8.85515 -12.61824,3.27313 -21.62125,10.78201 -27.55564,22.98254 -2.13309,4.38542 -5.33316,10.44849 -7.11127,13.47349 -1.7781,3.025 -6.05067,10.9 -9.4946,17.5 -3.44393,6.6 -6.61017,12.45 -7.0361,13 -0.42593,0.55 -4.69697,8.425 -9.4912,17.5 -4.79423,9.075 -10.17742,18.975 -11.96265,22 -1.78523,3.025 -5.39154,9.55 -8.01401,14.5 -5.78754,10.92415 -7.09423,12.5 -10.36492,12.5 -3.33457,0 -17.37701,1.78271 -28.5213,3.62082 -4.88092,0.80505 -9.03266,1.30546 -9.22609,1.11203 -0.19343,-0.19343 0.46411,-1.89995 1.4612,-3.79227 0.9971,-1.89232 4.58236,-8.70398 7.96724,-15.13703 5.87841,-11.17204 6.71087,-14.74502 2.56728,-11.01897 -17.07201,15.35171 -37.39298,27.6987 -56.39524,34.26566 -8.07397,2.79027 -11.26634,3.34902 -21.26709,3.72226 -13.24563,0.49435 -15.99736,-0.27294 -21.36292,-5.95681 C 729.84575,646.02305 729,643.85749 729,637.06574 c 0,-7.36294 -1.03672,-7.67618 -6.54705,-1.97813 -7.33688,7.58682 -25.9033,20.64313 -37.95295,26.68933 C 673.39756,667.34786 650.70977,673 639.45046,673 c -11.02374,0 -18.71601,-4.69335 -19.98296,-12.19238 -0.36675,-2.17078 -1.30812,-4.19297 -2.09193,-4.49374 -1.29808,-0.49812 -5.7222,1.97626 -10.87557,6.08264 -7.93623,6.32386 -23.97428,15.81459 -33.78393,19.99207 -5.15442,2.19504 -22.59169,2.24421 -26.78545,0.0755 C 542.21279,680.54156 537,673.47055 537,670.34996 c 0,-3.16121 -0.80408,-2.97663 -5.5,1.26255 -2.2,1.98602 -6.475,5.47317 -9.5,7.74922 -3.025,2.27605 -6.02005,4.62618 -6.65567,5.22251 -2.10398,1.97394 -15.73807,8.29479 -22.34433,10.35897 -8.83546,2.76072 -18.64308,2.73195 -24.01962,-0.0705 C 463.99051,692.27189 460,686.67079 460,682.26787 460,680.47054 459.53647,679 458.96992,679 c -0.56654,0 -6.6996,3.88285 -13.62902,8.62856 -6.92943,4.7457 -16.80854,10.5957 -21.95359,13 -9.23252,4.31437 -9.49518,4.37135 -20.12097,4.36485 -8.57007,-0.005 -11.2964,-0.36223 -13.36477,-1.75 z m 138.7657,-39.35239 c 9.18452,-5.98395 12.72005,-10.92862 27.09284,-37.89102 1.90572,-3.575 5.74328,-10.775 8.52791,-16 2.78463,-5.225 6.03527,-11.075 7.22365,-13 1.18837,-1.925 4.12627,-7.325 6.52868,-12 2.4024,-4.675 6.01836,-11.22606 8.03547,-14.5579 4.59996,-7.59819 5.3143,-9.84464 3.9444,-12.40433 -1.63707,-3.05888 -12.69045,-2.87539 -19.52022,0.32403 -16.02456,7.50676 -36.1722,32.05515 -52.64026,64.1382 -9.61706,18.73595 -12.83419,27.18673 -13.55871,35.61618 -0.51197,5.95658 -0.34259,6.84226 1.69897,8.88382 2.05978,2.05978 2.90657,2.21407 9.23823,1.68325 5.98093,-0.50142 7.88757,-1.18182 13.42904,-4.79223 z m 267.95969,-83.0601 c 21.76713,-8.76176 40.70004,-25.19411 49.89094,-43.30162 4.25811,-8.38915 5.75842,-17.28651 3.39509,-20.13414 -2.19267,-2.642 -10.56811,-1.41654 -16.03759,2.34656 -12.64628,8.70087 -35.54823,37.21655 -46.28346,57.62849 -4.042,7.68543 -2.71927,8.19208 9.03502,3.46071 z"
           id="path121" />
        <path
           style="fill:#302e2c"
           d="m 86.502229,740.4246 c -6.554867,-3.41781 -9.499494,-7.94754 -9.507175,-14.62494 -0.0081,-7.02367 2.958834,-13.74653 8.578533,-19.43846 4.211139,-4.26527 6.038722,-5.3548 10.751261,-6.40942 7.684332,-1.71967 15.117352,0.0229 20.782832,4.87238 l 4.08935,3.50034 -0.53791,7.58775 c -0.29586,4.17326 -0.84127,9.05025 -1.21202,10.83775 -0.66263,3.19469 -0.61218,3.25 2.96438,3.25 5.05149,0 13.96807,-3.31251 20.54939,-7.6341 5.59402,-3.67328 25.10491,-22.76962 32.60373,-31.91099 18.57532,-22.64408 32.95492,-46.74082 60.38362,-101.18842 8.32472,-16.52505 13.70047,-26.54438 23.48241,-43.76649 3.79314,-6.67822 19.32557,-29.38851 21.54404,-31.5 0.28893,-0.275 2.30131,-2.75 4.47196,-5.5 2.17065,-2.75 14.25244,-15.43381 26.84842,-28.18624 12.6123,-12.76894 22.60642,-23.66417 22.24436,-24.25 -1.47359,-2.38431 -24.63411,-0.48273 -48.67567,3.99649 -7.71463,1.43732 -39.48601,10.12319 -49.86374,13.63208 -16.41957,5.55173 -42.84541,17.65171 -46.99634,21.51888 -1.74912,1.62956 -1.79652,2.11235 -0.54357,5.53701 0.75495,2.06348 2.94022,6.90178 4.85616,10.75178 5.81029,11.67553 7.68375,19.6277 7.68375,32.61484 0,16.61935 -3.87962,29.8479 -12.62574,43.05069 -9.06381,13.68238 -23.31697,24.53782 -39.87426,30.3689 -7.49073,2.63806 -22.00573,3.11619 -28.64648,0.94364 -15.96561,-5.22324 -25.820967,-16.69318 -28.950254,-33.69308 -1.396523,-7.58664 -0.423619,-15.31526 3.640064,-28.91616 5.79858,-19.40752 13.96695,-33.35962 28.29912,-48.33678 6.60568,-6.90296 9.10772,-9.08873 17.13315,-14.96745 2.20402,-1.61447 4.27347,-3.774 4.59878,-4.79896 0.63164,-1.9901 0.15014,-2.81033 -7.37109,-12.5568 C 127.2538,462.31568 123.11023,451.96131 122.31325,438 c -0.99295,-17.39399 2.48522,-27.50867 13.46008,-39.1426 9.09432,-9.64046 12.81963,-12.04811 39.22667,-25.35207 11.56816,-5.82808 20.83405,-9.65928 31,-12.81767 20.41131,-6.34144 32.62414,-9.60827 42.21629,-11.29248 20.83515,-3.65829 60.29026,-6.91349 64.4815,-5.31998 1.23553,0.46975 3.61336,2.16041 5.28406,3.75702 l 3.03764,2.90293 -3.25974,0.58909 c -1.79286,0.32399 -11.11503,1.96044 -20.71592,3.63655 -53.47011,9.33473 -73.44799,14.82028 -98.54383,27.0583 -33.47676,16.32498 -49.07396,31.21833 -51.05111,48.74735 -1.27179,11.27536 3.1199,24.0985 12.15306,35.48531 6.86099,8.64867 8.67537,8.67329 33.27119,0.45141 20.1318,-6.72965 29.59868,-8.98172 53.12686,-12.63828 24.82334,-3.85785 42.09612,-5.19259 73.5,-5.67969 23.74205,-0.36826 32.52183,-0.85564 37.5,-2.0817 6.78114,-1.67011 27.7029,-11.10322 36.1401,-16.29468 5.30313,-3.26304 8.34206,-3.80067 9.17747,-1.62361 0.69173,1.80261 -1.27038,4.60742 -9.05564,12.94492 -3.64609,3.90472 -6.24585,7.54534 -6.06983,8.5 0.20553,1.11469 2.80146,2.44041 7.8079,3.98745 16.14271,4.98825 24.17502,9.45888 32.77614,18.24256 6.80085,6.9452 10.9065,14.30411 13.33218,23.89637 1.92995,7.6319 2.00654,9.04807 0.86311,15.95929 -4.66182,28.17738 -26.98256,52.39025 -59.53611,64.58298 -24.07183,9.01595 -36.23569,11.60164 -54.4558,11.57573 -11.3777,-0.0162 -30.69304,2.60129 -34.80016,4.71586 -3.4825,1.79298 -5.61796,4.95051 -15.69683,23.20964 -5.18008,9.38435 -18.60869,29.87116 -21.77339,33.21767 -0.66696,0.70528 -2.4194,3.08233 -3.89431,5.28233 -1.47491,2.2 -4.39912,5.86546 -6.49824,8.14547 -2.09912,2.28002 -6.74159,7.43437 -10.31659,11.45412 -13.08505,14.7129 -36.73141,34.51776 -53.04605,44.42838 -11.81972,7.1801 -39.91466,17.22451 -58.55341,20.93381 -15.30469,3.04579 -32.064721,3.48312 -36.898311,0.96282 z M 138.5,610.19031 c 11.76246,-4.37184 16.94871,-7.70238 25.98983,-16.69031 6.94259,-6.90174 10.01005,-10.86512 13.15716,-17 9.93076,-19.35872 10.66809,-28.36749 3.56029,-43.5 -3.21574,-6.84632 -14.28139,-24 -15.48213,-24 -2.48542,0 -21.88061,17.148 -29.63183,26.19858 -9.20793,10.75149 -10.52252,12.58535 -15.00461,20.93146 -8.43354,15.70413 -13.92064,35.21363 -11.9486,42.48352 3.58648,13.2216 13.94514,17.30607 29.35989,11.57675 z m 177.55066,-28.05558 c 43.11139,-9.51722 71.67744,-35.5424 85.50389,-77.89858 3.05221,-9.35021 3.49768,-26.24926 0.83129,-31.53581 -3.97021,-7.87158 -9.48931,-11.51865 -18.66403,-12.33333 -5.76132,-0.51158 -6.56637,-0.32123 -10.87724,2.57186 -2.56048,1.71837 -6.37525,5.2476 -8.47726,7.84272 -2.10201,2.59513 -4.34196,5.16841 -4.97767,5.71841 -1.80893,1.56502 -15.41485,20.05121 -22.08016,30 -8.63238,12.88489 -18.34603,28.72939 -23.29634,38 -2.3495,4.4 -5.0615,9.35 -6.02665,11 C 304.64969,561.20451 294,582.23014 294,583.11347 c 0,1.54669 13.28122,0.95719 22.05066,-0.97874 z"
           id="path120" />
        <path
           style="fill:#302e2c"
           d="m 511.52449,835.10254 c -4.30958,-0.65317 -6.48228,-3.38146 -6.50975,-8.1744 -0.034,-5.9396 7.85511,-23.42011 15.91254,-35.25845 12.57228,-18.47175 25.05387,-28.38782 44.86039,-35.63961 6.1383,-2.24742 12.22354,-2.41605 18.71233,-0.51854 1.45374,0.42511 2.27313,-0.0428 3,-1.71334 0.91978,-2.11384 1.83151,-2.35334 11.36557,-2.98556 5.70106,-0.37805 11.01799,-0.93772 11.81539,-1.24371 2.09337,-0.8033 0.84091,2.70401 -3.36783,9.43107 -6.06947,9.70116 -9.57528,15.60637 -13.20709,22.24612 -1.58058,2.88963 -5.67103,9.84691 -9.08991,15.46061 -6.01511,9.87667 -7.56866,14.9722 -5.55711,18.22696 1.13615,1.83834 5.8292,1.14906 11.54098,-1.69504 6.48882,-3.23102 6.21842,-2.82107 38.3852,-58.19572 4.89919,-8.43387 4.84686,-8.40681 18.195,-9.40805 l 9.0802,-0.6811 -0.4437,3.02311 c -0.24403,1.66271 -0.15764,3.02311 0.192,3.02311 0.34963,0 4.1492,-1.76656 8.44349,-3.92568 4.29428,-2.15913 10.54947,-4.49197 13.90042,-5.1841 5.93737,-1.22634 6.19654,-1.18965 10.17001,1.43987 2.24256,1.48406 4.07738,3.5019 4.07738,4.4841 0,0.98219 0.49959,2.2854 1.1102,2.89601 1.69018,1.69018 -1.56774,10.41748 -7.38756,19.7898 -7.57342,12.19634 -16.29478,27.75585 -16.93949,30.22124 -0.66521,2.54376 0.66444,3.94155 4.21685,4.43294 2.41066,0.33346 2.30721,0.55129 -2.89506,6.09582 -2.96728,3.1625 -5.93564,5.75 -6.59636,5.75 -0.66072,0 -2.66005,0.72772 -4.44297,1.61715 -3.49049,1.74129 -12.30084,1.26244 -14.79061,-0.80389 -0.75284,-0.62479 -1.275,-3.32919 -1.275,-6.60351 0,-6.16713 2.77189,-12.00007 16.23454,-34.16264 3.82638,-6.2991 7.19386,-12.91217 7.48329,-14.69572 0.69374,-4.27499 -0.30233,-7.97797 -2.35821,-8.76689 -1.75083,-0.67185 -9.2252,1.76105 -13.24802,4.31222 -2.55354,1.61939 -8.35977,10.22458 -14.57652,21.60328 -2.10345,3.85 -6.30142,11.05 -9.32883,16 -3.02741,4.95 -6.91507,11.57244 -8.63923,14.71654 -1.72417,3.1441 -4.52512,7.68893 -6.22434,10.09963 -3.38041,4.79583 -1.63825,4.27003 -21.09268,6.3659 -2.8875,0.31107 -5.25,0.22548 -5.25,-0.19021 0,-0.41568 0.9367,-2.27141 2.08156,-4.12383 C 590.73015,819.70056 590.85962,819 589.704,819 c -0.80251,0 -1.92701,0.56378 -2.49889,1.25285 -0.57187,0.68907 -4.11447,2.75666 -7.87244,4.59463 -3.75797,1.83798 -7.61406,3.7492 -8.5691,4.24715 -0.95504,0.49795 -4.51256,0.90537 -7.90561,0.90537 -5.07257,0 -6.76367,-0.45344 -9.51357,-2.55089 C 551.50498,826.04612 550,824.27268 550,823.50813 c 0,-2.83828 -1.8897,-2.3779 -6.12297,1.49168 -2.39295,2.18737 -7.50671,5.48197 -11.36392,7.32134 -7.20807,3.43726 -12.25149,4.10561 -20.98862,2.78139 z m 30.78037,-14.02513 c 5.89148,-2.7 10.07223,-7.15381 15.76945,-16.7994 2.70913,-4.58665 4.92569,-8.56159 4.92569,-8.8332 0,-0.27161 1.9125,-3.5093 4.25,-7.19488 2.3375,-3.68558 4.7,-7.46103 5.25,-8.3899 0.55,-0.92886 2.49412,-4.1999 4.32027,-7.26897 3.8433,-6.45918 3.84902,-9.64133 0.0197,-10.98232 -6.19158,-2.16825 -21.35956,9.08704 -30.53705,22.65979 C 538.36186,796.01275 531,811.20246 531,815.84309 c 0,7.01537 3.69026,8.72401 11.30486,5.23432 z"
           id="path119" />
        <path
           style="fill:#302e2c"
           d="m 420,845.57647 c 0,-1.30917 4.44999,-9.37291 13.01072,-23.57647 4.80667,-7.975 10.52756,-17.65 12.71308,-21.5 2.18553,-3.85 6.3484,-10.825 9.25084,-15.5 2.90243,-4.675 8.74343,-14.575 12.98,-22 10.35057,-18.14038 10.26475,-18.01379 12.54536,-18.50527 1.1,-0.23706 4.925,-1.08695 8.5,-1.88865 3.575,-0.8017 8.36153,-1.66638 10.63673,-1.92151 l 4.13674,-0.46387 -3.91453,6.90802 c -2.15299,3.79942 -6.7583,11.51226 -10.23401,17.13966 -7.79147,12.61485 -15.82669,27.6297 -15.42459,28.82284 0.40624,1.20541 12.57447,-5.12303 19.05324,-9.90918 10.77809,-7.96224 24.20304,-24.94488 26.626,-33.68204 0.6101,-2.2 1.11178,-6.15899 1.11484,-8.79775 0.004,-3.85113 -0.49307,-5.25988 -2.52175,-7.14 -4.96092,-4.59762 -7.44762,-4.97863 -17.73199,-2.71684 -5.13747,1.12985 -11.49647,2.97828 -14.1311,4.10762 -2.63464,1.12934 -5.14861,1.83186 -5.58661,1.56117 -0.438,-0.2707 -1.35244,0.17787 -2.03211,0.99681 -0.67966,0.81894 -1.66689,1.48899 -2.19384,1.48899 -2.12323,0 -12.35496,7.69926 -18.47841,13.90479 -9.09064,9.2125 -13.11926,16.71159 -15.79214,29.39636 -0.56444,2.67868 -0.81397,2.78799 -5.70711,2.5 -4.22252,-0.24851 -5.47189,-0.77823 -7.14806,-3.03065 -1.64781,-2.21432 -1.82548,-3.15806 -0.94131,-5 0.59944,-1.24878 2.11094,-4.49141 3.35889,-7.20586 7.69238,-16.73192 41.06319,-38.78999 65.41112,-43.23666 15.98228,-2.91886 19.56328,-3.21635 25.83184,-2.14601 C 534.81937,726.14344 539,730.34466 539,739.9273 c 0,10.93529 -5.75294,21.02575 -19.7178,34.58438 -10.06132,9.76864 -27.12341,19.15578 -40.14274,22.08554 -10.25431,2.30754 -9.80937,1.8236 -24.15594,26.27294 -5.92867,10.10358 -11.72177,19.31254 -12.87357,20.46434 -1.7791,1.77909 -3.59992,2.15465 -12.10207,2.49615 C 424.50355,846.05173 420,845.93735 420,845.57647 Z"
           id="path118" />
        <path
           style="fill:#302e2c"
           d="m 175.5,875.86596 c -1.65,-0.45885 -3.75217,-0.59729 -4.67148,-0.30765 -0.96863,0.30518 -2.54549,-0.41152 -3.75,-1.7044 -4.89682,-5.25612 -1.66296,-16.88466 10.3845,-37.34132 7.30687,-12.4071 21.51291,-27.17298 32.03698,-33.29951 12.40764,-7.22304 28.61137,-10.6372 33.2062,-6.9966 0.6634,0.52563 1.65536,0.6781 2.20435,0.3388 0.54899,-0.33929 4.90627,-7.24053 9.68285,-15.33609 C 264.99083,763.59718 266.31481,762 270.52509,762 c 1.74706,0 4.48111,-0.41216 6.07569,-0.9159 C 282.08563,759.35137 289,758.92645 289,760.32211 c 0,0.70612 -2.475,5.22582 -5.5,10.04378 -3.025,4.81797 -5.5,8.95039 -5.5,9.18316 0,0.51098 -8.85216,15.61348 -14.03857,23.95095 -2.05281,3.3 -6.32664,10.5 -9.49742,16 -3.17077,5.5 -8.08697,13.825 -10.9249,18.5 -9.51057,15.66707 -9.4995,17.5 0.10568,17.5 4.92426,0 5.80441,-0.3256 7.86467,-2.9094 1.27593,-1.60018 2.87943,-4.97518 3.56333,-7.5 6.43932,-23.77282 33.19564,-53.76899 53.57658,-60.06402 7.47283,-2.30812 18.55622,-2.66182 22.35063,-0.71326 2.27625,1.16893 2.49152,1.83583 2.40524,7.45147 -0.0738,4.80542 -0.64833,7.00336 -2.60114,9.95143 -4.04904,6.11268 -12.38689,14.05762 -19.5945,18.67114 -6.31796,4.04406 -21.40409,11.0353 -27.09949,12.55848 -1.41727,0.37904 -3.39739,2.09412 -4.40027,3.81129 -2.11254,3.61716 -2.52608,12.55444 -0.68363,14.77445 1.47618,1.77869 9.20571,1.96031 14.07457,0.3307 6.72318,-2.25025 19.44429,-10.49307 26.59558,-17.23296 6.52693,-6.15145 8.78246,-9.43332 21.54685,-31.35146 7.84123,-13.46444 16.58318,-28.37263 19.42654,-33.12932 2.84336,-4.7567 6.35485,-10.67354 7.80331,-13.14854 4.22783,-7.22416 6.95195,-8.46419 23.37914,-10.6423 4.10711,-0.54457 4.31373,-0.45586 3.66911,1.57515 -0.3757,1.18372 -4.99353,9.44558 -10.26184,18.35968 -5.26832,8.91411 -13.14936,22.28247 -17.51342,29.70747 -4.36406,7.425 -10.37023,17.55 -13.34703,22.5 -11.18218,18.59435 -12.78153,23.49927 -8.14902,24.99152 1.2375,0.39863 2.62095,0.66496 3.07433,0.59185 1.12366,-0.18119 -0.15632,1.77118 -3.76903,5.74897 C 341.13304,854.70147 335.34608,857 327.50941,857 c -5.67441,0 -6.94465,-0.34433 -9.05486,-2.45455 -1.97677,-1.97676 -2.46047,-3.48531 -2.48496,-7.75 -0.0217,-3.77849 -0.2989,-4.83612 -0.96768,-3.69199 -1.36988,2.34355 -10.64818,9.23846 -17.07479,12.68864 -8.57553,4.60386 -23.44177,9.2079 -29.73191,9.2079 -5.84811,0 -11.33415,-2.52257 -13.24304,-6.08938 -1.28245,-2.39628 -2.45092,-2.40186 -5.7978,-0.0277 -3.11806,2.21184 -8.88818,5.58485 -15.07385,8.81164 C 230.59551,869.51253 228.05238,870 222.05303,870 213.5637,870 210,868.40634 210,864.60996 c 0,-3.80959 -1.08021,-3.72905 -6.07519,0.45299 -5.53025,4.63019 -15.42302,9.90591 -18.60971,9.92438 -1.2017,0.007 -3.2267,0.39522 -4.5,0.86278 -1.27331,0.46757 -3.6651,0.47469 -5.3151,0.0159 z m 27.14047,-15.04322 c 2.39774,-1.19749 4.35953,-2.54749 4.35953,-3 0,-0.4525 0.62809,-0.82274 1.39575,-0.82274 1.56455,0 2.53848,-1.49639 19.01926,-29.222 12.94226,-21.77276 13.94351,-25.00038 7.93641,-25.58379 -7.58892,-0.73705 -17.72854,6.49686 -27.74546,19.79444 -7.85484,10.42738 -16.51865,26.94148 -17.3376,33.04723 -1.05299,7.85067 3.74561,10.09515 12.37211,5.78686 z m 96.9982,-39.07548 c 8.27376,-4.22355 14.06285,-8.93133 19.20241,-15.61572 4.14993,-5.3973 6.76861,-12.10032 5.75707,-14.73635 -1.4546,-3.79063 -10.84281,0.10304 -19.33212,8.01781 C 299.04385,805.21408 287,821.87736 287,824.68499 c 0,2.21473 4.67301,1.12854 12.63867,-2.93773 z"
           id="path117" />
      </g>
      <g
         id="g123"
         inkscape:label="Circunferencia"
         transform="translate(0,-156)">
        <path
           style="fill:#302e2c"
           d="M 1019.153,461.70485 C 1018.0781,459.94218 1016.1602,456.25 1014.8911,453.5 1008.5877,439.8422 982.14182,398.84069 973.28864,389 970.03858,385.38741 968,382.63243 968,381.8528 c 0,-0.46265 -2.125,-2.9813 -4.72222,-5.59699 -2.59722,-2.6157 -6.17668,-6.6453 -7.95436,-8.95468 -4.19906,-5.45497 -24.4528,-25.66239 -30.84992,-30.77936 -2.73543,-2.18803 -6.7735,-5.62367 -8.9735,-7.63475 -2.2,-2.01109 -8.95,-7.53772 -15,-12.2814 -6.05,-4.74369 -11.54351,-9.07055 -12.20779,-9.61526 C 887.62792,306.44566 886.66356,306 886.1492,306 c -0.51437,0 -1.19424,-0.675 -1.51083,-1.5 -0.31658,-0.825 -1.22722,-1.5 -2.02365,-1.5 -0.79643,0 -1.61198,-0.49179 -1.81234,-1.09287 -0.20036,-0.60107 -2.44027,-2.28857 -4.97759,-3.75 -11.13846,-6.41545 -15.74614,-9.31318 -19.30106,-12.13827 C 854.43442,284.35849 852.27748,283 851.73053,283 c -0.54695,0 -2.61493,-1.0015 -4.59549,-2.22556 -1.98057,-1.22406 -4.20614,-2.31437 -4.94571,-2.42292 -2.331,-0.34211 -7.86206,-3.25226 -9.16488,-4.82206 -0.68808,-0.82909 -1.59673,-1.29381 -2.01921,-1.0327 -0.42248,0.26111 -2.39649,-0.63029 -4.38669,-1.98087 C 824.62835,269.1653 823,268.28617 823,268.56227 c 0,0.2761 -1.92613,-0.57335 -4.28029,-1.88766 C 812.90413,263.4278 794.23815,256 791.89454,256 790.85254,256 790,255.55 790,255 c 0,-0.55 -0.79987,-1 -1.77749,-1 -0.97763,0 -2.66513,-0.61301 -3.75,-1.36224 -1.08488,-0.74924 -4.11001,-1.67681 -6.72251,-2.06128 -2.6125,-0.38446 -4.75,-1.14801 -4.75,-1.69677 0,-0.54876 -0.37369,-0.76679 -0.83043,-0.48451 -1.10553,0.68325 -11.18305,-2.00868 -12.51829,-3.34392 -0.5782,-0.5782 -2.24214,-1.05128 -3.69764,-1.05128 -1.4555,0 -4.03877,-0.69462 -5.7406,-1.54361 -1.70183,-0.84898 -5.03347,-1.6848 -7.40364,-1.85738 -2.37017,-0.17257 -5.57619,-0.82795 -7.1245,-1.45639 -1.5483,-0.62844 -4.6983,-1.15832 -7,-1.17751 -2.30169,-0.0192 -7.7849,-0.69852 -12.1849,-1.50962 -34.45193,-6.35092 -87.63136,-7.2183 -121,-1.97354 -18.02534,2.83315 -28.06416,4.60839 -31,5.48197 -3.15337,0.93831 -18.28442,4.41421 -20,4.59439 -4.51214,0.47391 -38.83692,12.09252 -50,16.92452 -1.65,0.71421 -5.35209,2.25578 -8.22687,3.42572 -2.87478,1.16993 -10.07478,4.53209 -16,7.47147 -5.92522,2.93938 -11.44813,5.65282 -12.27313,6.02986 -0.825,0.37705 -3.15002,1.67657 -5.16671,2.88783 -2.01669,1.21126 -5.61669,3.26583 -8,4.56572 -2.38331,1.29988 -6.72468,3.99988 -9.64748,6 -2.92281,2.00011 -6.22319,4.14695 -7.33419,4.77075 -1.11099,0.62381 -2.52211,1.63631 -3.1358,2.25 -0.6137,0.6137 -1.67764,1.11582 -2.3643,1.11582 -0.68666,0 -2.48464,1.14563 -3.9955,2.54585 -4.74157,4.39435 -8.63242,5.74881 -13.01685,4.53135 -2.11154,-0.58632 -6.76417,-1.07545 -10.33917,-1.08694 -3.575,-0.0115 -7.05557,-0.37377 -7.73459,-0.80507 -1.79517,-1.14024 0.77105,-4.43011 6.52909,-8.37022 2.58802,-1.77093 5.30014,-3.80377 6.02693,-4.51742 C 400.54821,291.5839 401.52857,291 402,291 c 0.47143,0 1.45179,-0.58082 2.17857,-1.29071 6.71548,-6.55937 56.07905,-34.87506 73.32143,-42.05828 25.68594,-10.70083 47.89773,-18.61359 58,-20.66203 3.3,-0.66914 8.025,-1.80026 10.5,-2.5136 2.475,-0.71334 9,-2.27118 14.5,-3.46187 5.5,-1.19068 12.72875,-2.80582 16.06389,-3.58919 3.33514,-0.78338 7.61014,-1.42683 9.5,-1.4299 1.88986,-0.003 5.01111,-0.42216 6.93611,-0.93131 14.84075,-3.92533 94.7054,-4.01785 115.5,-0.1338 2.75,0.51365 7.7,1.3811 11,1.92767 15.71385,2.60263 56.84915,12.44356 59,14.11476 0.55,0.42734 2.35,1.01107 4,1.29717 4.86949,0.84433 41.3852,15.262 42.5,16.78047 0.275,0.37458 1.625,0.99499 3,1.37869 6.16585,1.7206 41.55099,20.94237 54.29978,29.49651 5.38988,3.61648 10.52932,7.02542 11.42097,7.57542 0.89165,0.55 2.33175,1.52737 3.20021,2.17194 26.40102,19.59443 45.80398,36.10275 61.62284,52.42961 10.84274,11.19093 15.15058,16.18907 30.74332,35.66969 7.88264,9.8481 25.29788,34.63647 27.56038,39.22876 1.6765,3.40283 3.5139,6.51415 4.8091,8.14335 0.5932,0.74616 2.4354,3.83165 4.0939,6.85665 7.8679,14.35116 10.2495,19.34697 10.2495,21.49972 0,1.28349 0.5625,2.56059 1.25,2.838 0.7467,0.30132 0.5454,0.53617 -0.5,0.58333 -0.9625,0.0434 -1.75,0.4582 -1.75,0.92173 0,0.86659 -6.4099,4.35242 -11.1963,6.08878 -2.4237,0.87922 -2.894,0.65402 -4.6507,-2.22671 z"
           id="path123" />
        <path
           style="fill:#302e2c"
           d="m 630.5,1087.4869 c -0.55,-0.1954 -7.975,-0.8617 -16.5,-1.4806 -34.12314,-2.4775 -61.77894,-8.014 -98.5,-19.7192 -33.77988,-10.7677 -78.27885,-32.7659 -105.5,-52.1545 -2.475,-1.7628 -6.29563,-4.3877 -8.49028,-5.8331 -19.00439,-12.51613 -50.86937,-41.23718 -74.00972,-66.70761 -7.78534,-8.56927 -32.86688,-41.57721 -39.10554,-51.46387 l -3.10553,-4.92147 5.10553,-2.21726 c 2.80805,-1.21949 5.88693,-2.61597 6.84197,-3.10327 0.95504,-0.48731 2.86754,-0.88602 4.25,-0.88602 1.38246,0 2.51357,-0.50953 2.51357,-1.13228 0,-0.62276 2.36913,2.41474 5.26472,6.75 4.93788,7.39293 8.64731,12.69074 11.42924,16.32326 14.77309,19.29004 22.67975,28.36821 38.64557,44.37159 24.83379,24.89223 33.23783,32.09568 56.46351,48.39726 19.29369,13.54177 50.55153,31.32797 67.69696,38.52067 2.2,0.9229 9.175,3.8905 15.5,6.5948 6.325,2.7042 15.55,6.1347 20.5,7.6232 4.95,1.4886 10.125,3.1033 11.5,3.5883 1.375,0.4849 7,1.9944 12.5,3.3543 5.5,1.3599 12.7,3.2031 16,4.096 22.30748,6.0358 61.12163,10.5139 91,10.4989 17.78913,-0.01 39.43935,-1.5293 58,-4.073 7.03629,-0.9642 11.77373,-1.8672 31.44753,-5.9936 2.44613,-0.513 5.82113,-1.3675 7.5,-1.8989 1.67886,-0.5314 6.20247,-1.83 10.05247,-2.8859 3.85,-1.0559 10.6,-2.9072 15,-4.114 4.4,-1.2069 10.475,-3.0883 13.5,-4.181 3.025,-1.0927 6.94624,-2.4203 8.71387,-2.9502 1.76762,-0.5299 3.48168,-1.3968 3.80901,-1.9264 0.32734,-0.5297 1.21699,-0.963 1.97701,-0.963 0.76002,0 5.12096,-1.7463 9.69098,-3.8807 4.57002,-2.1343 9.43413,-4.2111 10.80913,-4.615 4.92989,-1.4483 19.00024,-8.8739 37,-19.5266 0.825,-0.4883 3.975,-2.3248 7,-4.0812 14.71933,-8.54651 43.64924,-30.15732 57.31083,-42.81156 3.40404,-3.15304 7.7322,-7.04954 9.61814,-8.65887 4.82672,-4.11883 10.38409,-9.79759 19.07103,-19.48761 4.125,-4.60131 8.175,-9.05941 9,-9.90688 0.825,-0.84747 4.65635,-5.36377 8.5141,-10.03622 27.69231,-33.54045 54.2315,-80.12966 68.0697,-119.49536 12.7282,-36.20807 16.8697,-53.09421 22.3985,-91.3259 1.3075,-9.04186 3.743,-55.20168 3.401,-64.45951 l -0.2507,-6.78542 9.6837,0.28542 9.6837,0.28541 -0.1456,28 c -0.1561,30.00358 -1.8477,46.57481 -7.8678,77.07327 C 1060.5138,805.29469 1027.917,874.26209 985.13746,926.5 961.88142,954.89782 946.7945,970.01938 919,992.78934 c -10.29985,8.43786 -12.9168,10.33856 -32.14757,23.34886 -31.95269,21.6171 -69.69875,39.8292 -106.35243,51.314 -18.38513,5.7607 -30.27794,9.0494 -39.62201,10.9566 -4.19211,0.8557 -8.24211,1.7708 -9,2.0337 -3.19603,1.1087 -30.70264,4.6088 -47.3631,6.0268 -15.75279,1.3407 -51.22404,2.009 -54.01489,1.0176 z"
           id="path2" />
      </g>
    </g>
  </g>
</svg>
